<?xml version="1.0" standalone="no"?>
<!DOCTYPE svg PUBLIC "-//W3C//DTD SVG 1.1//EN" "http://www.w3.org/Graphics/SVG/1.1/DTD/svg11.dtd" >
<svg xmlns="http://www.w3.org/2000/svg" xmlns:xlink="http://www.w3.org/1999/xlink" version="1.1">
<metadata>
Created by FontForge 20170731 at Wed May 10 19:28:22 2023
 By Aleksey,,,
Copyright (c) 1990 Adobe Systems Incorporated. All rights reserved. Digitized data (c) 2002 The Monotype Corporation. All rights reserved.
</metadata>
<defs>
<font id="TwCenMTStd-Bold" horiz-adv-x="1087" >
  <font-face 
    font-family="Tw Cen MT Std"
    font-weight="700"
    font-stretch="normal"
    units-per-em="2048"
    panose-1="2 11 8 2 2 1 4 2 6 3"
    ascent="1638"
    descent="-410"
    x-height="858"
    cap-height="1313"
    bbox="-424 -475 2492 1747"
    underline-thickness="102"
    underline-position="-307"
    unicode-range="U+0020-FB02"
  />
<missing-glyph horiz-adv-x="1024" 
d="M25 0v1362h972v-1362h-972zM180 1266l332 -498l330 498h-662zM123 1178v-992q0 -1 82.5 123t164.5 249l83 124zM901 1178l-332 -496l332 -498v994zM842 98l-330 496l-332 -496h662z" />
    <glyph glyph-name="fi" unicode="fi" 
d="M942 956h-256q-9 60 -46 98t-87 38q-57 0 -100 -36.5t-43 -82.5v-115h131v-231h-129v-627h-262v627h-111v231h111v166q0 127 113 220t267 93q97 0 184.5 -36t141.5 -99q43 -53 63 -109t23 -137zM690 858h256v-858h-256v858z" />
    <glyph glyph-name="fl" unicode="fl" 
d="M948 0h-254v866q0 122 -35.5 175t-117.5 53q-52 0 -91.5 -40t-39.5 -93v-103h133v-231h-129v-627h-258v627h-115v231h111v160q0 69 40 140t103 112q104 69 240 69q201 0 319 -133q58 -65 76 -135t18 -225v-846z" />
    <glyph glyph-name=".notdef" horiz-adv-x="1024" 
d="M25 0v1362h972v-1362h-972zM180 1266l332 -498l330 498h-662zM123 1178v-992q0 -1 82.5 123t164.5 249l83 124zM901 1178l-332 -496l332 -498v994zM842 98l-330 496l-332 -496h662z" />
    <glyph glyph-name=".notdef" horiz-adv-x="1024" 
d="M25 0v1362h972v-1362h-972zM180 1266l332 -498l330 498h-662zM123 1178v-992q0 -1 82.5 123t164.5 249l83 124zM901 1178l-332 -496l332 -498v994zM842 98l-330 496l-332 -496h662z" />
    <glyph glyph-name=".null" horiz-adv-x="0" 
 />
    <glyph glyph-name="nonmarkingreturn" horiz-adv-x="682" 
 />
    <glyph glyph-name="space" unicode=" " horiz-adv-x="544" 
 />
    <glyph glyph-name="exclam" unicode="!" horiz-adv-x="425" 
d="M66 1315h284v-866h-284v866zM209 305q66 0 113 -47.5t47 -114.5q0 -66 -47 -112.5t-113 -46.5q-67 0 -113.5 46.5t-46.5 112.5q0 68 46.5 115t113.5 47z" />
    <glyph glyph-name="quotedbl" unicode="&#x22;" horiz-adv-x="970" 
d="M160 944l-54 275v247h308v-247l-47 -275h-207zM612 944l-53 275v247h305v-247l-45 -275h-207z" />
    <glyph glyph-name="numbersign" unicode="#" horiz-adv-x="1368" 
d="M78 1018h309l84 383h188l-84 -383h355l82 383h190l-82 -383h168v-191h-205l-63 -303h268v-188h-303l-84 -379h-188l82 379h-359l-78 -379h-190l80 379h-170v188h209l63 303h-272v191zM539 827l-62 -301h354l64 301h-356z" />
    <glyph glyph-name="dollar" unicode="$" 
d="M473 811v293l-10 -2q-35 -4 -64.5 -45.5t-29.5 -85.5q0 -102 104 -160zM625 485l-2 -2v-280q116 21 116 129q0 53 -27 89t-87 64zM475 1497h146v-170q85 -5 192 -55q71 -34 162 -98l-144 -187q-83 57 -120.5 76t-89.5 31v-330q95 -29 144 -53t99 -66q133 -115 133 -283
q0 -104 -47.5 -186t-138.5 -133q-38 -23 -77 -36.5t-111 -26.5v-302h-146v308q-84 9 -125.5 18t-87.5 29q-79 36 -166 108l129 191q144 -98 248 -115v311q-115 50 -164 78.5t-98 75.5q-98 95 -98 256q0 87 43 174t112 143q81 64 205 78v164z" />
    <glyph glyph-name="percent" unicode="%" horiz-adv-x="1961" 
d="M508 1290q-85 0 -120.5 -72t-35.5 -241q0 -148 38.5 -219.5t117.5 -71.5q74 0 112.5 73t38.5 214q0 92 -11 161t-30 89q-4 4 -8 10q-28 33 -49 45t-53 12zM508 1432q152 0 247 -123t95 -320q0 -200 -94 -323t-246 -123q-155 0 -251.5 123.5t-96.5 320.5q0 201 94.5 323
t251.5 122zM1489 594q-158 0 -158 -303q0 -154 37 -225.5t117 -71.5q76 0 112.5 71.5t36.5 221.5q0 161 -34.5 234t-110.5 73zM1483 741q152 0 248 -126t96 -326q0 -191 -99 -316t-251 -125q-145 0 -239.5 120.5t-94.5 305.5q0 208 94 337.5t246 129.5zM1319 1434h162
l-813 -1588h-160z" />
    <glyph glyph-name="ampersand" unicode="&#x26;" horiz-adv-x="1296" 
d="M571 795q125 96 125 180q0 48 -28.5 77t-77.5 29q-45 0 -74 -31.5t-29 -80.5q0 -58 84 -174zM602 377l-16 20q-4 4 -25 31q-47 56 -63 72q-109 -98 -109 -183q0 -43 33.5 -74.5t77.5 -31.5q35 0 75 17.5t103 60.5zM694 645l178 -209l7 6l8 9q113 103 127 124l133 -157
q-5 -7 -12 -12q-110 -122 -129 -125l241 -281h-321l-109 125q-12 -7 -28 -16.5t-29 -16.5q-106 -63 -172.5 -87.5t-132.5 -24.5q-40 0 -109 14q-80 24 -126 55.5t-79 87.5q-47 74 -47 170q0 145 119 252q64 56 160 107q-123 152 -123 297q0 125 98 214t234 89
q145 0 241.5 -87t96.5 -216q0 -98 -62 -166q-48 -58 -113 -109q-22 -22 -51 -43z" />
    <glyph glyph-name="quotesingle" unicode="'" horiz-adv-x="487" 
d="M143 944l-53 275v247h307v-247l-47 -275h-207z" />
    <glyph glyph-name="parenleft" unicode="(" horiz-adv-x="641" 
d="M410 1356l145 -123l-10 -16l-15 -21q-76 -119 -88 -141q-40 -76 -67 -162q-58 -177 -58 -377q0 -206 54 -371q29 -93 65.5 -161.5t118.5 -188.5l-145 -125q-84 106 -122 172t-77 170q-92 244 -92 512q0 233 82 463q42 114 82 185t127 184z" />
    <glyph glyph-name="parenright" unicode=")" horiz-adv-x="641" 
d="M74 1233l147 123q85 -109 125 -179.5t80 -181.5q84 -235 84 -479q0 -248 -80 -477q-38 -109 -78 -180.5t-127 -188.5l-151 125q77 108 112 174.5t68 165.5q59 177 59 379q0 203 -59 383q-31 93 -66.5 159.5t-113.5 176.5z" />
    <glyph glyph-name="asterisk" unicode="*" horiz-adv-x="874" 
d="M461 1010l24 -15q37 25 60.5 46.5t60.5 64.5q27 31 37 41q38 31 74 31q37 0 60.5 -24.5t23.5 -61.5q0 -42 -35 -65t-125 -40q-78 -16 -131 -41v-28q25 -14 41 -19t61 -14q75 -13 146 -39q41 -21 41 -72q0 -35 -24 -59.5t-58 -24.5q-29 0 -58.5 21.5t-78.5 79.5
q-47 54 -93 90l-28 -19q7 -61 35 -139q2 -7 8 -26t10 -33q4 -16 4 -37q0 -41 -23.5 -69t-58.5 -28q-38 0 -62 26t-24 69q0 25 12 59l31 82q5 14 12 47q1 4 2 10.5t2 10.5t1 8v22l-23 15l-8 -9l-8 -6q-46 -39 -56 -51q-23 -27 -26 -31q-3 -3 -8 -10q-44 -52 -62 -63
q-5 -3 -12 -7q-32 -12 -53 -12q-31 0 -55.5 27t-24.5 59t33.5 60.5t82.5 37.5l68 11q54 9 104 35l-2 32q-56 25 -118 35q-58 9 -101 25q-67 28 -67 84q0 32 25 58t57 26q43 0 92 -52l67 -73q15 -18 68 -60l27 15v16q0 23 -35 129q-2 6 -6 15.5t-5 13.5l-2 8q-10 34 -10 53
q0 41 22.5 67.5t57.5 26.5q38 0 63 -26.5t25 -63.5q0 -18 -6 -41l-12 -37q-39 -118 -39 -129v-32z" />
    <glyph glyph-name="plus" unicode="+" horiz-adv-x="1366" 
d="M125 784h450v449h213v-449h453v-215h-453v-448h-213v448h-450v215z" />
    <glyph glyph-name="comma" unicode="," horiz-adv-x="532" 
d="M186 299h256l-206 -551h-148z" />
    <glyph glyph-name="hyphen" unicode="-" horiz-adv-x="641" 
d="M29 559h577v-258h-577v258z" />
    <glyph glyph-name="hyphen" unicode="&#xad;" horiz-adv-x="641" 
d="M29 559h577v-258h-577v258z" />
    <glyph glyph-name="period" unicode="." horiz-adv-x="532" 
d="M264 303q66 0 113 -47t47 -113t-47 -112.5t-113 -46.5t-113 46.5t-47 112.5t47 113t113 47z" />
    <glyph glyph-name="slash" unicode="/" horiz-adv-x="747" 
d="M569 1411h150l-510 -1788h-150z" />
    <glyph glyph-name="zero" unicode="0" 
d="M545 1047q-110 0 -173 -111t-63 -309q0 -180 63.5 -288t168.5 -108q107 0 170 108.5t63 291.5q0 193 -61.5 304.5t-167.5 111.5zM545 1294q231 -10 364 -181.5t133 -457.5q0 -316 -137 -489q-68 -85 -162.5 -132.5t-197.5 -47.5q-226 0 -365 175.5t-139 461.5
q0 304 136 487.5t360 183.5h8z" />
    <glyph glyph-name="one" unicode="1" 
d="M266 1274h414v-1274h-279v1042h-184z" />
    <glyph glyph-name="two" unicode="2" 
d="M627 238h364v-238h-891l435 553q98 125 137 202.5t39 143.5q0 73 -48.5 121.5t-121.5 48.5q-81 0 -120 -58t-48 -192h-283q3 124 31 200.5t94 145.5q63 67 153.5 103.5t196.5 36.5q188 0 307 -109t119 -281q0 -97 -49 -206q-36 -88 -90 -164l-76 -111q-23 -36 -114 -153z
" />
    <glyph glyph-name="three" unicode="3" 
d="M360 911h-258q9 168 124.5 277.5t283.5 109.5q179 0 304.5 -101t125.5 -245q0 -156 -154 -282q101 -64 145 -132t44 -159q0 -180 -118.5 -287.5t-315.5 -107.5q-272 0 -396 223q-33 62 -53 168h264q25 -94 68.5 -138t112.5 -44q68 0 113.5 47.5t45.5 117.5
q0 86 -55 140.5t-143 54.5h-47v215h28q91 0 146 45t55 119q0 68 -43.5 115t-106.5 47q-72 0 -116 -47t-54 -136z" />
    <glyph glyph-name="four" unicode="4" 
d="M588 954l-328 -415h332v415h-4zM614 1276h258v-737h121v-234h-121v-305h-280v305h-567v236z" />
    <glyph glyph-name="five" unicode="5" 
d="M279 1278h632v-234h-385l-14 -151q99 0 170 -25q74 -25 126 -65.5t91 -106.5q66 -104 66 -231q0 -96 -41 -185.5t-109 -154.5t-162.5 -104t-197.5 -39q-94 0 -167.5 25.5t-172.5 92.5l30 291q208 -139 328 -139q86 0 149.5 61.5t63.5 143.5q0 92 -64 152.5t-161 60.5
q-113 0 -246 -56z" />
    <glyph glyph-name="six" unicode="6" 
d="M539 647q-88 0 -147.5 -59.5t-59.5 -145.5t59.5 -144t147.5 -58q78 0 134 59.5t56 144.5q0 87 -54 145t-136 58zM477 1276h336l-315 -430q66 12 118 12q166 0 285 -123t119 -293q0 -199 -140.5 -328.5t-357.5 -129.5q-201 0 -331 127t-130 325q0 137 60 279
q23 59 67.5 140t81.5 132z" />
    <glyph glyph-name="seven" unicode="7" 
d="M53 1276h1010l-813 -1315l-227 143l579 940h-549v232z" />
    <glyph glyph-name="eight" unicode="8" 
d="M545 1065q-57 0 -95 -38t-38 -95q0 -59 38 -98t95 -39q52 0 93.5 38.5t41.5 86.5q0 63 -38 104t-97 41zM541 555q-64 0 -110 -49.5t-46 -118.5q0 -63 47.5 -112.5t108.5 -49.5q68 0 114.5 49t46.5 119q0 68 -47 115t-114 47zM786 672q71 -50 107.5 -94t58.5 -107
q21 -55 21 -117q0 -166 -117.5 -268t-308.5 -102q-194 0 -314 101t-120 265q0 125 69 215q40 51 119 105q-83 72 -118.5 137.5t-35.5 148.5q0 105 62 192t162 122q68 26 170 26q183 0 291 -90.5t108 -242.5q0 -91 -36 -159.5t-118 -131.5z" />
    <glyph glyph-name="nine" unicode="9" 
d="M541 1036q-77 0 -133 -59.5t-56 -142.5t56.5 -140t136.5 -57q83 0 141.5 57.5t58.5 139.5q0 86 -58 144t-146 58zM600 0h-340l318 432q-92 -10 -115 -10q-170 0 -286 123.5t-116 304.5q0 190 143 318t355 128q202 0 329.5 -129.5t127.5 -335.5q0 -110 -41 -223
q-21 -58 -71 -151.5t-89 -149.5z" />
    <glyph glyph-name="colon" unicode=":" horiz-adv-x="532" 
d="M262 827q66 0 113 -46.5t47 -112.5t-47 -112t-113 -46t-113 46t-47 112t47 112.5t113 46.5zM264 303q66 0 113 -47t47 -113t-47 -111.5t-113 -45.5t-112 45.5t-46 111.5t46 113t112 47z" />
    <glyph glyph-name="semicolon" unicode=";" horiz-adv-x="532" 
d="M158 299h256l-209 -553h-148zM287 829q66 0 112.5 -46.5t46.5 -112.5t-46.5 -113t-112.5 -47t-113 47t-47 113t47 112.5t113 46.5z" />
    <glyph glyph-name="semicolon" unicode="&#x37e;" horiz-adv-x="532" 
d="M158 299h256l-209 -553h-148zM287 829q66 0 112.5 -46.5t46.5 -112.5t-46.5 -113t-112.5 -47t-113 47t-47 113t47 112.5t113 46.5z" />
    <glyph glyph-name="less" unicode="&#x3c;" horiz-adv-x="1366" 
d="M1239 115l-1112 465v192l1112 465v-231l-819 -330l819 -328v-233z" />
    <glyph glyph-name="equal" unicode="=" horiz-adv-x="1366" 
d="M127 1024h1112v-215h-1112v215zM127 547h1112v-215h-1112v215z" />
    <glyph glyph-name="greater" unicode="&#x3e;" horiz-adv-x="1366" 
d="M127 1237l1112 -463v-194l-1112 -465v233l819 328l-819 330v231z" />
    <glyph glyph-name="question" unicode="?" horiz-adv-x="980" 
d="M627 514v-68h-281v271h51q116 0 185 52t69 140q0 67 -52 117.5t-120 50.5q-61 0 -106 -46t-45 -109v-21h-281v12q0 111 62 207.5t167 153.5t226 57q115 0 213.5 -56t156.5 -151t58 -206q0 -93 -41.5 -182t-112.5 -148q-32 -26 -61.5 -40.5t-87.5 -33.5zM487 301
q66 0 112 -46.5t46 -111.5q0 -66 -46 -112.5t-112 -46.5q-65 0 -111 46.5t-46 112.5q0 65 46.5 111.5t110.5 46.5z" />
    <glyph glyph-name="at" unicode="@" horiz-adv-x="1996" 
d="M1774 18h213q-107 -217 -334 -332.5t-545 -115.5h-6q-490 0 -767.5 242t-277.5 669q0 256 109.5 480t300.5 356q120 83 281 128.5t333 45.5q251 0 445 -96.5t300.5 -271.5t106.5 -402q0 -145 -53 -278t-141.5 -230t-210.5 -155t-254 -58q-82 0 -125.5 27t-58.5 88
q-118 -115 -271 -115q-173 0 -279 118t-106 310q0 145 60 287.5t163 242.5q131 125 318 125q177 0 264 -135l25 111h262l-150 -717q-14 -66 -14 -90q0 -47 39 -47q34 0 85.5 31t96.5 77q170 179 170 418q0 261 -185.5 419.5t-490.5 158.5q-209 0 -373.5 -69.5t-273.5 -203.5
q-87 -104 -138.5 -257.5t-51.5 -309.5q0 -332 226.5 -524.5t618.5 -192.5q478 0 689 266zM692 430v-14q0 -106 48.5 -170t129.5 -64q63 0 118 35t95 98q43 69 72 170.5t29 184.5q0 107 -51 170t-136 63q-126 0 -211.5 -133t-93.5 -340z" />
    <glyph glyph-name="A" unicode="A" horiz-adv-x="1409" 
d="M698 883l-153 -387h311zM588 1313h219l536 -1313h-284l-107 258h-503l-103 -258h-283z" />
    <glyph glyph-name="B" unicode="B" horiz-adv-x="1085" 
d="M412 1092v-2v-285h65q72 0 121 45.5t49 112.5q0 55 -48 92t-120 37h-67zM412 582v-361h102q234 0 234 170q0 92 -57 141.5t-163 49.5h-116zM129 1313h383q127 0 206.5 -26.5t135.5 -88.5q30 -33 52 -97t22 -122q0 -82 -30.5 -140t-104.5 -122q82 -29 128 -65.5t78 -96.5
q43 -73 43 -172q0 -182 -124.5 -282.5t-348.5 -100.5h-440v1313z" />
    <glyph glyph-name="C" unicode="C" horiz-adv-x="1193" 
d="M1114 1243v-321q-105 61 -167.5 86t-133.5 36q-40 7 -72 7q-161 0 -256.5 -110t-95.5 -296q0 -177 101 -282t270 -105q79 0 158 26.5t196 92.5v-318q-136 -44 -217 -60.5t-168 -16.5q-175 0 -321 88.5t-230 242t-84 338.5q0 188 85.5 344t234.5 246t327 90q172 0 373 -88
z" />
    <glyph glyph-name="D" unicode="D" horiz-adv-x="1300" 
d="M412 1065v-811h112q85 0 166 28t127 72q105 97 105 312q0 117 -43.5 208t-118.5 134q-45 25 -115 41t-129 16h-104zM127 1313h448q287 0 462 -181t175 -477q0 -298 -180 -476.5t-481 -178.5h-424v1313z" />
    <glyph glyph-name="E" unicode="E" horiz-adv-x="980" 
d="M135 1313h739v-260h-456v-265h456v-256h-456v-272h456v-260h-739v1313z" />
    <glyph glyph-name="F" unicode="F" horiz-adv-x="980" 
d="M135 1313h739v-254h-458v-268h458v-256h-456v-535h-283v1313z" />
    <glyph glyph-name="G" unicode="G" horiz-adv-x="1409" 
d="M1249 1028l-188 -176q-31 51 -53 76t-56 51q-102 76 -219 76q-155 0 -268 -116.5t-113 -276.5q0 -169 113 -286.5t274 -117.5q85 0 152 37q52 26 81.5 61t63.5 111h-311v256h606v-170q0 -117 -70.5 -248.5t-173.5 -204.5q-76 -55 -178 -86.5t-202 -31.5q-180 0 -328 89.5
t-233 246.5t-85 348q0 181 88 334.5t239 242t329 88.5q208 0 373 -121q46 -35 77.5 -71.5t81.5 -110.5z" />
    <glyph glyph-name="H" unicode="H" horiz-adv-x="1300" 
d="M131 1313h283v-506h465v506h282v-1313h-282v522h-465v-522h-283v1313z" />
    <glyph glyph-name="I" unicode="I" horiz-adv-x="532" 
d="M119 1313h282v-1313h-282v1313z" />
    <glyph glyph-name="J" unicode="J" horiz-adv-x="874" 
d="M461 1313h280v-930q0 -181 -99.5 -291t-262.5 -110q-153 0 -256 112q-31 33 -50 66t-46 102l206 156v-4q1 -1 7 -13q34 -78 60.5 -110.5t57.5 -32.5q46 0 74.5 39t28.5 104v912z" />
    <glyph glyph-name="K" unicode="K" horiz-adv-x="1300" 
d="M139 1313h283v-555h4l436 555h346l-499 -627l520 -686h-340l-463 614h-4v-614h-283v1313z" />
    <glyph glyph-name="L" unicode="L" horiz-adv-x="874" 
d="M139 1313h281v-1030h387v-283h-668v1313z" />
    <glyph glyph-name="M" unicode="M" horiz-adv-x="1622" 
d="M227 1313h336l244 -787h4l244 787h325l168 -1313h-270l-115 924h-4l-285 -924h-129l-292 932h-4l-109 -932h-274z" />
    <glyph glyph-name="N" unicode="N" horiz-adv-x="1409" 
d="M1001 1313h277v-1313h-274l-598 850h-5v-850h-282v1313h278l600 -844h4v844z" />
    <glyph glyph-name="O" unicode="O" horiz-adv-x="1515" 
d="M707 1063q-148 -19 -235 -131.5t-87 -282.5q0 -175 102.5 -290t260.5 -115q167 0 267.5 113.5t100.5 299.5q0 183 -100.5 295.5t-263.5 112.5q-8 0 -23 -1t-22 -1zM684 1325q9 0 27.5 1t27.5 1q193 0 347 -86.5t240.5 -240t86.5 -345.5q0 -191 -85.5 -344.5t-237.5 -240
t-342 -86.5q-142 0 -264 50t-208.5 138.5t-136 214t-49.5 270.5q0 176 76 322.5t211.5 237.5t306.5 108z" />
    <glyph glyph-name="P" unicode="P" 
d="M416 1077v-336h110q70 0 121 50.5t51 121.5q0 80 -57.5 124t-161.5 44q-1 0 -63 -4zM139 1313h449q182 0 292.5 -105t110.5 -278q0 -95 -38 -181t-101 -137q-52 -40 -130.5 -70t-137.5 -30l-164 -4v-508h-281v1313z" />
    <glyph glyph-name="Q" unicode="Q" horiz-adv-x="1515" 
d="M866 262l-139 164l186 121l127 -150q41 47 59.5 106t18.5 146q0 191 -99.5 304.5t-266.5 113.5q-161 0 -263 -112.5t-102 -290.5q0 -181 97 -297.5t249 -116.5q57 0 133 12zM1227 176l162 -186l-191 -121l-147 178q-102 -37 -162 -49t-135 -12q-192 0 -343.5 87.5
t-236 245t-84.5 357.5q0 126 53 252t144 217q184 184 465 184q185 0 337 -87t239 -239.5t87 -338.5q0 -106 -29.5 -210.5t-80.5 -181.5q-29 -42 -78 -96z" />
    <glyph glyph-name="R" unicode="R" horiz-adv-x="1193" 
d="M416 1079v-2v-340h61q221 0 221 181q0 75 -58 118t-159 43h-65zM131 1313h432q197 0 311.5 -103.5t114.5 -281.5q0 -111 -55 -215q-32 -60 -70.5 -93t-120.5 -73l367 -547h-324l-340 508h-32v-508h-283v1313z" />
    <glyph glyph-name="S" unicode="S" horiz-adv-x="974" 
d="M870 1194l-176 -193q-83 48 -124 65t-76 17q-47 0 -81 -35.5t-34 -84.5q0 -97 176 -168q141 -60 199 -103q72 -54 111.5 -130t39.5 -161q0 -170 -136.5 -294.5t-322.5 -124.5q-97 0 -190 43q-57 25 -100 55t-113 94l186 217q67 -69 122 -99t112 -30q53 0 100 47
q45 45 45 94q0 54 -52.5 97.5t-164.5 83.5q-109 40 -148.5 65.5t-90.5 89.5q-34 59 -47 102t-13 97q0 175 114 284t298 109q114 0 196 -33q49 -17 82.5 -37.5t87.5 -66.5z" />
    <glyph glyph-name="T" unicode="T" horiz-adv-x="980" 
d="M43 1313h883v-279h-301v-1034h-283v1034h-299v279z" />
    <glyph glyph-name="U" unicode="U" horiz-adv-x="1300" 
d="M133 1313h279v-803q0 -112 62 -180t163 -68q117 0 180.5 68.5t63.5 193.5v789h278v-850q0 -84 -34 -176t-87 -152q-67 -73 -167.5 -113t-217.5 -40q-231 0 -362 116q-70 63 -114 161.5t-44 189.5v864z" />
    <glyph glyph-name="V" unicode="V" horiz-adv-x="1300" 
d="M25 1313h286l332 -873l332 873h287l-496 -1313h-246z" />
    <glyph glyph-name="W" unicode="W" horiz-adv-x="1622" 
d="M33 1313h252l211 -895h4l217 895h180l213 -899h4l215 899h252l-317 -1313h-267l-190 805h-4l-191 -805h-266z" />
    <glyph glyph-name="X" unicode="X" horiz-adv-x="1300" 
d="M80 1313h301l264 -402l273 402h292l-415 -625l456 -688h-293l-311 467l-311 -467h-299l461 686z" />
    <glyph glyph-name="Y" unicode="Y" horiz-adv-x="1193" 
d="M33 1313h313l242 -408l246 408h315l-418 -699v-614h-280v614z" />
    <glyph glyph-name="Z" unicode="Z" horiz-adv-x="1193" 
d="M150 1313h952l-592 -1041h571v-272h-1009l596 1044h-518v269z" />
    <glyph glyph-name="bracketleft" unicode="[" horiz-adv-x="641" 
d="M160 1335h430v-170h-246v-1308h242v-168h-426v1646z" />
    <glyph glyph-name="backslash" unicode="\" horiz-adv-x="747" 
d="M59 1407h148l510 -1782h-142z" />
    <glyph glyph-name="bracketright" unicode="]" horiz-adv-x="641" 
d="M43 1335h426v-1646h-426v168h244v1308h-244v170z" />
    <glyph glyph-name="asciicircum" unicode="^" horiz-adv-x="1196" 
d="M115 692l377 799h223l366 -799h-284l-199 490l-197 -490h-286z" />
    <glyph glyph-name="underscore" unicode="_" horiz-adv-x="1024" 
d="M-14 -254v102h1052v-102h-1052z" />
    <glyph glyph-name="grave" unicode="`" horiz-adv-x="681" 
d="M496 991h-179l-274 299h313z" />
    <glyph glyph-name="a" unicode="a" horiz-adv-x="1081" 
d="M481 618q-68 -8 -111.5 -66.5t-43.5 -143.5q0 -86 49 -138.5t127 -52.5q77 0 130.5 60.5t53.5 146.5q0 81 -54 139t-128 58q-11 0 -23 -3zM692 0v147h-4q-64 -91 -125 -127t-147 -36q-152 0 -257.5 130t-105.5 316q0 184 112 315.5t269 131.5q70 0 128.5 -31.5
t129.5 -106.5v119h256v-858h-256z" />
    <glyph glyph-name="b" unicode="b" 
d="M537 618q-71 -9 -112.5 -62.5t-41.5 -135.5q0 -88 53 -145.5t135 -57.5q74 0 123 56.5t49 142.5q0 85 -53.5 145t-128.5 60q-12 0 -24 -3zM121 1337h256v-594q61 70 123 102t137 32q102 0 189.5 -60.5t138.5 -165t51 -227.5q0 -177 -110 -308.5t-259 -131.5
q-72 0 -134 35t-138 120v-139h-254v1337z" />
    <glyph glyph-name="c" unicode="c" horiz-adv-x="827" 
d="M745 297v-256q-134 -59 -219 -59q-195 0 -324.5 127.5t-129.5 320.5q0 194 120 320.5t306 126.5q127 0 250 -60v-242q-111 54 -205 54q-86 0 -138.5 -52.5t-52.5 -138.5t52 -138t137 -52q76 0 204 49z" />
    <glyph glyph-name="d" unicode="d" 
d="M485 623q-69 -11 -112 -69.5t-43 -143.5q0 -78 48.5 -134.5t117.5 -56.5q83 0 137.5 60t54.5 151q0 78 -53 136.5t-125 58.5q-4 0 -12.5 -1t-12.5 -1zM692 1335h258v-1335h-252v147h-4q-60 -85 -126 -123t-152 -38q-149 0 -253 129t-104 315t107.5 317.5t259.5 131.5
q82 0 140.5 -30t125.5 -104v590z" />
    <glyph glyph-name="e" unicode="e" horiz-adv-x="980" 
d="M311 541h346q-17 78 -59.5 119.5t-105.5 41.5q-75 0 -123.5 -43t-57.5 -118zM922 369h-613q3 -78 52 -132.5t118 -54.5q62 0 105 25t80 82l235 -78q-51 -82 -98.5 -124.5t-118.5 -70.5q-81 -34 -190 -34q-203 0 -323 122.5t-120 331.5q0 187 126 314t312 127t310.5 -133
t124.5 -334v-41z" />
    <glyph glyph-name="f" unicode="f" horiz-adv-x="641" 
d="M598 1303v-246q-59 39 -100 39q-54 0 -87.5 -39t-33.5 -101v-96h219v-233h-221v-627h-256v627h-76v233h76v105q0 109 21 177t67 113q40 40 99 62t124 22q100 0 168 -36z" />
    <glyph glyph-name="g" unicode="g" horiz-adv-x="1083" 
d="M322 424q7 -72 65 -126t127 -54q75 0 128.5 59.5t53.5 145.5q0 89 -51 145.5t-131 56.5q-82 0 -137 -59.5t-55 -147.5v-20zM694 49v101h-4q-61 -78 -122.5 -112t-139.5 -34q-163 0 -271 124.5t-108 313.5q0 119 51 219.5t139 159t193 58.5q70 0 130.5 -32.5t131.5 -107.5
v119h254v-870q0 -46 -19.5 -104.5t-49.5 -100.5q-45 -63 -131 -98q-107 -45 -254 -45q-243 0 -357 129q-28 32 -45 66.5t-39 101.5h287q47 -64 88 -90.5t94 -26.5q76 0 124 64t48 165z" />
    <glyph glyph-name="h" unicode="h" 
d="M141 1335h260v-575q74 64 134.5 89t134.5 25q135 0 211.5 -97.5t76.5 -270.5v-506h-258v461q0 83 -42 139.5t-105 56.5q-78 0 -115 -65t-37 -203v-389h-260v1335z" />
    <glyph glyph-name="i" unicode="i" horiz-adv-x="532" 
d="M133 860h256v-860h-256v860zM260 1337q66 0 113 -46.5t47 -112.5t-47 -113t-113 -47t-113 47t-47 113t47 112.5t113 46.5z" />
    <glyph glyph-name="j" unicode="j" horiz-adv-x="532" 
d="M135 858h258v-1237h-258v1237zM266 1337q66 0 112 -45.5t46 -111.5t-46 -113t-112 -47t-113 47t-47 113t47 111.5t113 45.5z" />
    <glyph glyph-name="k" unicode="k" horiz-adv-x="980" 
d="M115 1335h254v-811h4l250 336h307l-285 -379l309 -481h-288l-293 455h-4v-455h-254v1335z" />
    <glyph glyph-name="l" unicode="l" horiz-adv-x="532" 
d="M133 1335h256v-1335h-256v1335z" />
    <glyph glyph-name="m" unicode="m" horiz-adv-x="1622" 
d="M391 860v-137q21 15 41 35q68 66 113 89t127 32q167 -12 243 -189q54 66 87 95.5t85 58.5q65 35 127 35q117 0 198 -96.5t81 -237.5v-545h-256v477q0 70 -38.5 119t-94.5 49q-66 0 -114 -55t-48 -131v-459h-254v465q0 75 -39 126.5t-96 51.5q-66 0 -114 -56.5t-48 -135.5
v-451h-258v860h258z" />
    <glyph glyph-name="n" unicode="n" 
d="M397 860v-102q57 56 132.5 89.5t142.5 33.5q124 0 204 -101t80 -258v-522h-260v481q0 74 -40.5 125t-98.5 51q-70 0 -115 -65t-45 -166v-426h-256v860h256z" />
    <glyph glyph-name="o" unicode="o" 
d="M545 645q-79 0 -136 -61t-57 -146q0 -93 56.5 -158t136.5 -65q77 0 133.5 63.5t56.5 149.5q0 88 -56.5 152.5t-133.5 64.5zM551 879q186 0 311 -128t125 -319q0 -195 -124.5 -322.5t-315.5 -127.5q-198 0 -318 120q-60 60 -95.5 148.5t-35.5 177.5q0 199 126.5 325
t326.5 126z" />
    <glyph glyph-name="p" unicode="p" 
d="M569 621q-75 0 -126.5 -59.5t-51.5 -145.5q0 -83 54.5 -142t132.5 -59q77 0 125.5 56t48.5 145q0 85 -54 145t-129 60zM383 858v-125h4q59 77 119 110.5t143 33.5q155 0 263 -134.5t108 -328.5q0 -177 -104.5 -303.5t-251.5 -126.5q-84 0 -144 34t-129 121h-4v-518h-260
v1237h256z" />
    <glyph glyph-name="q" unicode="q" horiz-adv-x="1081" 
d="M506 621q-81 0 -134 -60t-53 -151q0 -84 49 -139.5t121 -55.5q77 0 134 60t57 141q0 80 -53.5 142.5t-120.5 62.5zM688 -379v533h-4q-65 -94 -124.5 -132t-145.5 -38q-155 0 -261 126.5t-106 309.5q0 192 109.5 323t269.5 131q84 0 143.5 -34t114.5 -115h4v133h256v-1237
h-256z" />
    <glyph glyph-name="r" unicode="r" horiz-adv-x="641" 
d="M365 860v-127h4q36 62 87.5 100.5t94.5 38.5q24 0 47 -4v-280q-33 6 -63 6q-78 0 -122 -55.5t-44 -155.5v-383h-260v860h256z" />
    <glyph glyph-name="s" unicode="s" horiz-adv-x="874" 
d="M754 739l-174 -106q-76 76 -140 76q-32 0 -55 -18t-23 -44q0 -40 25.5 -60t110.5 -48q4 -2 19 -7.5t26 -9.5q49 -19 108 -51q127 -72 127 -217q0 -112 -100 -191t-240 -79q-130 0 -245 92q-31 25 -52 49.5t-53 73.5l207 94q37 -63 71.5 -92t73.5 -29q34 0 61 22t27 50
q0 50 -67 71q-6 2 -10 2q-13 8 -50 21q-62 18 -125 51q-83 46 -119 99t-36 130q0 115 93 187t241 72q86 0 155.5 -32t143.5 -106z" />
    <glyph glyph-name="t" unicode="t" horiz-adv-x="532" 
d="M121 1155h256v-295h123v-235h-123v-625h-256v625h-98v235h98v295z" />
    <glyph glyph-name="u" unicode="u" 
d="M119 858h260v-412q0 -89 45 -148.5t113 -59.5q72 0 120 57.5t48 144.5v418h260v-500q0 -161 -121 -267.5t-303 -106.5q-192 0 -307 107.5t-115 287.5v479z" />
    <glyph glyph-name="v" unicode="v" 
d="M35 860h270l236 -504l235 504h268l-399 -860h-209z" />
    <glyph glyph-name="w" unicode="w" horiz-adv-x="1622" 
d="M23 860h270l231 -510l205 510h166l203 -506l229 506h270l-391 -860h-207l-186 471l-190 -471h-209z" />
    <glyph glyph-name="x" unicode="x" 
d="M53 860h314l174 -215l172 215h313l-330 -411l361 -449h-316l-200 252l-203 -252h-315l358 449z" />
    <glyph glyph-name="y" unicode="y" 
d="M51 858h273l247 -500l220 500h262l-535 -1237h-266l192 440z" />
    <glyph glyph-name="z" unicode="z" horiz-adv-x="980" 
d="M119 860h811l-455 -624h383v-236h-811l457 627h-385v233z" />
    <glyph glyph-name="braceleft" unicode="{" horiz-adv-x="796" 
d="M63 391v242q81 3 122.5 27t66.5 81q19 46 25 94.5t6 155.5v17v18q0 117 7 176.5t27 104.5q27 67 91 106q57 36 115 48t171 12h54v-240h-13q-122 0 -156.5 -25.5t-35.5 -117.5q0 -300 -35 -400q-22 -60 -54.5 -98.5t-97.5 -79.5q58 -33 94 -76t56 -102q37 -113 37 -400
q0 -89 35.5 -116t154.5 -27h15v-240h-54q-116 0 -175 12.5t-111 47.5q-64 40 -93 106q-20 48 -26 105t-6 176v18v17q0 159 -23.5 231.5t-83.5 104.5q-26 12 -45.5 16.5t-67.5 5.5z" />
    <glyph glyph-name="bar" unicode="|" horiz-adv-x="1204" 
d="M494 1425h217v-1701h-217v1701z" />
    <glyph glyph-name="braceright" unicode="}" horiz-adv-x="796" 
d="M733 633v-242q-81 -3 -122 -27t-66 -81q-19 -46 -25 -94.5t-6 -155.5v-17v-18q0 -115 -7 -175t-26 -106q-26 -66 -92 -106q-57 -35 -115.5 -47.5t-171.5 -12.5h-53v240h14q119 0 155 27t36 116q0 299 37 400q22 62 56.5 103t92.5 75q-65 41 -97.5 80t-53.5 98
q-35 107 -35 400q-1 92 -36 117.5t-157 25.5h-12v240h53q114 0 173.5 -12.5t113.5 -47.5q65 -43 90 -106q20 -50 27.5 -108t7.5 -173v-18v-17q0 -160 23 -232t84 -104q26 -13 45 -17t67 -5z" />
    <glyph glyph-name="asciitilde" unicode="~" horiz-adv-x="1343" 
d="M1227 895v-223q-171 -140 -303 -140q-64 0 -123 19t-183 80q-132 63 -198 63q-144 0 -303 -147v223q158 137 317 137q57 0 115 -17.5t156 -66.5q92 -44 139 -59.5t90 -15.5q127 0 293 147z" />
    <glyph glyph-name="uni00A0" unicode="&#xa0;" horiz-adv-x="544" 
 />
    <glyph glyph-name="exclamdown" unicode="&#xa1;" horiz-adv-x="425" 
d="M209 1100q66 0 113 -47t47 -113t-47 -112t-113 -46t-112 46t-46 112t46 113t112 47zM68 635h282v-864h-282v864z" />
    <glyph glyph-name="cent" unicode="&#xa2;" horiz-adv-x="874" 
d="M440 319l97 299q-138 -38 -138 -184q0 -48 41 -115zM702 1147h132l-93 -301l62 -29v-242q-53 26 -135 48l-115 -369q35 -6 47 -6q68 0 201 51v-254q-52 -28 -118 -45.5t-122 -17.5q-30 0 -90 14l-119 -369h-133l131 416q-51 36 -77.5 60t-53.5 59q-90 119 -90 266
q0 100 38 190.5t107 153.5q66 60 135.5 81t204.5 21z" />
    <glyph glyph-name="sterling" unicode="&#xa3;" horiz-adv-x="1085" 
d="M346 182q-52 58 -108 58q-33 0 -55.5 -19.5t-22.5 -48.5q0 -28 19.5 -48t45.5 -20q31 0 57 17t64 61zM954 973h-243v22q0 53 -24.5 85t-65.5 32q-42 0 -65.5 -28t-23.5 -80q0 -80 37 -209h242v-187h-209q2 -31 2 -57v-27l-2 -8v-8q-8 -129 -49 -225q84 -43 127.5 -58.5
t81.5 -15.5q55 0 79 33.5t27 115.5h181v-84q0 -133 -73 -211.5t-198 -78.5q-62 0 -133.5 27.5t-183.5 94.5q-65 -69 -114.5 -95.5t-113.5 -26.5q-85 0 -137.5 53t-52.5 139t57 137.5t152 51.5q57 0 141 -31l2 96q0 36 -12 89t-29 91h-268v187h225q-22 100 -22 170
q0 85 21.5 141t68.5 96q103 86 248 86q229 0 303 -174q22 -55 24 -143z" />
    <glyph glyph-name="currency" unicode="&#xa4;" horiz-adv-x="1366" 
d="M158 1059l139 143l135 -135q74 47 122 61.5t136 14.5q72 0 120.5 -15.5t121.5 -60.5l135 135l141 -143l-135 -135q46 -76 60 -125t14 -127q0 -80 -14.5 -128t-59.5 -118l135 -131l-141 -141l-135 131q-76 -46 -124.5 -61t-127.5 -15q-82 0 -130 15t-118 61l-131 -131
l-143 141l133 131q-45 79 -59.5 128t-14.5 126q0 80 14.5 127t59.5 117zM416 676q0 -110 78 -189t188 -79t188 79t78 189t-77.5 188t-186.5 78q-110 0 -189 -78t-79 -188z" />
    <glyph glyph-name="yen" unicode="&#xa5;" horiz-adv-x="1193" 
d="M604 903l246 408h315l-114 -193h71v-131h-151l-148 -248h299v-129h-374v-610h-283v610h-381v129h305l-147 248h-158v131h80l-115 193h313z" />
    <glyph glyph-name="brokenbar" unicode="&#xa6;" horiz-adv-x="1204" 
d="M494 453h217v-729h-217v729zM494 1425h217v-731h-217v731z" />
    <glyph glyph-name="section" unicode="&#xa7;" horiz-adv-x="978" 
d="M428 674l-8 -2q-46 -38 -65 -70t-19 -70q0 -103 225 -249q50 46 69 77t19 66q0 52 -47.5 105.5t-173.5 142.5zM825 1047h-237q-41 61 -99 61q-35 0 -56 -18t-21 -46q0 -37 27 -66t136 -106q19 -13 52.5 -37t42.5 -30.5t27 -20t28 -22.5t23 -21q63 -68 89.5 -128
t26.5 -136q0 -95 -38.5 -166t-129.5 -143q80 -87 105.5 -134t25.5 -110q0 -132 -91 -216.5t-234 -84.5q-142 0 -237.5 80.5t-106.5 208.5h239q45 -62 101 -62q32 0 54.5 20.5t22.5 49.5q0 31 -37.5 68.5t-127.5 95.5q-7 4 -27 16q-95 70 -145 117q-117 114 -117 266
q0 94 37.5 162t132.5 146q-79 83 -106 132.5t-27 112.5q0 129 92.5 214t234.5 85q143 0 238.5 -80.5t101.5 -207.5z" />
    <glyph glyph-name="dieresis" unicode="&#xa8;" horiz-adv-x="681" 
d="M-20 1147q0 56 39 95.5t96 39.5t96 -39.5t39 -95.5q0 -57 -39 -96t-96 -39t-96 39t-39 96zM432 1147q0 56 39 95.5t96 39.5t96 -39.5t39 -95.5q0 -57 -39 -96t-96 -39t-96 39t-39 96z" />
    <glyph glyph-name="copyright" unicode="&#xa9;" horiz-adv-x="1511" 
d="M940 616l162 -55q-79 -258 -354 -258q-166 0 -267.5 117.5t-101.5 310.5q0 194 105.5 309t283.5 115q125 0 206.5 -60t127.5 -184l-162 -39q-28 72 -71 106t-107 34q-95 0 -151 -72.5t-56 -196.5q0 -146 51 -222.5t148 -76.5q70 0 115 41.5t71 130.5zM754 1495
q209 0 385.5 -102.5t279 -279t101.5 -384.5q0 -208 -102.5 -384t-279 -279t-384.5 -103q-155 0 -297 61t-244.5 163.5t-163.5 244.5t-61 297q0 208 103 384.5t279 279t384 102.5zM754 1346q-125 0 -239 -49t-196.5 -131.5t-131 -197t-48.5 -239.5q0 -166 82.5 -307.5
t224.5 -224t308 -82.5q167 0 309 82.5t224.5 224t82.5 307.5q0 125 -49 239.5t-131.5 197t-196.5 131.5t-239 49z" />
    <glyph glyph-name="ordfeminine" unicode="&#xaa;" horiz-adv-x="704" 
d="M346 1157q-47 0 -82 -38.5t-35 -92.5q0 -62 30.5 -97.5t84.5 -35.5q50 0 85.5 40t35.5 95q0 54 -34.5 91.5t-84.5 37.5zM467 756v94h-4q-66 -109 -176 -109q-95 0 -164.5 83t-69.5 196q0 130 71 217.5t177 87.5q95 0 162 -94h4v80h166v-555h-166z" />
    <glyph glyph-name="guillemotleft" unicode="&#xab;" horiz-adv-x="1024" 
d="M258 1063h240l-205 -490l199 -493h-236l-199 491zM741 1061h240l-203 -490l199 -491h-238l-198 493z" />
    <glyph glyph-name="logicalnot" unicode="&#xac;" horiz-adv-x="1366" 
d="M125 1034h1116v-702h-215v487h-901v215z" />
    <glyph glyph-name="registered" unicode="&#xae;" horiz-adv-x="1511" 
d="M408 319l2 814h163h222q130 0 201 -60t71 -170q0 -91 -59 -152t-160 -73v-4q52 -18 80 -50t92 -141l96 -164h-203l-69 134q-61 118 -108.5 159t-119.5 41h-43v-334h-165zM573 782h68h66q104 2 145 27.5t41 89.5q0 51 -44 78t-126 27h-84h-66v-222zM754 1495
q209 0 385 -102.5t278.5 -278.5t102.5 -385q0 -208 -102.5 -384t-279 -279t-384.5 -103q-155 0 -297 61t-244.5 163.5t-163.5 244.5t-61 297q0 208 103 384.5t279 279t384 102.5zM756 1346q-167 0 -309 -82.5t-224 -224.5t-82 -310q0 -125 48.5 -239t131 -196.5
t196.5 -131.5t239 -49q167 0 308.5 82.5t223.5 224.5t82 309q0 168 -82 310t-223.5 224.5t-308.5 82.5z" />
    <glyph glyph-name="macron" unicode="&#xaf;" horiz-adv-x="681" 
d="M18 1036v187h646v-187h-646z" />
    <glyph glyph-name="macron" unicode="&#x2c9;" horiz-adv-x="681" 
d="M18 1036v187h646v-187h-646z" />
    <glyph glyph-name="degree" unicode="&#xb0;" horiz-adv-x="819" 
d="M90 1171q0 132 94 226t226 94t225.5 -94t93.5 -226t-93.5 -225.5t-225.5 -93.5q-132 2 -226 94.5t-94 224.5zM256 1171q0 -63 45.5 -107t108.5 -44t108 44t45 107q0 64 -45 109t-108 45t-108.5 -45.5t-45.5 -108.5z" />
    <glyph glyph-name="plusminus" unicode="&#xb1;" horiz-adv-x="1366" 
d="M125 963h450v450h216v-450h450v-213h-450v-451h-216v451h-450v213zM125 156h1116v-215h-1116v215z" />
    <glyph glyph-name="twosuperior" unicode="&#xb2;" horiz-adv-x="747" 
d="M455 686h215v-170h-598l250 315q80 101 110.5 153.5t30.5 88.5q0 44 -23.5 67t-66.5 23q-54 0 -81 -30.5t-30 -94.5h-205q5 143 88.5 220t235.5 77q132 0 209.5 -64.5t77.5 -174.5q0 -103 -66 -217q-53 -87 -147 -193z" />
    <glyph glyph-name="threesuperior" unicode="&#xb3;" horiz-adv-x="747" 
d="M256 1094h-180q6 115 79 178t201 63q126 0 204.5 -60t78.5 -157q0 -55 -19 -93.5t-65 -76.5q62 -32 88.5 -77.5t26.5 -118.5q0 -117 -78.5 -184.5t-216.5 -67.5q-146 0 -228 73q-33 30 -49 64.5t-28 101.5h192q19 -50 43.5 -70t65.5 -20q40 0 66 28t26 71
q0 49 -34.5 77.5t-94.5 28.5h-19v154q76 3 106 23.5t30 70.5q0 40 -25 63t-66 23q-43 0 -67 -21.5t-37 -72.5z" />
    <glyph glyph-name="acute" unicode="&#xb4;" horiz-adv-x="681" 
d="M186 991l140 299h313l-274 -299h-179z" />
    <glyph glyph-name="mu" unicode="&#xb5;" horiz-adv-x="1251" 
d="M147 1061h279v-479q0 -128 15.5 -202.5t50.5 -115.5q51 -63 133 -63q63 0 115 43.5t71 111.5q12 50 15 84.5t3 137.5v483h283v-1061h-260v129h-4q-37 -75 -91.5 -114.5t-119.5 -39.5q-71 0 -117.5 34.5t-89.5 119.5h-4v-537h-279v1469z" />
    <glyph glyph-name="mu" unicode="&#x3bc;" horiz-adv-x="1251" 
d="M147 1061h279v-479q0 -128 15.5 -202.5t50.5 -115.5q51 -63 133 -63q63 0 115 43.5t71 111.5q12 50 15 84.5t3 137.5v483h283v-1061h-260v129h-4q-37 -75 -91.5 -114.5t-119.5 -39.5q-71 0 -117.5 34.5t-89.5 119.5h-4v-537h-279v1469z" />
    <glyph glyph-name="paragraph" unicode="&#xb6;" horiz-adv-x="1138" 
d="M639 -403h-244v1046q-187 13 -290 120.5t-103 289.5q0 107 44 198t120 140q74 51 136 63t235 12h596v-262h-113v-1607h-238v1607h-143v-1607z" />
    <glyph glyph-name="periodcentered" unicode="&#xb7;" horiz-adv-x="532" 
d="M262 797q66 0 113 -46t47 -112t-47 -113t-113 -47q-65 0 -111.5 47t-46.5 113t46.5 112t111.5 46zM332 1573h2l-2 2v-2z" />
    <glyph glyph-name="periodcentered" unicode="&#x2219;" horiz-adv-x="532" 
d="M262 797q66 0 113 -46t47 -112t-47 -113t-113 -47q-65 0 -111.5 47t-46.5 113t46.5 112t111.5 46zM332 1573h2l-2 2v-2z" />
    <glyph glyph-name="cedilla" unicode="&#xb8;" horiz-adv-x="681" 
d="M39 -403v118l14 -2q98 -10 174 -10t121 25.5t45 68.5q0 39 -35 61.5t-94 22.5q-57 0 -131 -18l27 98q87 27 170 27q114 0 184 -52t70 -137q-2 -100 -97 -159.5t-254 -59.5q-115 0 -194 17z" />
    <glyph glyph-name="onesuperior" unicode="&#xb9;" horiz-adv-x="747" 
d="M201 1323h280v-803h-196v635h-115z" />
    <glyph glyph-name="ordmasculine" unicode="&#xba;" horiz-adv-x="704" 
d="M352 1171q-49 0 -86 -41.5t-37 -97.5q0 -57 37 -99t88 -42t88 42t37 99q0 56 -38 97.5t-89 41.5zM356 1325q124 0 205.5 -84.5t81.5 -212.5q0 -119 -82 -203t-199 -84q-132 0 -214 79.5t-82 207.5q0 129 81.5 213t208.5 84z" />
    <glyph glyph-name="guillemotright" unicode="&#xbb;" horiz-adv-x="1024" 
d="M51 1063h230l200 -492l-198 -491h-238l201 493zM532 1063h234l201 -490l-203 -493h-234l199 493z" />
    <glyph glyph-name="onequarter" unicode="&#xbc;" horiz-adv-x="1855" 
d="M1438 547l-191 -242h195v242h-4zM1468 788h164v-485h72v-156h-72v-176h-192v176h-340v156zM182 1323h281v-803h-197v635h-114zM1307 1333h172l-1035 -1368h-172z" />
    <glyph glyph-name="onehalf" unicode="&#xbd;" horiz-adv-x="1855" 
d="M158 1323h280v-803h-196v635h-115zM1511 156h215v-172h-598l293 372q5 5 17 23q2 2 7 9.5l7 10.5q41 56 54.5 85.5t13.5 66.5q0 35 -25 58.5t-63 23.5q-107 0 -113 -127h-205q6 146 82 213q43 40 106 62t132 22q134 0 213 -65t79 -175q0 -101 -73 -223
q-29 -49 -56.5 -84.5t-85.5 -99.5zM1296 1333h174l-1034 -1368h-174z" />
    <glyph glyph-name="threequarters" unicode="&#xbe;" horiz-adv-x="1855" 
d="M1489 549l-189 -244h193v244h-4zM1520 788h163v-485h72v-156h-74v-178h-190v178h-342v156zM289 1094h-180q6 118 77.5 179.5t202.5 61.5q127 0 205 -60.5t78 -158.5q0 -55 -20 -94.5t-64 -73.5q62 -35 88 -79t26 -113q0 -120 -78.5 -188t-217.5 -68q-136 0 -213.5 60.5
t-90.5 178.5h193q17 -47 42.5 -68.5t63.5 -21.5q41 0 68 28.5t27 72.5q0 50 -34 77t-95 27h-21v154h35q49 0 75.5 26t26.5 76q0 35 -25 56.5t-65 21.5q-43 0 -67.5 -22.5t-36.5 -71.5zM1405 1333h172l-1036 -1368h-172z" />
    <glyph glyph-name="questiondown" unicode="&#xbf;" horiz-adv-x="976" 
d="M346 635h281v-268h-45q-119 0 -188.5 -50.5t-69.5 -136.5q0 -74 50.5 -124t125.5 -50q63 0 102 46.5t43 129.5h279v-20q0 -79 -46.5 -168t-117.5 -146q-119 -94 -287 -94q-183 0 -306.5 121.5t-123.5 302.5q0 198 154 311q2 2 12 9t13 9t12.5 8t13.5 8.5t13 8t15 8.5
t15.5 7.5t17 7.5t17.5 6l20 6v68zM483 1100q66 0 112 -46.5t46 -111.5q0 -66 -46 -112t-112 -46q-65 0 -111 46t-46 112q0 65 46.5 111.5t110.5 46.5z" />
    <glyph glyph-name="Agrave" unicode="&#xc0;" horiz-adv-x="1409" 
d="M698 883l-153 -387h311zM588 1313h219l536 -1313h-284l-107 258h-503l-103 -258h-283zM861 1401h-179l-274 299h313z" />
    <glyph glyph-name="Aacute" unicode="&#xc1;" horiz-adv-x="1409" 
d="M698 883l-153 -387h311zM588 1313h219l536 -1313h-284l-107 258h-503l-103 -258h-283zM551 1401l140 299h313l-274 -299h-179z" />
    <glyph glyph-name="Acircumflex" unicode="&#xc2;" horiz-adv-x="1409" 
d="M698 883l-153 -387h311zM588 1313h219l536 -1313h-284l-107 258h-503l-103 -258h-283zM367 1405l211 295h260l207 -295h-225l-117 150l-109 -150h-227z" />
    <glyph glyph-name="Atilde" unicode="&#xc3;" horiz-adv-x="1409" 
d="M698 883l-153 -387h311zM588 1313h219l536 -1313h-284l-107 258h-503l-103 -258h-283zM480 1416h-127v28q0 105 48 165.5t134 60.5q36 0 66 -9t98 -39q86 -38 133 -38q37 0 56.5 21t25.5 65h129q0 -250 -178 -250q-40 0 -65.5 6.5t-106.5 36.5q-98 39 -144 39
q-32 0 -50.5 -21t-18.5 -59v-6z" />
    <glyph glyph-name="Adieresis" unicode="&#xc4;" horiz-adv-x="1409" 
d="M698 883l-153 -387h311zM588 1313h219l536 -1313h-284l-107 258h-503l-103 -258h-283zM345 1557q0 56 39 95.5t96 39.5t96 -39.5t39 -95.5q0 -57 -39 -96t-96 -39t-96 39t-39 96zM797 1557q0 56 39 95.5t96 39.5t96 -39.5t39 -95.5q0 -57 -39 -96t-96 -39t-96 39t-39 96z
" />
    <glyph glyph-name="Aring" unicode="&#xc5;" horiz-adv-x="1409" 
d="M698 883l-153 -387h311zM588 1313h219l536 -1313h-284l-107 258h-503l-103 -258h-283zM902 1553q0 -81 -57.5 -139t-137.5 -58q-82 0 -139.5 57.5t-57.5 139.5q0 81 57.5 137.5t139.5 56.5t138.5 -56t56.5 -138zM795 1553q0 37 -25.5 62.5t-62.5 25.5t-63.5 -25.5
t-26.5 -62.5t26.5 -63.5t63.5 -26.5t62.5 26.5t25.5 63.5z" />
    <glyph glyph-name="AE" unicode="&#xc6;" horiz-adv-x="1622" 
d="M866 1059l-204 -436h208v436h-4zM696 1313h838v-258h-385v-267h383v-256h-383v-274h383v-258h-662v377h-331l-185 -377h-299z" />
    <glyph glyph-name="Ccedilla" unicode="&#xc7;" horiz-adv-x="1193" 
d="M1114 1243v-321q-105 61 -167.5 86t-133.5 36q-40 7 -72 7q-161 0 -256.5 -110t-95.5 -296q0 -177 101 -282t270 -105q79 0 158 26.5t196 92.5v-318q-136 -44 -217 -60.5t-168 -16.5q-175 0 -321 88.5t-230 242t-84 338.5q0 188 85.5 344t234.5 246t327 90q172 0 373 -88
zM295 -403v118l14 -2q98 -10 174 -10t121 25.5t45 68.5q0 39 -35 61.5t-94 22.5q-57 0 -131 -18l27 98q87 27 170 27q114 0 184 -52t70 -137q-2 -100 -97 -159.5t-254 -59.5q-115 0 -194 17z" />
    <glyph glyph-name="Egrave" unicode="&#xc8;" horiz-adv-x="980" 
d="M135 1313h739v-260h-456v-265h456v-256h-456v-272h456v-260h-739v1313zM646 1401h-179l-274 299h313z" />
    <glyph glyph-name="Eacute" unicode="&#xc9;" horiz-adv-x="980" 
d="M135 1313h739v-260h-456v-265h456v-256h-456v-272h456v-260h-739v1313zM336 1401l140 299h313l-274 -299h-179z" />
    <glyph glyph-name="Ecircumflex" unicode="&#xca;" horiz-adv-x="980" 
d="M135 1313h739v-260h-456v-265h456v-256h-456v-272h456v-260h-739v1313zM152 1405l211 295h260l207 -295h-225l-117 150l-109 -150h-227z" />
    <glyph glyph-name="Edieresis" unicode="&#xcb;" horiz-adv-x="980" 
d="M135 1313h739v-260h-456v-265h456v-256h-456v-272h456v-260h-739v1313zM130 1557q0 56 39 95.5t96 39.5t96 -39.5t39 -95.5q0 -57 -39 -96t-96 -39t-96 39t-39 96zM582 1557q0 56 39 95.5t96 39.5t96 -39.5t39 -95.5q0 -57 -39 -96t-96 -39t-96 39t-39 96z" />
    <glyph glyph-name="Igrave" unicode="&#xcc;" horiz-adv-x="532" 
d="M119 1313h282v-1313h-282v1313zM422 1401h-179l-274 299h313z" />
    <glyph glyph-name="Iacute" unicode="&#xcd;" horiz-adv-x="532" 
d="M119 1313h282v-1313h-282v1313zM112 1401l140 299h313l-274 -299h-179z" />
    <glyph glyph-name="Icircumflex" unicode="&#xce;" horiz-adv-x="532" 
d="M119 1313h282v-1313h-282v1313zM-72 1405l211 295h260l207 -295h-225l-117 150l-109 -150h-227z" />
    <glyph glyph-name="Idieresis" unicode="&#xcf;" horiz-adv-x="532" 
d="M119 1313h282v-1313h-282v1313zM-94 1557q0 56 39 95.5t96 39.5t96 -39.5t39 -95.5q0 -57 -39 -96t-96 -39t-96 39t-39 96zM358 1557q0 56 39 95.5t96 39.5t96 -39.5t39 -95.5q0 -57 -39 -96t-96 -39t-96 39t-39 96z" />
    <glyph glyph-name="Eth" unicode="&#xd0;" horiz-adv-x="1300" 
d="M426 1063v-338h227v-154h-227v-319h78q225 0 328.5 100t103.5 318q0 202 -110 297.5t-343 95.5h-57zM143 1313h428q307 0 478 -174q82 -83 131 -212.5t49 -260.5q0 -312 -180.5 -489t-499.5 -177h-406v571h-100v154h100v588z" />
    <glyph glyph-name="Ntilde" unicode="&#xd1;" horiz-adv-x="1409" 
d="M1001 1313h277v-1313h-274l-598 850h-5v-850h-282v1313h278l600 -844h4v844zM480 1416h-127v28q0 105 48 165.5t134 60.5q36 0 66 -9t98 -39q86 -38 133 -38q37 0 56.5 21t25.5 65h129q0 -250 -178 -250q-40 0 -65.5 6.5t-106.5 36.5q-98 39 -144 39q-32 0 -50.5 -21
t-18.5 -59v-6z" />
    <glyph glyph-name="Ograve" unicode="&#xd2;" horiz-adv-x="1515" 
d="M707 1063q-148 -19 -235 -131.5t-87 -282.5q0 -175 102.5 -290t260.5 -115q167 0 267.5 113.5t100.5 299.5q0 183 -100.5 295.5t-263.5 112.5q-8 0 -23 -1t-22 -1zM684 1325q9 0 27.5 1t27.5 1q193 0 347 -86.5t240.5 -240t86.5 -345.5q0 -191 -85.5 -344.5t-237.5 -240
t-342 -86.5q-142 0 -264 50t-208.5 138.5t-136 214t-49.5 270.5q0 176 76 322.5t211.5 237.5t306.5 108zM914 1401h-179l-274 299h313z" />
    <glyph glyph-name="Oacute" unicode="&#xd3;" horiz-adv-x="1515" 
d="M707 1063q-148 -19 -235 -131.5t-87 -282.5q0 -175 102.5 -290t260.5 -115q167 0 267.5 113.5t100.5 299.5q0 183 -100.5 295.5t-263.5 112.5q-8 0 -23 -1t-22 -1zM684 1325q9 0 27.5 1t27.5 1q193 0 347 -86.5t240.5 -240t86.5 -345.5q0 -191 -85.5 -344.5t-237.5 -240
t-342 -86.5q-142 0 -264 50t-208.5 138.5t-136 214t-49.5 270.5q0 176 76 322.5t211.5 237.5t306.5 108zM604 1401l140 299h313l-274 -299h-179z" />
    <glyph glyph-name="Ocircumflex" unicode="&#xd4;" horiz-adv-x="1515" 
d="M707 1063q-148 -19 -235 -131.5t-87 -282.5q0 -175 102.5 -290t260.5 -115q167 0 267.5 113.5t100.5 299.5q0 183 -100.5 295.5t-263.5 112.5q-8 0 -23 -1t-22 -1zM684 1325q9 0 27.5 1t27.5 1q193 0 347 -86.5t240.5 -240t86.5 -345.5q0 -191 -85.5 -344.5t-237.5 -240
t-342 -86.5q-142 0 -264 50t-208.5 138.5t-136 214t-49.5 270.5q0 176 76 322.5t211.5 237.5t306.5 108zM420 1405l211 295h260l207 -295h-225l-117 150l-109 -150h-227z" />
    <glyph glyph-name="Otilde" unicode="&#xd5;" horiz-adv-x="1515" 
d="M707 1063q-148 -19 -235 -131.5t-87 -282.5q0 -175 102.5 -290t260.5 -115q167 0 267.5 113.5t100.5 299.5q0 183 -100.5 295.5t-263.5 112.5q-8 0 -23 -1t-22 -1zM684 1325q9 0 27.5 1t27.5 1q193 0 347 -86.5t240.5 -240t86.5 -345.5q0 -191 -85.5 -344.5t-237.5 -240
t-342 -86.5q-142 0 -264 50t-208.5 138.5t-136 214t-49.5 270.5q0 176 76 322.5t211.5 237.5t306.5 108zM533 1416h-127v28q0 105 48 165.5t134 60.5q36 0 66 -9t98 -39q86 -38 133 -38q37 0 56.5 21t25.5 65h129q0 -250 -178 -250q-40 0 -65.5 6.5t-106.5 36.5
q-98 39 -144 39q-32 0 -50.5 -21t-18.5 -59v-6z" />
    <glyph glyph-name="Odieresis" unicode="&#xd6;" horiz-adv-x="1515" 
d="M707 1063q-148 -19 -235 -131.5t-87 -282.5q0 -175 102.5 -290t260.5 -115q167 0 267.5 113.5t100.5 299.5q0 183 -100.5 295.5t-263.5 112.5q-8 0 -23 -1t-22 -1zM684 1325q9 0 27.5 1t27.5 1q193 0 347 -86.5t240.5 -240t86.5 -345.5q0 -191 -85.5 -344.5t-237.5 -240
t-342 -86.5q-142 0 -264 50t-208.5 138.5t-136 214t-49.5 270.5q0 176 76 322.5t211.5 237.5t306.5 108zM398 1557q0 56 39 95.5t96 39.5t96 -39.5t39 -95.5q0 -57 -39 -96t-96 -39t-96 39t-39 96zM850 1557q0 56 39 95.5t96 39.5t96 -39.5t39 -95.5q0 -57 -39 -96t-96 -39
t-96 39t-39 96z" />
    <glyph glyph-name="multiply" unicode="&#xd7;" horiz-adv-x="1366" 
d="M158 1049l151 151l375 -375l375 375l151 -151l-372 -375l370 -371l-151 -151l-371 370l-373 -370l-151 151l370 371z" />
    <glyph glyph-name="Oslash" unicode="&#xd8;" horiz-adv-x="1515" 
d="M451 418l510 588q-106 59 -207 59q-154 0 -260.5 -121.5t-106.5 -294.5q0 -87 64 -231zM1065 889l-504 -586q60 -34 103.5 -46.5t99.5 -12.5q158 0 258 111t100 288q0 97 -20 158q0 6 -4 18l-4 12q-4 4 -7 17l-4 8q0 1 -1 3t-1 3t-1 2t-1 2q-9 23 -14 23zM1315 1415
l115 -98l-177 -207q51 -63 74.5 -102.5t44.5 -96.5q49 -122 49 -245q0 -194 -83 -350t-230 -244t-330 -88q-143 0 -266 47q-43 17 -133 63l-180 -209q-33 28 -67.5 55.5t-51.5 41.5l182 213q-68 97 -97 156t-48 136q-21 85 -21 175q0 187 87 339.5t239.5 239t339.5 86.5
q67 0 125 -12q57 -11 106 -31t148 -70z" />
    <glyph glyph-name="Ugrave" unicode="&#xd9;" horiz-adv-x="1300" 
d="M133 1313h279v-803q0 -112 62 -180t163 -68q117 0 180.5 68.5t63.5 193.5v789h278v-850q0 -84 -34 -176t-87 -152q-67 -73 -167.5 -113t-217.5 -40q-231 0 -362 116q-70 63 -114 161.5t-44 189.5v864zM805 1401h-179l-274 299h313z" />
    <glyph glyph-name="Uacute" unicode="&#xda;" horiz-adv-x="1300" 
d="M133 1313h279v-803q0 -112 62 -180t163 -68q117 0 180.5 68.5t63.5 193.5v789h278v-850q0 -84 -34 -176t-87 -152q-67 -73 -167.5 -113t-217.5 -40q-231 0 -362 116q-70 63 -114 161.5t-44 189.5v864zM495 1401l140 299h313l-274 -299h-179z" />
    <glyph glyph-name="Ucircumflex" unicode="&#xdb;" horiz-adv-x="1300" 
d="M133 1313h279v-803q0 -112 62 -180t163 -68q117 0 180.5 68.5t63.5 193.5v789h278v-850q0 -84 -34 -176t-87 -152q-67 -73 -167.5 -113t-217.5 -40q-231 0 -362 116q-70 63 -114 161.5t-44 189.5v864zM311 1405l211 295h260l207 -295h-225l-117 150l-109 -150h-227z" />
    <glyph glyph-name="Udieresis" unicode="&#xdc;" horiz-adv-x="1300" 
d="M133 1313h279v-803q0 -112 62 -180t163 -68q117 0 180.5 68.5t63.5 193.5v789h278v-850q0 -84 -34 -176t-87 -152q-67 -73 -167.5 -113t-217.5 -40q-231 0 -362 116q-70 63 -114 161.5t-44 189.5v864zM289 1557q0 56 39 95.5t96 39.5t96 -39.5t39 -95.5q0 -57 -39 -96
t-96 -39t-96 39t-39 96zM741 1557q0 56 39 95.5t96 39.5t96 -39.5t39 -95.5q0 -57 -39 -96t-96 -39t-96 39t-39 96z" />
    <glyph glyph-name="Yacute" unicode="&#xdd;" horiz-adv-x="1193" 
d="M33 1313h313l242 -408l246 408h315l-418 -699v-614h-280v614zM442 1401l140 299h313l-274 -299h-179z" />
    <glyph glyph-name="Thorn" unicode="&#xde;" 
d="M434 827v-344h60q109 0 165 45t56 131q0 82 -55 125t-158 43h-68zM434 1315v-254h166q184 0 295 -105t111 -278q0 -198 -128 -311t-352 -113h-92v-254h-284v1315h284z" />
    <glyph glyph-name="germandbls" unicode="&#xdf;" 
d="M707 684l149 -35q77 -19 134 -107t57 -188q0 -160 -103 -265t-260 -105q-60 0 -94.5 6t-93.5 28v211q84 -24 127 -24q79 0 128.5 47.5t49.5 124.5q0 85 -58 143t-143 58h-47v219h35q78 0 125 43.5t47 115.5q0 74 -46 118t-122 44t-128 -51.5t-52 -126.5v-940h-256v944
q0 87 43.5 174t113.5 139q110 78 269 78q187 0 303 -95t116 -249q0 -74 -41.5 -150t-93.5 -96l-159 -57v-4z" />
    <glyph glyph-name="agrave" unicode="&#xe0;" horiz-adv-x="1081" 
d="M481 618q-68 -8 -111.5 -66.5t-43.5 -143.5q0 -86 49 -138.5t127 -52.5q77 0 130.5 60.5t53.5 146.5q0 81 -54 139t-128 58q-11 0 -23 -3zM692 0v147h-4q-64 -91 -125 -127t-147 -36q-152 0 -257.5 130t-105.5 316q0 184 112 315.5t269 131.5q70 0 128.5 -31.5
t129.5 -106.5v119h256v-858h-256zM697 991h-179l-274 299h313z" />
    <glyph glyph-name="aacute" unicode="&#xe1;" horiz-adv-x="1081" 
d="M481 618q-68 -8 -111.5 -66.5t-43.5 -143.5q0 -86 49 -138.5t127 -52.5q77 0 130.5 60.5t53.5 146.5q0 81 -54 139t-128 58q-11 0 -23 -3zM692 0v147h-4q-64 -91 -125 -127t-147 -36q-152 0 -257.5 130t-105.5 316q0 184 112 315.5t269 131.5q70 0 128.5 -31.5
t129.5 -106.5v119h256v-858h-256zM387 991l140 299h313l-274 -299h-179z" />
    <glyph glyph-name="acircumflex" unicode="&#xe2;" horiz-adv-x="1081" 
d="M481 618q-68 -8 -111.5 -66.5t-43.5 -143.5q0 -86 49 -138.5t127 -52.5q77 0 130.5 60.5t53.5 146.5q0 81 -54 139t-128 58q-11 0 -23 -3zM692 0v147h-4q-64 -91 -125 -127t-147 -36q-152 0 -257.5 130t-105.5 316q0 184 112 315.5t269 131.5q70 0 128.5 -31.5
t129.5 -106.5v119h256v-858h-256zM203 995l211 295h260l207 -295h-225l-117 150l-109 -150h-227z" />
    <glyph glyph-name="atilde" unicode="&#xe3;" horiz-adv-x="1081" 
d="M481 618q-68 -8 -111.5 -66.5t-43.5 -143.5q0 -86 49 -138.5t127 -52.5q77 0 130.5 60.5t53.5 146.5q0 81 -54 139t-128 58q-11 0 -23 -3zM692 0v147h-4q-64 -91 -125 -127t-147 -36q-152 0 -257.5 130t-105.5 316q0 184 112 315.5t269 131.5q70 0 128.5 -31.5
t129.5 -106.5v119h256v-858h-256zM316 1006h-127v28q0 105 48 165.5t134 60.5q36 0 66 -9t98 -39q86 -38 133 -38q37 0 56.5 21t25.5 65h129q0 -250 -178 -250q-40 0 -65.5 6.5t-106.5 36.5q-98 39 -144 39q-32 0 -50.5 -21t-18.5 -59v-6z" />
    <glyph glyph-name="adieresis" unicode="&#xe4;" horiz-adv-x="1081" 
d="M481 618q-68 -8 -111.5 -66.5t-43.5 -143.5q0 -86 49 -138.5t127 -52.5q77 0 130.5 60.5t53.5 146.5q0 81 -54 139t-128 58q-11 0 -23 -3zM692 0v147h-4q-64 -91 -125 -127t-147 -36q-152 0 -257.5 130t-105.5 316q0 184 112 315.5t269 131.5q70 0 128.5 -31.5
t129.5 -106.5v119h256v-858h-256zM181 1147q0 56 39 95.5t96 39.5t96 -39.5t39 -95.5q0 -57 -39 -96t-96 -39t-96 39t-39 96zM633 1147q0 56 39 95.5t96 39.5t96 -39.5t39 -95.5q0 -57 -39 -96t-96 -39t-96 39t-39 96z" />
    <glyph glyph-name="aring" unicode="&#xe5;" horiz-adv-x="1081" 
d="M481 618q-68 -8 -111.5 -66.5t-43.5 -143.5q0 -86 49 -138.5t127 -52.5q77 0 130.5 60.5t53.5 146.5q0 81 -54 139t-128 58q-11 0 -23 -3zM692 0v147h-4q-64 -91 -125 -127t-147 -36q-152 0 -257.5 130t-105.5 316q0 184 112 315.5t269 131.5q70 0 128.5 -31.5
t129.5 -106.5v119h256v-858h-256zM738 1143q0 -81 -57.5 -139t-137.5 -58q-82 0 -139.5 57.5t-57.5 139.5q0 81 57.5 137.5t139.5 56.5t138.5 -56t56.5 -138zM631 1143q0 37 -25.5 62.5t-62.5 25.5t-63.5 -25.5t-26.5 -62.5t26.5 -63.5t63.5 -26.5t62.5 26.5t25.5 63.5z" />
    <glyph glyph-name="ae" unicode="&#xe6;" horiz-adv-x="1613" 
d="M936 539h346q-5 69 -53 116t-115 47q-143 0 -178 -163zM477 618q-66 -9 -109.5 -67.5t-43.5 -136.5q0 -88 49 -142.5t127 -54.5t131 60.5t53 152.5q0 78 -53.5 134.5t-128.5 56.5q-13 0 -25 -3zM684 0v121q-75 -75 -137 -107t-135 -32q-96 0 -179 59.5t-131.5 161.5
t-48.5 221q0 192 110 322.5t271 130.5q76 0 132.5 -32.5t115.5 -109.5h4v123h254v-61q66 46 112.5 63t104.5 17q152 0 264 -120.5t121 -293.5l6 -94h-614q34 -189 180 -189q53 0 91.5 24.5t86.5 86.5l230 -82q-26 -50 -44 -73.5t-48 -49.5q-116 -104 -275 -104
q-69 0 -119 20t-96 66v-68h-256z" />
    <glyph glyph-name="ccedilla" unicode="&#xe7;" horiz-adv-x="827" 
d="M745 297v-256q-134 -59 -219 -59q-195 0 -324.5 127.5t-129.5 320.5q0 194 120 320.5t306 126.5q127 0 250 -60v-242q-111 54 -205 54q-86 0 -138.5 -52.5t-52.5 -138.5t52 -138t137 -52q76 0 204 49zM113 -403v118l14 -2q98 -10 174 -10t121 25.5t45 68.5q0 39 -35 61.5
t-94 22.5q-57 0 -131 -18l27 98q87 27 170 27q114 0 184 -52t70 -137q-2 -100 -97 -159.5t-254 -59.5q-115 0 -194 17z" />
    <glyph glyph-name="egrave" unicode="&#xe8;" horiz-adv-x="980" 
d="M311 541h346q-17 78 -59.5 119.5t-105.5 41.5q-75 0 -123.5 -43t-57.5 -118zM922 369h-613q3 -78 52 -132.5t118 -54.5q62 0 105 25t80 82l235 -78q-51 -82 -98.5 -124.5t-118.5 -70.5q-81 -34 -190 -34q-203 0 -323 122.5t-120 331.5q0 187 126 314t312 127t310.5 -133
t124.5 -334v-41zM646 991h-179l-274 299h313z" />
    <glyph glyph-name="eacute" unicode="&#xe9;" horiz-adv-x="980" 
d="M311 541h346q-17 78 -59.5 119.5t-105.5 41.5q-75 0 -123.5 -43t-57.5 -118zM922 369h-613q3 -78 52 -132.5t118 -54.5q62 0 105 25t80 82l235 -78q-51 -82 -98.5 -124.5t-118.5 -70.5q-81 -34 -190 -34q-203 0 -323 122.5t-120 331.5q0 187 126 314t312 127t310.5 -133
t124.5 -334v-41zM336 991l140 299h313l-274 -299h-179z" />
    <glyph glyph-name="ecircumflex" unicode="&#xea;" horiz-adv-x="980" 
d="M311 541h346q-17 78 -59.5 119.5t-105.5 41.5q-75 0 -123.5 -43t-57.5 -118zM922 369h-613q3 -78 52 -132.5t118 -54.5q62 0 105 25t80 82l235 -78q-51 -82 -98.5 -124.5t-118.5 -70.5q-81 -34 -190 -34q-203 0 -323 122.5t-120 331.5q0 187 126 314t312 127t310.5 -133
t124.5 -334v-41zM152 995l211 295h260l207 -295h-225l-117 150l-109 -150h-227z" />
    <glyph glyph-name="edieresis" unicode="&#xeb;" horiz-adv-x="980" 
d="M311 541h346q-17 78 -59.5 119.5t-105.5 41.5q-75 0 -123.5 -43t-57.5 -118zM922 369h-613q3 -78 52 -132.5t118 -54.5q62 0 105 25t80 82l235 -78q-51 -82 -98.5 -124.5t-118.5 -70.5q-81 -34 -190 -34q-203 0 -323 122.5t-120 331.5q0 187 126 314t312 127t310.5 -133
t124.5 -334v-41zM130 1147q0 56 39 95.5t96 39.5t96 -39.5t39 -95.5q0 -57 -39 -96t-96 -39t-96 39t-39 96zM582 1147q0 56 39 95.5t96 39.5t96 -39.5t39 -95.5q0 -57 -39 -96t-96 -39t-96 39t-39 96z" />
    <glyph glyph-name="igrave" unicode="&#xec;" horiz-adv-x="532" 
d="M139 860h256v-860h-256v860zM422 991h-179l-274 299h313z" />
    <glyph glyph-name="iacute" unicode="&#xed;" horiz-adv-x="532" 
d="M139 860h256v-860h-256v860zM112 991l140 299h313l-274 -299h-179z" />
    <glyph glyph-name="icircumflex" unicode="&#xee;" horiz-adv-x="532" 
d="M139 860h256v-860h-256v860zM-72 995l211 295h260l207 -295h-225l-117 150l-109 -150h-227z" />
    <glyph glyph-name="idieresis" unicode="&#xef;" horiz-adv-x="532" 
d="M139 860h256v-860h-256v860zM-94 1147q0 56 39 95.5t96 39.5t96 -39.5t39 -95.5q0 -57 -39 -96t-96 -39t-96 39t-39 96zM358 1147q0 56 39 95.5t96 39.5t96 -39.5t39 -95.5q0 -57 -39 -96t-96 -39t-96 39t-39 96z" />
    <glyph glyph-name="eth" unicode="&#xf0;" horiz-adv-x="1130" 
d="M608 647q-77 0 -134.5 -62t-57.5 -145q0 -92 57 -157.5t139 -65.5q74 0 128.5 64.5t54.5 152.5q0 83 -57 148t-130 65zM305 1206l129 142q100 -44 174 -88l168 83l58 -116l-105 -53q99 -84 146 -141t90 -144q86 -180 86 -416q0 -224 -122.5 -356.5t-326.5 -132.5
q-186 0 -311 127t-125 313q0 196 120.5 325.5t303.5 129.5q62 0 133 -29q-31 67 -70.5 116t-113.5 111l-263 -135l-59 117l195 98q-77 37 -107 49z" />
    <glyph glyph-name="ntilde" unicode="&#xf1;" 
d="M397 860v-102q57 56 132.5 89.5t142.5 33.5q124 0 204 -101t80 -258v-522h-260v481q0 74 -40.5 125t-98.5 51q-70 0 -115 -65t-45 -166v-426h-256v860h256zM318 1006h-127v28q0 105 48 165.5t134 60.5q36 0 66 -9t98 -39q86 -38 133 -38q37 0 56.5 21t25.5 65h129
q0 -250 -178 -250q-40 0 -65.5 6.5t-106.5 36.5q-98 39 -144 39q-32 0 -50.5 -21t-18.5 -59v-6z" />
    <glyph glyph-name="ograve" unicode="&#xf2;" 
d="M545 645q-79 0 -136 -61t-57 -146q0 -93 56.5 -158t136.5 -65q77 0 133.5 63.5t56.5 149.5q0 88 -56.5 152.5t-133.5 64.5zM551 879q186 0 311 -128t125 -319q0 -195 -124.5 -322.5t-315.5 -127.5q-198 0 -318 120q-60 60 -95.5 148.5t-35.5 177.5q0 199 126.5 325
t326.5 126zM699 991h-179l-274 299h313z" />
    <glyph glyph-name="oacute" unicode="&#xf3;" 
d="M545 645q-79 0 -136 -61t-57 -146q0 -93 56.5 -158t136.5 -65q77 0 133.5 63.5t56.5 149.5q0 88 -56.5 152.5t-133.5 64.5zM551 879q186 0 311 -128t125 -319q0 -195 -124.5 -322.5t-315.5 -127.5q-198 0 -318 120q-60 60 -95.5 148.5t-35.5 177.5q0 199 126.5 325
t326.5 126zM389 991l140 299h313l-274 -299h-179z" />
    <glyph glyph-name="ocircumflex" unicode="&#xf4;" 
d="M545 645q-79 0 -136 -61t-57 -146q0 -93 56.5 -158t136.5 -65q77 0 133.5 63.5t56.5 149.5q0 88 -56.5 152.5t-133.5 64.5zM551 879q186 0 311 -128t125 -319q0 -195 -124.5 -322.5t-315.5 -127.5q-198 0 -318 120q-60 60 -95.5 148.5t-35.5 177.5q0 199 126.5 325
t326.5 126zM205 995l211 295h260l207 -295h-225l-117 150l-109 -150h-227z" />
    <glyph glyph-name="otilde" unicode="&#xf5;" 
d="M545 645q-79 0 -136 -61t-57 -146q0 -93 56.5 -158t136.5 -65q77 0 133.5 63.5t56.5 149.5q0 88 -56.5 152.5t-133.5 64.5zM551 879q186 0 311 -128t125 -319q0 -195 -124.5 -322.5t-315.5 -127.5q-198 0 -318 120q-60 60 -95.5 148.5t-35.5 177.5q0 199 126.5 325
t326.5 126zM318 1006h-127v28q0 105 48 165.5t134 60.5q36 0 66 -9t98 -39q86 -38 133 -38q37 0 56.5 21t25.5 65h129q0 -250 -178 -250q-40 0 -65.5 6.5t-106.5 36.5q-98 39 -144 39q-32 0 -50.5 -21t-18.5 -59v-6z" />
    <glyph glyph-name="odieresis" unicode="&#xf6;" 
d="M545 645q-79 0 -136 -61t-57 -146q0 -93 56.5 -158t136.5 -65q77 0 133.5 63.5t56.5 149.5q0 88 -56.5 152.5t-133.5 64.5zM551 879q186 0 311 -128t125 -319q0 -195 -124.5 -322.5t-315.5 -127.5q-198 0 -318 120q-60 60 -95.5 148.5t-35.5 177.5q0 199 126.5 325
t326.5 126zM183 1147q0 56 39 95.5t96 39.5t96 -39.5t39 -95.5q0 -57 -39 -96t-96 -39t-96 39t-39 96zM635 1147q0 56 39 95.5t96 39.5t96 -39.5t39 -95.5q0 -57 -39 -96t-96 -39t-96 39t-39 96z" />
    <glyph glyph-name="divide" unicode="&#xf7;" horiz-adv-x="1366" 
d="M551 1098q0 52 37.5 88.5t91.5 36.5t91.5 -37t37.5 -90q0 -54 -37.5 -91.5t-91.5 -37.5q-53 0 -91 38.5t-38 92.5zM553 262q0 54 37.5 92.5t91.5 38.5t91.5 -37.5t37.5 -91.5t-37.5 -91.5t-91.5 -37.5t-91.5 37t-37.5 90zM127 778h1114v-205h-1114v205z" />
    <glyph glyph-name="oslash" unicode="&#xf8;" 
d="M369 338l254 278q-42 27 -76 27q-86 0 -141.5 -61t-55.5 -156q0 -38 19 -88zM709 522l-254 -284q54 -25 82 -25q83 0 139.5 61.5t56.5 151.5q0 39 -24 96zM879 899l94 -86l-86 -94q54 -75 76 -140t22 -151q0 -196 -127.5 -322t-325.5 -126q-55 0 -106.5 16t-140.5 59
l-86 -96l-90 86l84 96q-54 84 -74.5 145t-20.5 142q0 198 126 323.5t325 125.5q59 0 107.5 -15t131.5 -59z" />
    <glyph glyph-name="ugrave" unicode="&#xf9;" 
d="M119 858h260v-412q0 -89 45 -148.5t113 -59.5q72 0 120 57.5t48 144.5v418h260v-500q0 -161 -121 -267.5t-303 -106.5q-192 0 -307 107.5t-115 287.5v479zM699 991h-179l-274 299h313z" />
    <glyph glyph-name="uacute" unicode="&#xfa;" 
d="M119 858h260v-412q0 -89 45 -148.5t113 -59.5q72 0 120 57.5t48 144.5v418h260v-500q0 -161 -121 -267.5t-303 -106.5q-192 0 -307 107.5t-115 287.5v479zM389 991l140 299h313l-274 -299h-179z" />
    <glyph glyph-name="ucircumflex" unicode="&#xfb;" 
d="M119 858h260v-412q0 -89 45 -148.5t113 -59.5q72 0 120 57.5t48 144.5v418h260v-500q0 -161 -121 -267.5t-303 -106.5q-192 0 -307 107.5t-115 287.5v479zM205 995l211 295h260l207 -295h-225l-117 150l-109 -150h-227z" />
    <glyph glyph-name="udieresis" unicode="&#xfc;" 
d="M119 858h260v-412q0 -89 45 -148.5t113 -59.5q72 0 120 57.5t48 144.5v418h260v-500q0 -161 -121 -267.5t-303 -106.5q-192 0 -307 107.5t-115 287.5v479zM183 1147q0 56 39 95.5t96 39.5t96 -39.5t39 -95.5q0 -57 -39 -96t-96 -39t-96 39t-39 96zM635 1147q0 56 39 95.5
t96 39.5t96 -39.5t39 -95.5q0 -57 -39 -96t-96 -39t-96 39t-39 96z" />
    <glyph glyph-name="yacute" unicode="&#xfd;" 
d="M51 858h273l247 -500l220 500h262l-535 -1237h-266l192 440zM389 991l140 299h313l-274 -299h-179z" />
    <glyph glyph-name="thorn" unicode="&#xfe;" 
d="M588 219q82 0 129 53.5t47 145.5q0 88 -52 146.5t-130 58.5q-73 0 -124.5 -59.5t-51.5 -143.5q0 -82 53.5 -141.5t128.5 -59.5zM399 1337v-602h4q54 75 116.5 109.5t142.5 34.5q158 0 266 -132t108 -325q0 -184 -106 -311t-260 -127q-155 0 -267 163h-4v-524h-256v1714
h256z" />
    <glyph glyph-name="ydieresis" unicode="&#xff;" 
d="M51 858h273l247 -500l220 500h262l-535 -1237h-266l192 440zM183 1147q0 56 39 95.5t96 39.5t96 -39.5t39 -95.5q0 -57 -39 -96t-96 -39t-96 39t-39 96zM635 1147q0 56 39 95.5t96 39.5t96 -39.5t39 -95.5q0 -57 -39 -96t-96 -39t-96 39t-39 96z" />
    <glyph glyph-name="dotlessi" unicode="&#x131;" horiz-adv-x="532" 
d="M139 860h256v-860h-256v860z" />
    <glyph glyph-name="Lslash" unicode="&#x141;" horiz-adv-x="874" 
d="M156 1313h280v-445l156 129v-200l-156 -129v-387h387v-281h-665v430l-105 -84v201l103 86v680z" />
    <glyph glyph-name="lslash" unicode="&#x142;" horiz-adv-x="532" 
d="M150 1337h256v-481l114 96v-170l-114 -96v-686h-256v473l-115 -96v170l115 96v694z" />
    <glyph glyph-name="OE" unicode="&#x152;" horiz-adv-x="1622" 
d="M823 256v801l-102 -2l-27 -2q-169 -20 -251.5 -119.5t-82.5 -282.5q0 -178 106.5 -286.5t281.5 -108.5h75zM698 1313h813v-256h-409v-271h409v-256h-409v-274h409v-256h-847q-96 0 -208.5 52.5t-197.5 137.5q-97 98 -142.5 212.5t-45.5 259.5q0 187 80 327
q63 113 151 185q135 112 365 135z" />
    <glyph glyph-name="oe" unicode="&#x153;" horiz-adv-x="1622" 
d="M944 539h342q-34 159 -166 159q-145 0 -176 -159zM502 643q-77 0 -132 -64t-55 -153q0 -83 59 -148t134 -65q77 0 129.5 63t52.5 156q0 85 -56 148t-132 63zM1292 289l234 -76q-57 -92 -103 -132.5t-125 -68.5q-88 -30 -202 -30q-86 0 -143.5 23t-139.5 91
q-73 -64 -141 -89t-170 -25q-191 0 -313.5 124.5t-122.5 319.5q0 201 123.5 326t322.5 125q86 0 158 -29t147 -94q84 68 148.5 95.5t140.5 27.5q181 0 310.5 -125.5t129.5 -300.5v-84h-606q20 -95 64 -141t116 -46q52 0 89.5 24t82.5 85z" />
    <glyph glyph-name="Scaron" unicode="&#x160;" horiz-adv-x="974" 
d="M870 1194l-176 -193q-83 48 -124 65t-76 17q-47 0 -81 -35.5t-34 -84.5q0 -97 176 -168q141 -60 199 -103q72 -54 111.5 -130t39.5 -161q0 -170 -136.5 -294.5t-322.5 -124.5q-97 0 -190 43q-57 25 -100 55t-113 94l186 217q67 -69 122 -99t112 -30q53 0 100 47
q45 45 45 94q0 54 -52.5 97.5t-164.5 83.5q-109 40 -148.5 65.5t-90.5 89.5q-34 59 -47 102t-13 97q0 175 114 284t298 109q114 0 196 -33q49 -17 82.5 -37.5t87.5 -66.5zM149 1700h227l109 -149l117 149h225l-207 -295h-260z" />
    <glyph glyph-name="scaron" unicode="&#x161;" horiz-adv-x="874" 
d="M754 739l-174 -106q-76 76 -140 76q-32 0 -55 -18t-23 -44q0 -40 25.5 -60t110.5 -48q4 -2 19 -7.5t26 -9.5q49 -19 108 -51q127 -72 127 -217q0 -112 -100 -191t-240 -79q-130 0 -245 92q-31 25 -52 49.5t-53 73.5l207 94q37 -63 71.5 -92t73.5 -29q34 0 61 22t27 50
q0 50 -67 71q-6 2 -10 2q-13 8 -50 21q-62 18 -125 51q-83 46 -119 99t-36 130q0 115 93 187t241 72q86 0 155.5 -32t143.5 -106zM98 1290h227l109 -149l117 149h225l-207 -295h-260z" />
    <glyph glyph-name="Ydieresis" unicode="&#x178;" horiz-adv-x="1193" 
d="M33 1313h313l242 -408l246 408h315l-418 -699v-614h-280v614zM236 1557q0 56 39 95.5t96 39.5t96 -39.5t39 -95.5q0 -57 -39 -96t-96 -39t-96 39t-39 96zM688 1557q0 56 39 95.5t96 39.5t96 -39.5t39 -95.5q0 -57 -39 -96t-96 -39t-96 39t-39 96z" />
    <glyph glyph-name="Zcaron" unicode="&#x17d;" horiz-adv-x="1193" 
d="M150 1313h952l-592 -1041h571v-272h-1009l596 1044h-518v269zM258 1700h227l109 -149l117 149h225l-207 -295h-260z" />
    <glyph glyph-name="zcaron" unicode="&#x17e;" horiz-adv-x="980" 
d="M119 860h811l-455 -624h383v-236h-811l457 627h-385v233zM152 1290h227l109 -149l117 149h225l-207 -295h-260z" />
    <glyph glyph-name="florin" unicode="&#x192;" horiz-adv-x="1138" 
d="M281 850l36 211h201l17 90q4 28 20 106q11 61 41 113q68 121 283 121q140 0 268 -41l-55 -225q-88 26 -154 26q-61 0 -85.5 -25.5t-41.5 -107.5l-10 -57h207l-37 -211h-205l-172 -977q-17 -96 -38.5 -147t-59.5 -86q-76 -70 -234 -70q-153 0 -278 39l57 221l14 -4
q95 -19 160 -19q55 0 76.5 31.5t40.5 138.5l149 873h-200z" />
    <glyph glyph-name="circumflex" unicode="&#x2c6;" horiz-adv-x="681" 
d="M2 995l211 295h260l207 -295h-225l-117 150l-109 -150h-227z" />
    <glyph glyph-name="caron" unicode="&#x2c7;" horiz-adv-x="681" 
d="M2 1290h227l109 -149l117 149h225l-207 -295h-260z" />
    <glyph glyph-name="breve" unicode="&#x2d8;" horiz-adv-x="681" 
d="M512 1290h137q-12 -135 -95 -212t-216 -77t-216 77t-95 212h137q12 -143 174 -143t174 143z" />
    <glyph glyph-name="dotaccent" unicode="&#x2d9;" horiz-adv-x="681" 
d="M209 1159q0 56 39 95.5t96 39.5t96 -39.5t39 -95.5q0 -57 -39 -97t-96 -40t-96 40t-39 97z" />
    <glyph glyph-name="ring" unicode="&#x2da;" horiz-adv-x="681" 
d="M537 1143q0 -81 -57.5 -139t-137.5 -58q-82 0 -139.5 57.5t-57.5 139.5q0 81 57.5 137.5t139.5 56.5t138.5 -56t56.5 -138zM430 1143q0 37 -25.5 62.5t-62.5 25.5t-63.5 -25.5t-26.5 -62.5t26.5 -63.5t63.5 -26.5t62.5 26.5t25.5 63.5z" />
    <glyph glyph-name="ogonek" unicode="&#x2db;" horiz-adv-x="681" 
d="M197 27h149q-20 -62 -20 -144q0 -78 36 -118.5t105 -40.5q61 0 137 24v-137q-100 -41 -194 -41q-115 0 -182.5 63t-67.5 170q0 79 33 211z" />
    <glyph glyph-name="tilde" unicode="&#x2dc;" horiz-adv-x="681" 
d="M115 1006h-127v28q0 105 48 165.5t134 60.5q36 0 66 -9t98 -39q86 -38 133 -38q37 0 56.5 21t25.5 65h129q0 -250 -178 -250q-40 0 -65.5 6.5t-106.5 36.5q-98 39 -144 39q-32 0 -50.5 -21t-18.5 -59v-6z" />
    <glyph glyph-name="hungarumlaut" unicode="&#x2dd;" horiz-adv-x="681" 
d="M96 997l140 297h292l-256 -297h-176zM473 997l139 297h287l-248 -297h-178z" />
    <glyph glyph-name="Delta" unicode="&#x394;" horiz-adv-x="1204" 
d="M1257 0h-1212v115q186 590 420 1319h381q16 -52 173.5 -555t237.5 -764v-115zM936 219q-43 144 -129 433t-129 433q-7 24 -13.5 50t-12 48.5t-7.5 28.5h-8q-2 -12 -27 -122q-43 -145 -130 -435.5t-130 -435.5h586z" />
    <glyph glyph-name="Delta" unicode="&#x2206;" horiz-adv-x="1204" 
d="M1257 0h-1212v115q186 590 420 1319h381q16 -52 173.5 -555t237.5 -764v-115zM936 219q-43 144 -129 433t-129 433q-7 24 -13.5 50t-12 48.5t-7.5 28.5h-8q-2 -12 -27 -122q-43 -145 -130 -435.5t-130 -435.5h586z" />
    <glyph glyph-name="_189" unicode="&#x3a9;" horiz-adv-x="1421" 
d="M1303 0h-504v219q43 45 75.5 90.5t67 112t53.5 153t19 185.5q0 210 -82.5 335.5t-233.5 125.5q-152 0 -239.5 -127.5t-87.5 -339.5q0 -327 217 -535v-219h-504v219h285q-44 37 -77.5 70.5t-75.5 90t-70 115.5t-47 143t-19 177q0 280 174.5 461.5t450.5 181.5
q190 0 327.5 -83t206 -226t68.5 -328q0 -363 -291 -602h287v-219z" />
    <glyph glyph-name="pi" unicode="&#x3c0;" horiz-adv-x="1284" 
d="M1343 29q-64 -47 -192 -47q-83 0 -142.5 28.5t-90.5 77.5t-44.5 103t-13.5 118v510h-285v-520q0 -188 -30 -299h-289q35 140 35 317v502q-35 0 -83.5 -14.5t-82.5 -34.5q-3 6 -31.5 73t-44.5 101q55 37 147.5 58.5t184.5 21.5h944v-205h-178v-471q0 -162 90 -162
q9 0 18 2t14 4t14.5 7t12.5 6q9 -32 25 -93t22 -83z" />
    <glyph glyph-name="endash" unicode="&#x2013;" horiz-adv-x="1024" 
d="M-12 643h1044v-250h-1044v250z" />
    <glyph glyph-name="emdash" unicode="&#x2014;" horiz-adv-x="2048" 
d="M-23 639h2085v-246h-2085v246z" />
    <glyph glyph-name="quoteleft" unicode="&#x2018;" horiz-adv-x="532" 
d="M258 1331l119 -84q-53 -66 -76.5 -111.5t-30.5 -103.5h140v-293h-293v267q0 148 141 325z" />
    <glyph glyph-name="quoteright" unicode="&#x2019;" horiz-adv-x="532" 
d="M115 1313h293v-250q0 -112 -48 -203q-32 -58 -94 -139l-119 84q57 64 78 107.5t27 107.5h-137v293z" />
    <glyph glyph-name="quotesinglbase" unicode="&#x201a;" horiz-adv-x="532" 
d="M186 299h256l-206 -551h-148z" />
    <glyph glyph-name="quotedblleft" unicode="&#x201c;" horiz-adv-x="980" 
d="M748 1321l108 -84q-88 -107 -102 -209h135v-291h-291v201q0 148 64 264q30 53 86 119zM256 1319l113 -78q-50 -60 -74 -108t-33 -105h141v-291h-294v217q0 94 35 181t112 184z" />
    <glyph glyph-name="quotedblright" unicode="&#x201d;" horiz-adv-x="980" 
d="M598 1313h293v-275q0 -145 -139 -313l-119 82q58 67 78 108t28 105h-141v293zM111 1313h290v-264q0 -157 -141 -324l-117 80q53 50 93 149q12 30 12 50v16h-137v293z" />
    <glyph glyph-name="quotedblbase" unicode="&#x201e;" horiz-adv-x="980" 
d="M600 293h293v-270q0 -75 -37.5 -159.5t-101.5 -154.5l-119 78q97 97 106 213h-141v293zM111 293h295v-254q0 -176 -146 -334l-115 82q103 103 109 213h-143v293z" />
    <glyph glyph-name="dagger" unicode="&#x2020;" horiz-adv-x="897" 
d="M500 844v-23q40 4 94 23q64 20 121 20q64 0 90 -22t26 -78q0 -52 -26 -76t-82 -24q-67 0 -133 24q-51 19 -88 23q6 -44 14 -76q35 -169 35 -281q0 -58 -19 -194q-13 -96 -24 -250l-2 -35q-8 -136 -8 -287h-103q-10 278 -12 316q-4 90 -23 221q-20 167 -20 235
q0 96 27 218q18 75 22 133q-16 -3 -92 -25q-73 -24 -129 -24q-55 0 -78.5 23t-23.5 77q0 58 23 81t81 23q62 0 133 -26q53 -17 88 -21q-2 78 -24 187q-27 141 -27 200q0 67 26 98t83 31q58 0 81 -31.5t23 -109.5q0 -55 -25 -172q-28 -105 -28 -178z" />
    <glyph glyph-name="daggerdbl" unicode="&#x2021;" horiz-adv-x="897" 
d="M350 797q0 8 8 22q20 38 25 84q-36 -7 -82 -22q-52 -18 -86 -25q-25 -4 -53 -4q-109 0 -109 100q0 58 26.5 83.5t88.5 25.5q66 0 133 -29q46 -18 86 -20q-7 51 -22 106q-29 107 -29 156q0 51 26 73.5t84 22.5q45 0 74 -26t29 -66v-23v-14q-3 -24 -25 -96
q-26 -73 -32 -133q33 2 79 18q91 29 152 29q53 0 76.5 -25t23.5 -80q0 -58 -26 -79t-97 -21q-50 0 -133 29q-55 19 -75 22q10 -52 28 -96q25 -63 29 -117q-3 -56 -33 -125q-18 -47 -20 -65q0 -24 3.5 -38t20.5 -56q25 -70 25 -123q0 -54 -23 -115q-24 -50 -26 -82
q32 2 88 21q67 22 114 24q72 0 98.5 -21.5t26.5 -78.5t-26.5 -81t-89.5 -24q-45 0 -109 21q-6 2 -10 4l-19 6q-36 11 -77 18l2 -36l22 -80q4 -12 6 -17q17 -43 23 -94q0 -78 -21 -104.5t-84 -26.5q-57 0 -82.5 24t-25.5 78q0 50 24 129q25 75 33 130q-30 -2 -86 -21
q-70 -25 -131 -29h-12q-109 0 -109 99q0 57 25 81.5t82 24.5q12 0 18 -2h12h2q35 0 105 -22q62 -19 90 -23q-7 25 -16 49q-2 6 -19 56q-18 64 -18 110q0 29 5.5 50t22.5 61l5 8l4 8q18 42 18 59q0 25 -14 56l-4 6q-39 85 -39 139v15q6 56 18 88z" />
    <glyph glyph-name="bullet" unicode="&#x2022;" horiz-adv-x="716" 
d="M653 723q0 -122 -87 -208.5t-210 -86.5q-122 0 -208.5 87t-86.5 208q0 123 86.5 210t208.5 87q123 0 210 -87t87 -210z" />
    <glyph glyph-name="ellipsis" unicode="&#x2026;" horiz-adv-x="2048" 
d="M342 303q66 0 112 -46.5t46 -111.5q0 -66 -46 -111.5t-112 -45.5q-64 0 -110 46t-46 111t46 111.5t110 46.5zM1024 301q64 0 110 -45.5t46 -110.5q0 -66 -45.5 -111.5t-110.5 -45.5q-64 0 -110 46t-46 111t46 110.5t110 45.5zM1704 301q64 0 110 -45.5t46 -110.5
q0 -64 -45.5 -109.5t-110.5 -45.5t-110.5 45.5t-45.5 109.5q0 65 46 110.5t110 45.5zM1696 -10v-2v2z" />
    <glyph glyph-name="perthousand" unicode="&#x2030;" horiz-adv-x="2560" 
d="M2152 590q-85 0 -122 -69.5t-37 -227.5q0 -305 155 -305q152 0 152 295q0 159 -35.5 233t-112.5 74zM2152 733q151 0 245.5 -122t94.5 -314q0 -204 -94.5 -328.5t-249.5 -124.5q-152 0 -248 127t-96 328q0 194 96.5 314t251.5 120zM1333 590q-85 0 -122 -70t-37 -227
q0 -305 157 -305q152 0 152 295q0 160 -36 233.5t-114 73.5zM1333 733q151 0 246.5 -122.5t95.5 -315.5q0 -203 -94.5 -327t-249.5 -124q-154 0 -250 126.5t-96 328.5q0 194 96.5 314t251.5 120zM463 1288q-85 0 -121.5 -69t-36.5 -228q0 -155 38.5 -230t117.5 -75
q151 0 151 295q0 160 -35.5 233.5t-113.5 73.5zM463 1432q151 0 246.5 -122.5t95.5 -314.5q0 -204 -94.5 -328t-249.5 -124q-154 0 -250 126.5t-96 327.5q0 194 96.5 314.5t251.5 120.5zM1221 1432h161l-811 -1588h-159z" />
    <glyph glyph-name="guilsinglleft" unicode="&#x2039;" horiz-adv-x="555" 
d="M254 1059h235l-204 -488l202 -491h-237l-199 493z" />
    <glyph glyph-name="guilsinglright" unicode="&#x203a;" horiz-adv-x="555" 
d="M43 1061h233l199 -492l-201 -487h-233l199 489z" />
    <glyph glyph-name="fraction" unicode="&#x2044;" horiz-adv-x="362" 
d="M612 1333h172l-1034 -1368h-174z" />
    <glyph glyph-name="fraction" unicode="&#x2215;" horiz-adv-x="362" 
d="M612 1333h172l-1034 -1368h-174z" />
    <glyph glyph-name="Euro" unicode="&#x20ac;" horiz-adv-x="1130" 
d="M1085 59q-103 -36 -182.5 -54.5t-165.5 -18.5q-206 0 -345 122.5t-206 327.5h-174l56 146h98q-2 9 -2 53t2 53h-152l52 146h122q54 209 200.5 333.5t359.5 124.5q155 0 337 -84v-286q-93 57 -173 89.5t-164 32.5q-200 0 -281 -210h588l-51 -146h-572q0 -10 -1 -29.5
t-1 -29.5q0 -8 1 -23.5t1 -23.5h533l-56 -146h-440q39 -99 114 -152t181 -53q82 0 154.5 29t166.5 84v-285z" />
    <glyph glyph-name="litre" unicode="&#x2113;" horiz-adv-x="985" 
d="M815 84q-135 -117 -272 -117q-128 0 -203 78q-43 43 -65.5 117.5t-22.5 156.5v140q-70 -70 -105 -107q-13 19 -37 58.5t-36 58.5q119 119 178 180v428q0 203 83.5 308.5t221.5 105.5q64 0 111.5 -23t73.5 -61.5t38.5 -80t12.5 -85.5q0 -142 -60.5 -266t-175.5 -262
q-17 -22 -61 -72v-293q0 -192 112 -192q69 0 140 75q12 -24 34 -73t33 -74zM651 1210q0 39 -16.5 66t-50.5 27q-88 0 -88 -185v-274q11 11 26 37q58 74 93.5 164.5t35.5 164.5z" />
    <glyph glyph-name="trademark" unicode="&#x2122;" horiz-adv-x="2048" 
d="M469 647v676h-252v143h664v-143h-246v-676h-166zM979 647v819h260l147 -565h5l147 565h260v-819h-158v653h-4l-174 -653h-149l-172 653h-4v-653h-158z" />
    <glyph glyph-name="Omega" unicode="&#x2126;" horiz-adv-x="1421" 
d="M1303 0h-504v219q43 45 75.5 90.5t67 112t53.5 153t19 185.5q0 210 -82.5 335.5t-233.5 125.5q-152 0 -239.5 -127.5t-87.5 -339.5q0 -327 217 -535v-219h-504v219h285q-44 37 -77.5 70.5t-75.5 90t-70 115.5t-47 143t-19 177q0 280 174.5 461.5t450.5 181.5
q190 0 327.5 -83t206 -226t68.5 -328q0 -363 -291 -602h287v-219z" />
    <glyph glyph-name="estimated" unicode="&#x212e;" horiz-adv-x="1333" 
d="M1190 561h-866v-385q125 -125 307 -125q262 0 411 254q12 -7 37 -21.5t37 -21.5q-98 -144 -210 -215.5t-275 -71.5q-165 0 -291 78.5t-192 211t-66 296.5q0 165 65 297t191 210.5t293 78.5q170 0 296.5 -78.5t191.5 -209.5t71 -298zM940 637v307q-128 131 -311 131
q-181 0 -305 -127v-311h616z" />
    <glyph glyph-name="partialdiff" unicode="&#x2202;" horiz-adv-x="1146" 
d="M1102 952q0 -194 -47 -387q-31 -121 -82.5 -225t-122 -186.5t-165 -129.5t-200.5 -47q-184 0 -298.5 113.5t-114.5 294.5q0 150 46 272t121 197.5t165.5 115.5t185.5 40q81 0 145.5 -34t93.5 -81h5q6 117 6 119q0 138 -65.5 210t-178.5 72q-100 0 -186 -49
q-52 169 -54 178q48 32 121.5 52t155.5 20q215 0 342 -142t127 -403zM805 696q-46 129 -170 129q-115 0 -204 -133.5t-89 -322.5q0 -86 38 -137.5t105 -51.5q79 0 146.5 75t110.5 189.5t63 251.5z" />
    <glyph glyph-name="product" unicode="&#x220f;" horiz-adv-x="1429" 
d="M1284 -471h-274v1669h-590v-1669h-275v1905h1139v-1905z" />
    <glyph glyph-name="summation" unicode="&#x2211;" horiz-adv-x="1257" 
d="M1124 -471h-1073v143q91 137 272.5 410t272.5 410q-76 116 -161 247t-188.5 291.5t-160.5 247.5v156h999v-220h-679q86 -134 245 -379.5t219 -338.5q-216 -323 -495 -748h749v-219z" />
    <glyph glyph-name="minus" unicode="&#x2212;" horiz-adv-x="1366" 
d="M125 784h1116v-215h-1116v215z" />
    <glyph glyph-name="radical" unicode="&#x221a;" horiz-adv-x="1007" 
d="M1028 1493q-56 -253 -328 -1518h-225q-39 102 -117.5 308.5t-117.5 308.5q-30 -19 -109 -72q-14 22 -43 66t-43 67q127 87 311 211q109 -293 230 -612q44 207 132 620.5t132 620.5h178z" />
    <glyph glyph-name="infinity" unicode="&#x221e;" horiz-adv-x="1554" 
d="M1468 602q0 -158 -100 -262t-250 -104q-106 0 -199 54t-155 150h-4q-143 -204 -348 -204q-67 0 -130 23t-114 66.5t-82 114.5t-31 158q0 83 31 152.5t81.5 113.5t113.5 68t129 24q113 0 201 -56t149 -148h4q52 82 142.5 143t207.5 61q151 0 252.5 -101t101.5 -253z
M1264 600q0 75 -44.5 124.5t-125.5 49.5q-71 0 -125 -43.5t-109 -132.5q97 -182 236 -182q79 0 123.5 53.5t44.5 130.5zM664 598q-111 178 -236 178q-76 0 -122 -53t-46 -127q0 -75 47.5 -127.5t122.5 -52.5q70 0 129.5 51.5t104.5 130.5z" />
    <glyph glyph-name="integral" unicode="&#x222b;" horiz-adv-x="980" 
d="M817 1317q-42 14 -78 14q-135 0 -135 -174v-1225q0 -185 -89 -296t-273 -111q-116 0 -170 26q7 31 22.5 95t22.5 96q34 -12 82 -12q133 0 133 172v1222q0 188 91 300t277 112q45 0 97 -10t75 -21q-9 -31 -27.5 -93.5t-27.5 -94.5z" />
    <glyph glyph-name="approxequal" unicode="&#x2248;" horiz-adv-x="1366" 
d="M1229 866q-69 -95 -144.5 -142.5t-179.5 -47.5q-124 0 -237 65q-119 68 -201 68q-41 0 -80 -25.5t-60 -51t-46 -62.5l-142 161q70 93 142.5 142t179.5 49q116 0 237 -64q114 -67 201 -67q58 0 102 38t86 99zM1229 389q-68 -96 -144 -143t-180 -47q-124 0 -237 65
q-115 66 -201 66q-94 0 -186 -137l-142 161q46 60 85 97t101 64.5t136 27.5q116 0 237 -64q120 -67 201 -67q40 0 78 23.5t60.5 49.5t49.5 66z" />
    <glyph glyph-name="notequal" unicode="&#x2260;" horiz-adv-x="1366" 
d="M1163 266h-538l-111 -221h-233l108 221h-186v213h295l133 269h-428v213h534l127 253h234l-127 -253h192v-213h-299l-133 -269h432v-213z" />
    <glyph glyph-name="lessequal" unicode="&#x2264;" horiz-adv-x="1366" 
d="M1163 0h-960v213h960v-213zM1163 295l-960 381v196l960 381v-223l-676 -256v-4l676 -254v-221z" />
    <glyph glyph-name="greaterequal" unicode="&#x2265;" horiz-adv-x="1366" 
d="M1163 0h-960v213h960v-213zM1163 676l-960 -381v223l678 254v6l-678 254v221l960 -381v-196z" />
    <glyph glyph-name="lozenge" unicode="&#x25ca;" horiz-adv-x="1110" 
d="M969 717q-237 -434 -389 -717h-125q-65 119 -194 357.5t-193 357.5q64 120 193 359.5t194 359.5h125q152 -284 389 -717zM774 717q-42 81 -128 241.5t-128 241.5q-43 -81 -129 -241.5t-129 -241.5q217 -408 256 -484q43 81 129 242t129 242z" />
    <glyph glyph-name="uni00AD" horiz-adv-x="641" 
d="M29 559h577v-258h-577v258z" />
    <glyph glyph-name="uni03A9" horiz-adv-x="1421" 
d="M1303 0h-504v219q43 45 75.5 90.5t67 112t53.5 153t19 185.5q0 210 -82.5 335.5t-233.5 125.5q-152 0 -239.5 -127.5t-87.5 -339.5q0 -327 217 -535v-219h-504v219h285q-44 37 -77.5 70.5t-75.5 90t-70 115.5t-47 143t-19 177q0 280 174.5 461.5t450.5 181.5
q190 0 327.5 -83t206 -226t68.5 -328q0 -363 -291 -602h287v-219z" />
    <glyph glyph-name="uni03BC" horiz-adv-x="1251" 
d="M147 1061h279v-479q0 -128 15.5 -202.5t50.5 -115.5q51 -63 133 -63q63 0 115 43.5t71 111.5q12 50 15 84.5t3 137.5v483h283v-1061h-260v129h-4q-37 -75 -91.5 -114.5t-119.5 -39.5q-71 0 -117.5 34.5t-89.5 119.5h-4v-537h-279v1469z" />
    </font>
</defs>
</svg>
