<?xml version="1.0" standalone="no"?>
<!DOCTYPE svg PUBLIC "-//W3C//DTD SVG 1.1//EN" "http://www.w3.org/Graphics/SVG/1.1/DTD/svg11.dtd" >
<svg xmlns="http://www.w3.org/2000/svg" xmlns:xlink="http://www.w3.org/1999/xlink" version="1.1">
<metadata>
Created by FontForge 20170731 at Wed May 10 19:28:22 2023
 By Aleksey,,,
Copyright (c) 1990 Adobe Systems Incorporated. All rights reserved. Digitized data (c) 2002 The Monotype Corporation. All rights reserved.
</metadata>
<defs>
<font id="TwCenMTStd-MediumCond" horiz-adv-x="747" >
  <font-face 
    font-family="Tw Cen MT Std Medium Cond"
    font-weight="500"
    font-stretch="normal"
    units-per-em="2048"
    panose-1="2 11 5 6 2 1 4 2 6 3"
    ascent="1638"
    descent="-410"
    x-height="874"
    cap-height="1274"
    bbox="-360 -494 2068 1694"
    underline-thickness="102"
    underline-position="-307"
    unicode-range="U+0020-FB02"
  />
<missing-glyph horiz-adv-x="1024" 
d="M25 0v1362h972v-1362h-972zM180 1266l332 -498l330 498h-662zM123 1178v-992q0 -1 82.5 123t164.5 249l83 124zM901 1178l-332 -496l332 -498v994zM842 98l-330 496l-332 -496h662z" />
    <glyph glyph-name="fi" unicode="fi" 
d="M147 874v189q0 256 195 256q49 0 104 -14v-144q-17 13 -57 13q-80 0 -80 -125v-175h135v-122h-135v-752h-162v752h-88v122h88zM502 874h168v-874h-168v874z" />
    <glyph glyph-name="fl" unicode="fl" 
d="M131 874v170q0 132 68 202.5t196 70.5q131 0 202 -70t71 -200v-1047h-166v1038q0 146 -103 146q-46 0 -74 -36t-28 -95v-179h137v-124h-137v-750h-166v750h-90v124h90z" />
    <glyph glyph-name=".notdef" horiz-adv-x="1024" 
d="M25 0v1362h972v-1362h-972zM180 1266l332 -498l330 498h-662zM123 1178v-992q0 -1 82.5 123t164.5 249l83 124zM901 1178l-332 -496l332 -498v994zM842 98l-330 496l-332 -496h662z" />
    <glyph glyph-name=".notdef" horiz-adv-x="1024" 
d="M25 0v1362h972v-1362h-972zM180 1266l332 -498l330 498h-662zM123 1178v-992q0 -1 82.5 123t164.5 249l83 124zM901 1178l-332 -496l332 -498v994zM842 98l-330 496l-332 -496h662z" />
    <glyph glyph-name=".null" horiz-adv-x="0" 
 />
    <glyph glyph-name="nonmarkingreturn" horiz-adv-x="682" 
 />
    <glyph glyph-name="space" unicode=" " horiz-adv-x="372" 
 />
    <glyph glyph-name="exclam" unicode="!" horiz-adv-x="385" 
d="M127 1280h166v-977h-166v977zM211 180q40 0 67 -27t27 -67t-27 -67t-67 -27q-39 0 -66.5 27.5t-27.5 66.5q0 38 28 66t66 28z" />
    <glyph glyph-name="quotedbl" unicode="&#x22;" horiz-adv-x="727" 
d="M145 946l-51 281v239h207v-239l-47 -281h-109zM475 946l-47 281v239h205v-239l-49 -281h-109z" />
    <glyph glyph-name="numbersign" unicode="#" horiz-adv-x="1368" 
d="M90 973h326l86 403h121l-86 -403h421l84 403h123l-86 -403h199v-123h-223l-76 -371h299v-123h-324l-84 -401h-122l86 401h-424l-84 -401h-123l84 401h-197v123h223l78 371h-301v123zM512 850l-78 -369h424l76 369h-422z" />
    <glyph glyph-name="dollar" unicode="$" 
d="M348 791v352q-102 -30 -102 -164q0 -129 102 -188zM420 526v-381q53 17 81.5 66.5t28.5 122.5q0 66 -26.5 111.5t-83.5 80.5zM348 1384h70v-90q203 0 264 -172l6 -18l-145 -74q-22 59 -49.5 85t-73.5 30v-408q106 -70 139 -97t74 -77q67 -82 67 -223q0 -156 -75 -250.5
t-205 -101.5v-113h-72v111q-100 1 -156.5 45t-99.5 151l133 66q13 -44 48 -75t75 -34v434q-79 52 -115 83t-73 77q-80 100 -80 240q0 286 268 321v90z" />
    <glyph glyph-name="percent" unicode="%" horiz-adv-x="1409" 
d="M1130 762q103 0 147 -98.5t44 -327.5q0 -195 -52 -296t-153 -101q-69 0 -112 49q-42 45 -58 119.5t-16 224.5q0 155 14 234.5t49 123.5q59 72 137 72zM1178 123l12 223q2 29 2 88q0 129 -12.5 174t-49.5 45q-41 0 -59 -61.5t-18 -202.5q0 -114 2 -176t10 -101t19.5 -50
t33.5 -11q25 0 42 20t18 52zM281 1112l-13 -225q-2 -27 -2 -78q0 -122 14.5 -172.5t49.5 -50.5q41 0 59.5 65t18.5 215q0 101 -3 161t-10.5 98.5t-20.5 52.5t-34 14q-23 0 -40 -23.5t-19 -56.5zM334 1300q99 -6 145 -77q53 -82 53 -340q0 -214 -49 -308q-22 -42 -64 -69
t-87 -27q-41 0 -80 24t-62 64q-49 81 -49 334q0 175 31.5 265.5t101.5 119.5q32 14 58 14h2zM1028 1307h102l-700 -1379h-96z" />
    <glyph glyph-name="ampersand" unicode="&#x26;" horiz-adv-x="937" 
d="M422 743q115 136 115 218q0 39 -26.5 65.5t-64.5 26.5q-41 0 -72.5 -33.5t-31.5 -77.5t18 -88.5t62 -110.5zM559 211l-16 25q-125 203 -164 256q-55 -55 -79 -99.5t-24 -91.5q0 -65 41.5 -113.5t96.5 -48.5q38 0 71 15.5t76 52.5zM686 4l-49 80l-6 -4.5t-6 -4t-9 -5.5
q-71 -46 -121.5 -65t-103.5 -19q-122 0 -204.5 87t-82.5 216q0 90 64 184q49 69 135 152q-113 176 -113 313q0 104 73.5 176t180.5 72q118 0 182 -63.5t64 -180.5q0 -78 -59 -170q-26 -41 -51 -71.5t-78 -84.5l123 -206l49 -78q55 73 96 143l107 -69q-71 -127 -125 -195
l127 -207h-193z" />
    <glyph glyph-name="quotesingle" unicode="'" horiz-adv-x="391" 
d="M139 946l-47 275v245h207v-245l-49 -275h-111z" />
    <glyph glyph-name="parenleft" unicode="(" horiz-adv-x="385" 
d="M240 1323l127 -61q-67 -154 -97 -256q-86 -271 -86 -529q0 -210 56 -440q27 -110 51 -177.5t78 -176.5l-125 -68q-59 113 -85 183.5t-57 197.5q-65 257 -65 471q0 181 51 416q33 139 61.5 222.5t90.5 217.5z" />
    <glyph glyph-name="parenright" unicode=")" horiz-adv-x="385" 
d="M43 1257l127 66q57 -118 82.5 -190.5t56.5 -200.5q62 -254 62 -465q0 -213 -72 -492q-31 -124 -55 -189t-78 -165l-123 64q57 127 82.5 201.5t52.5 193.5q47 202 47 366q0 214 -53 441q-26 112 -50.5 181.5t-78.5 188.5z" />
    <glyph glyph-name="asterisk" unicode="*" horiz-adv-x="673" 
d="M324 1038l16 9q0 31 -27 100q-24 60 -24 88t18.5 48t44.5 20q33 0 51.5 -18.5t18.5 -51.5q0 -20 -25 -90q-24 -52 -24 -78v-18l16 -9q27 19 42.5 35.5t41.5 50.5q28 36 47 49t43 13q27 0 45.5 -20t18.5 -48q0 -35 -26 -54t-87 -26q-62 -7 -106 -26l-2 -21q33 -16 102 -26
q67 -10 93 -28.5t26 -53.5q0 -29 -19.5 -48.5t-48.5 -19.5q-23 0 -42.5 14.5t-49.5 53.5q-44 57 -78 78l-18 -7q5 -49 30 -100q25 -54 25 -88q0 -29 -21 -48.5t-53 -19.5q-22 0 -39 21q-22 19 -22 47q0 24 22 78q27 74 27 112l-12 11q-19 -11 -32 -25t-40 -49
q-56 -78 -102 -78q-26 0 -47 22t-21 48q0 34 25.5 51t85.5 25q69 8 112 30v21q-37 17 -98 24q-69 9 -97 28.5t-28 57.5q0 25 21.5 44.5t50.5 19.5q21 0 39.5 -14.5t50.5 -53.5q45 -59 76 -80z" />
    <glyph glyph-name="plus" unicode="+" horiz-adv-x="1366" 
d="M137 727h477v479h131v-479h482v-131h-482v-475h-131v475h-477v131z" />
    <glyph glyph-name="comma" unicode="," horiz-adv-x="385" 
d="M221 231l129 -51l-192 -448l-78 26z" />
    <glyph glyph-name="hyphen" unicode="-" horiz-adv-x="468" 
d="M88 508h326v-125h-326v125z" />
    <glyph glyph-name="hyphen" unicode="&#xad;" horiz-adv-x="468" 
d="M88 508h326v-125h-326v125z" />
    <glyph glyph-name="period" unicode="." horiz-adv-x="385" 
d="M207 195q46 0 75 -28t29 -71t-29.5 -73.5t-70.5 -30.5t-71.5 30.5t-30.5 73.5q0 41 28.5 70t69.5 29z" />
    <glyph glyph-name="slash" unicode="/" horiz-adv-x="555" 
d="M446 1317h80l-385 -1702h-82z" />
    <glyph glyph-name="zero" unicode="0" horiz-adv-x="739" 
d="M487 698l2 54v45q0 136 -5.5 187.5t-22.5 90.5q-35 68 -82 68q-60 0 -84.5 -78.5t-24.5 -278.5v-41q0 -7 1 -21.5t1 -21.5v-45q0 -81 -2 -108v-31q0 -149 10.5 -230t34 -115t66.5 -34q55 0 80 60q17 47 21.5 124t4.5 322v53zM381 1296q167 -6 231 -168
q33 -80 46.5 -189.5t13.5 -293.5q0 -238 -18 -356t-66 -193q-71 -110 -207 -110q-176 0 -246 196q-23 67 -33 178t-10 318q0 176 12 277.5t41 170.5q48 115 140 154q43 16 94 16h2z" />
    <glyph glyph-name="one" unicode="1" 
d="M197 1276h278v-1276h-166v1139h-112v137z" />
    <glyph glyph-name="two" unicode="2" 
d="M270 864h-168q2 159 17.5 232.5t58.5 117.5q72 78 221 78q132 0 201.5 -72.5t69.5 -211.5q0 -103 -38 -227t-124 -298l-160 -327h285v-156h-557l223 440q1 1 18 35q1 3 6.5 15.5t10.5 21.5q89 178 123.5 283t34.5 196q0 71 -28 110.5t-77 39.5q-66 0 -90 -56.5
t-27 -220.5z" />
    <glyph glyph-name="three" unicode="3" 
d="M293 954h-164q3 115 21 177.5t59 103.5q63 63 188 63q145 0 209 -80t64 -260q0 -132 -26 -188.5t-105 -97.5q78 -43 105.5 -107t27.5 -198q0 -201 -71 -290t-232 -89q-145 0 -205.5 76.5t-63.5 265.5h162q2 -100 29.5 -146.5t85.5 -46.5q62 0 89.5 49.5t27.5 159.5
q0 103 -16 155t-55.5 73t-117.5 22v152q114 0 151.5 40.5t37.5 163.5q0 103 -23 148t-76 45q-55 0 -77.5 -42.5t-24.5 -148.5z" />
    <glyph glyph-name="four" unicode="4" 
d="M434 963l-201 -457h205v457h-4zM446 1292h158v-786h72v-152h-70l-2 -2v-352h-168v354h-336v158z" />
    <glyph glyph-name="five" unicode="5" 
d="M240 1276h422v-158h-289l-41 -289q88 -10 142 -34t97 -70q88 -94 88 -281q0 -199 -105.5 -329.5t-266.5 -130.5q-53 0 -96.5 13t-110.5 50l49 150q18 -9 25 -13q62 -34 118 -34q97 0 153 75t56 207q0 121 -57.5 185.5t-165.5 64.5q-38 0 -111 -16z" />
    <glyph glyph-name="six" unicode="6" 
d="M287 410v-17q0 -145 23 -201.5t83 -56.5q103 0 103 209q0 10 -2 16v21q0 27 2 43v20q0 67 -5.5 98t-21.5 60q-32 43 -74 43q-62 0 -86 -44.5t-24 -156.5q0 -12 2 -18v-16zM383 1276h190l-155 -311l-84 -189q61 27 100 27q153 0 209 -139q33 -88 33 -252
q0 -117 -13.5 -186.5t-46.5 -125.5q-66 -114 -237 -114q-143 0 -209 98t-66 311q0 144 16.5 241t61.5 216q35 92 140 299q49 98 61 125z" />
    <glyph glyph-name="seven" unicode="7" 
d="M160 1274h555l-367 -1274l-168 2l322 1114h-342v158z" />
    <glyph glyph-name="eight" unicode="8" 
d="M383 756q53 0 74.5 46.5t21.5 160.5q0 97 -21.5 138.5t-70.5 41.5q-53 0 -73.5 -40.5t-20.5 -144.5q0 -112 20 -157t70 -45zM387 606q-56 0 -79 -47.5t-23 -163.5q0 -147 23 -202.5t83 -55.5q51 0 74.5 49.5t23.5 157.5q0 147 -22.5 204.5t-79.5 57.5zM266 686
q-78 41 -106.5 100.5t-28.5 182.5q0 169 58.5 247t187.5 78q138 0 202 -73.5t64 -231.5q0 -134 -29 -197t-106 -102q56 -30 84.5 -61t46.5 -78q29 -74 29 -201q0 -192 -67.5 -278t-217.5 -86q-281 0 -281 366q0 143 37.5 219.5t126.5 114.5z" />
    <glyph glyph-name="nine" unicode="9" 
d="M494 885v16v10q0 230 -107 230h-4q-54 -1 -77 -49t-23 -154q0 -184 20.5 -245.5t83.5 -61.5q46 0 67.5 20t30.5 72t9 162zM211 0l31 63q54 102 118 246q44 94 84 191l-18 -6q-56 -19 -94 -19q-92 0 -154 68q-74 83 -74 311q0 202 35 285q38 93 129 133q55 20 123 20
q92 0 154.5 -37.5t87.5 -107.5q39 -104 39 -305q0 -125 -14.5 -211.5t-49.5 -179.5q-49 -133 -143 -316q-45 -85 -66 -135h-188z" />
    <glyph glyph-name="colon" unicode=":" horiz-adv-x="385" 
d="M211 670q43 -1 71.5 -31.5t28.5 -73.5t-28.5 -71.5t-71.5 -28.5t-72.5 29.5t-29.5 72.5q0 42 29.5 72.5t70.5 30.5h2zM213 197q41 -1 69.5 -31t28.5 -70q0 -43 -28.5 -73.5t-69.5 -30.5q-43 0 -72.5 29.5t-29.5 70.5q0 43 29.5 74t70.5 31h2z" />
    <glyph glyph-name="semicolon" unicode=";" horiz-adv-x="385" 
d="M201 240l129 -52l-189 -450l-80 31zM252 684q41 -2 71.5 -31t30.5 -69q0 -45 -30 -76t-74 -31q-41 0 -70.5 31t-29.5 74q0 41 30 71.5t70 30.5h2z" />
    <glyph glyph-name="semicolon" unicode="&#x37e;" horiz-adv-x="385" 
d="M201 240l129 -52l-189 -450l-80 31zM252 684q41 -2 71.5 -31t30.5 -69q0 -45 -30 -76t-74 -31q-41 0 -70.5 31t-29.5 74q0 41 30 71.5t70 30.5h2z" />
    <glyph glyph-name="less" unicode="&#x3c;" horiz-adv-x="1366" 
d="M1225 147l-1084 457v119l1084 457v-144l-908 -372l908 -375v-142z" />
    <glyph glyph-name="equal" unicode="=" horiz-adv-x="1366" 
d="M139 967h1088v-133h-1088v133zM139 498h1088v-131h-1088v131z" />
    <glyph glyph-name="greater" unicode="&#x3e;" horiz-adv-x="1366" 
d="M139 1180l1086 -459v-117l-1086 -457v142l910 373l-910 374v144z" />
    <glyph glyph-name="question" unicode="?" horiz-adv-x="661" 
d="M256 983h-145q2 124 13.5 173t49.5 85q55 55 152 55q148 0 202 -66.5t54 -246.5q0 -192 -17 -265t-71 -110q-31 -23 -99 -37v-268h-145v363q60 2 95 13.5t54 39.5q37 47 37 199v40v27q0 103 -19.5 142.5t-70.5 39.5t-70.5 -40.5t-19.5 -143.5zM322 178q40 -2 67 -28
t27 -64t-27 -65t-65 -27q-40 0 -66.5 24.5t-26.5 61.5q0 42 25 70t63 28h3z" />
    <glyph glyph-name="at" unicode="@" horiz-adv-x="2078" 
d="M1829 18h180q-61 -129 -217 -247q-138 -104 -298.5 -152.5t-367.5 -48.5q-471 0 -740 239.5t-269 659.5q0 273 122 512.5t326 368.5q224 143 541 143q238 0 424 -90t301 -262q131 -190 131 -412q0 -300 -199 -524q-68 -76 -155 -135q-117 -74 -242 -74q-103 0 -147.5 37
t-51.5 131q-69 -78 -148.5 -122t-154.5 -44q-158 0 -262 128.5t-104 324.5q0 108 42 224.5t115 209.5t169 145.5t192 52.5q92 0 169.5 -47.5t133.5 -136.5l33 156h180l-146 -672l-14 -70q-14 -67 -14 -86q0 -27 21 -46t51 -19q32 0 88 30.5t102 73.5q91 86 141.5 205.5
t50.5 245.5q0 134 -54.5 251t-149 200.5t-227.5 131.5t-285 48q-177 0 -331.5 -65.5t-264.5 -179.5t-173 -274.5t-63 -343.5q0 -364 227.5 -566t638.5 -202q303 0 523 138q70 43 102.5 73.5t73.5 89.5zM682 434q0 -129 61.5 -209t159.5 -80q62 0 131.5 45.5t120.5 118.5
q49 69 78 159.5t29 176.5q0 133 -64.5 212t-171.5 79q-86 0 -166 -71.5t-129 -188.5t-49 -242z" />
    <glyph glyph-name="A" unicode="A" horiz-adv-x="854" 
d="M442 985l-106 -604h221l-111 604h-4zM375 1274h141l277 -1274h-166l-47 252h-269l-47 -252h-164z" />
    <glyph glyph-name="B" unicode="B" 
d="M311 1143v-443q101 3 144 53t43 165q0 130 -39.5 177.5t-147.5 47.5zM311 573v-444q108 3 148.5 48t40.5 163q0 127 -42 178.5t-147 54.5zM141 1274h201q164 0 242 -81t78 -251q0 -123 -44.5 -197t-138.5 -108v-4q102 -22 150.5 -99t48.5 -217q0 -152 -73 -234.5
t-208 -82.5h-256v1274z" />
    <glyph glyph-name="C" unicode="C" 
d="M668 174v-151q-78 -37 -154 -37q-167 0 -272 127q-57 72 -82 185.5t-25 303.5q0 242 34.5 376.5t117.5 219.5q95 98 233 98q61 0 148 -20v-156q-63 23 -109 23q-61 0 -114.5 -41t-79.5 -107q-48 -119 -48 -354q0 -200 18.5 -292.5t67.5 -143.5q56 -62 142 -62
q50 0 123 31z" />
    <glyph glyph-name="D" unicode="D" horiz-adv-x="854" 
d="M319 1143v-2v-1012q72 0 114 13.5t73 47.5q88 91 88 455q0 285 -53.5 391.5t-198.5 106.5h-23zM147 1274h248q150 0 242 -92q73 -73 105 -198.5t32 -340.5q0 -241 -39.5 -379.5t-128 -201t-241.5 -62.5h-218v1274z" />
    <glyph glyph-name="E" unicode="E" horiz-adv-x="661" 
d="M141 1274h453v-146h-283v-403h262v-145h-262v-439h291v-141h-461v1274z" />
    <glyph glyph-name="F" unicode="F" horiz-adv-x="661" 
d="M139 1274h463v-146h-293v-401h262v-145h-262v-582h-170v1274z" />
    <glyph glyph-name="G" unicode="G" horiz-adv-x="856" 
d="M791 666v-215q0 -302 -134 -406q-75 -57 -206 -57q-202 0 -269 174q-53 140 -53 434q0 13 1 41t1 43q9 228 25 346q7 52 33.5 105.5t60.5 85.5q79 79 225 79q123 0 209.5 -74.5t93.5 -189.5l-162 -59q-10 95 -44.5 139.5t-96.5 44.5q-91 0 -128.5 -93t-37.5 -319v-65
q11 -303 25 -428q6 -48 41 -92q35 -35 90 -35q90 0 125 86q19 47 25 107.5t6 197.5h-156v150h326z" />
    <glyph glyph-name="H" unicode="H" horiz-adv-x="854" 
d="M141 1274h172v-496h265v496h172v-1274h-172v633h-265v-633h-172v1274z" />
    <glyph glyph-name="I" unicode="I" horiz-adv-x="468" 
d="M166 1274h172v-1274h-172v1274z" />
    <glyph glyph-name="J" unicode="J" horiz-adv-x="555" 
d="M291 1274h172v-1045q0 -126 -60.5 -186.5t-183.5 -60.5q-54 0 -166 24v156q87 -35 135 -35q47 0 75 34.5t28 94.5v1018z" />
    <glyph glyph-name="K" unicode="K" horiz-adv-x="854" 
d="M143 1274h174v-631h5l296 631h175l-310 -619l312 -655h-197l-276 647h-5v-647h-174v1274z" />
    <glyph glyph-name="L" unicode="L" horiz-adv-x="661" 
d="M137 1274h172v-1131h289v-143h-461v1274z" />
    <glyph glyph-name="M" unicode="M" horiz-adv-x="1044" 
d="M217 1274h148l178 -893h4l182 893h148l120 -1274h-159l-64 815h-4l-174 -815h-107l-165 815h-5l-67 -815h-160z" />
    <glyph glyph-name="N" unicode="N" horiz-adv-x="854" 
d="M592 1274h151v-1274h-135l-325 874h-4v-874h-154v1274h137l326 -875h4v875z" />
    <glyph glyph-name="O" unicode="O" horiz-adv-x="937" 
d="M485 1165q-97 0 -135.5 -99t-38.5 -349v-70q9 -270 23 -360q3 -33 18 -70q40 -90 133 -90q56 0 101 45q38 41 53.5 132t15.5 280v47q-7 286 -18 364q-2 23 -21 74q-39 96 -131 96zM481 1300q105 0 171.5 -29t108.5 -103t58.5 -191.5t16.5 -304.5q0 -283 -23.5 -405
t-89.5 -191q-42 -45 -97.5 -64.5t-140.5 -19.5q-162 0 -237 78q-66 69 -91.5 193t-25.5 378q0 255 26.5 385.5t92.5 196.5q80 77 231 77z" />
    <glyph glyph-name="P" unicode="P" 
d="M303 1143v-451q117 2 160 48.5t43 172.5q0 135 -42 182.5t-161 47.5zM131 1274h281q135 0 204.5 -92t69.5 -269q0 -257 -158 -325q-65 -26 -225 -29v-559h-172v1274z" />
    <glyph glyph-name="Q" unicode="Q" horiz-adv-x="937" 
d="M537 369l90 -127q19 51 24.5 123.5t5.5 252.5q0 257 -18 377q-10 81 -57 131q-35 35 -95 35q-97 0 -134.5 -97.5t-37.5 -350.5q0 -290 15 -399t61 -156q33 -33 86 -33q39 0 78 14l-117 158zM743 -113l-92 125q-112 -26 -176 -26q-129 0 -202.5 58.5t-106.5 187.5t-33 354
q0 290 26.5 429.5t92.5 205.5q82 79 244 79q216 0 286 -174q31 -80 44.5 -192t13.5 -299q0 -324 -49 -461q-15 -43 -48 -86l95 -131z" />
    <glyph glyph-name="R" unicode="R" 
d="M309 1141v-426q104 3 146.5 50.5t42.5 162.5t-41 164t-138 49h-10zM137 1274h238q291 0 291 -326q0 -144 -41.5 -220t-141.5 -116l219 -612h-178l-200 598h-15v-598h-172v1274z" />
    <glyph glyph-name="S" unicode="S" horiz-adv-x="661" 
d="M109 31v153q3 -1 6.5 -3.5t7.5 -4.5q87 -51 149 -51q75 0 123.5 50t48.5 128q0 51 -20 91.5t-88 125.5q-1 2 -8.5 10.5t-10.5 14.5l-22 26q-42 51 -117 146q-53 77 -73.5 135t-20.5 129q0 139 81 226t210 87q91 0 182 -45v-139q-83 45 -151 45q-67 0 -114.5 -48
t-47.5 -116q0 -88 112 -225l21 -25q140 -174 183.5 -257t43.5 -179q0 -142 -85.5 -230.5t-223.5 -88.5q-44 0 -81.5 9t-104.5 36z" />
    <glyph glyph-name="T" unicode="T" horiz-adv-x="661" 
d="M66 1274h561v-146h-195v-1128h-172v1128h-194v146z" />
    <glyph glyph-name="U" unicode="U" horiz-adv-x="854" 
d="M145 1272h170v-901q0 -151 28 -203.5t106 -52.5q77 0 101.5 52t24.5 214v891h170v-971q0 -319 -286 -319q-314 0 -314 317v973z" />
    <glyph glyph-name="V" unicode="V" 
d="M59 1274h166l158 -965h4l170 965h164l-268 -1274h-136z" />
    <glyph glyph-name="W" unicode="W" horiz-adv-x="1130" 
d="M78 1274h149l142 -881h4l153 881h117l145 -877h5l145 877h152l-220 -1274h-137l-153 899h-5l-149 -899h-135z" />
    <glyph glyph-name="X" unicode="X" 
d="M68 1274h165l152 -400l154 400h168l-238 -619l246 -655h-162l-168 436l-170 -436h-166l252 657z" />
    <glyph glyph-name="Y" unicode="Y" 
d="M59 1274h170l158 -572h4l160 572h170l-248 -731v-543h-172v535z" />
    <glyph glyph-name="Z" unicode="Z" 
d="M129 1274h565l-405 -1131h366v-143h-575l403 1128h-354v146z" />
    <glyph glyph-name="bracketleft" unicode="[" horiz-adv-x="468" 
d="M141 1294h295v-116h-164v-1420h164v-118h-295v1654z" />
    <glyph glyph-name="backslash" unicode="\" horiz-adv-x="555" 
d="M29 1317h77l386 -1702h-74z" />
    <glyph glyph-name="bracketright" unicode="]" horiz-adv-x="468" 
d="M68 1292h294v-1654h-292v118h159v1420h-161v116z" />
    <glyph glyph-name="asciicircum" unicode="^" horiz-adv-x="960" 
d="M238 690h-185l355 801h145l354 -801h-182l-246 598z" />
    <glyph glyph-name="underscore" unicode="_" horiz-adv-x="1024" 
d="M-14 -254v102h1052v-102h-1052z" />
    <glyph glyph-name="grave" unicode="`" horiz-adv-x="681" 
d="M465 985h-146l-231 279h242z" />
    <glyph glyph-name="a" unicode="a" 
d="M389 748q-58 -1 -81 -62t-23 -215q0 -200 21 -270t81 -70t82.5 70.5t22.5 259.5q0 168 -21.5 227.5t-81.5 59.5zM492 0v106h-5q-62 -118 -163 -118q-79 0 -134 61q-46 49 -63.5 132t-17.5 243q0 249 50 356t167 107q51 0 85.5 -23t75.5 -86h5v96h163v-874h-163z" />
    <glyph glyph-name="b" unicode="b" 
d="M393 750q-55 0 -79.5 -63t-24.5 -206q0 -198 23.5 -275t84.5 -77q56 0 80.5 64t24.5 213q0 196 -23.5 270t-85.5 74zM127 1319h164v-561h4q26 70 65.5 100.5t104.5 30.5q75 0 123 -51q47 -46 67.5 -131t20.5 -236q0 -263 -41 -362q-49 -119 -176 -119q-107 0 -166 131h-4
v-121h-162v1319z" />
    <glyph glyph-name="c" unicode="c" horiz-adv-x="555" 
d="M510 162v-135q-83 -39 -148 -39q-134 0 -196 109.5t-62 346.5q0 269 99 371q71 74 164 74q52 0 141 -31v-139q-58 26 -92 26q-70 0 -102.5 -76t-32.5 -241q0 -297 129 -297q37 0 100 31z" />
    <glyph glyph-name="d" unicode="d" 
d="M395 748q-60 0 -84 -68.5t-24 -237.5q0 -178 22.5 -246.5t81.5 -68.5q58 0 82.5 73.5t24.5 250.5q0 169 -22 233t-81 64zM496 1319h163v-1319h-161v117h-4q-58 -129 -168 -129q-87 0 -148 73q-36 44 -50.5 121t-14.5 226q0 200 17.5 288.5t66.5 139.5q53 53 133 53
q53 0 91.5 -27.5t70.5 -89.5h4v547z" />
    <glyph glyph-name="e" unicode="e" 
d="M291 535h203q0 134 -22 188.5t-75 54.5q-60 0 -82 -52t-24 -191zM500 295h149q-5 -157 -68 -232t-192 -75q-272 0 -272 430q0 469 282 469q102 0 174 -72q48 -52 67 -126.5t19 -217.5v-63h-368q2 -168 25 -227.5t87 -59.5q52 0 73.5 38.5t23.5 135.5z" />
    <glyph glyph-name="f" unicode="f" horiz-adv-x="468" 
d="M147 874v187q0 130 48 193t147 63q57 0 104 -12v-146q-12 12 -57 12q-80 0 -80 -122v-175h135v-124h-135v-750h-162v750h-88v124h88z" />
    <glyph glyph-name="g" unicode="g" 
d="M391 756q-56 0 -80 -63t-24 -208q0 -208 20.5 -277t83.5 -69q55 0 76.5 60.5t21.5 212.5q0 146 -7.5 216t-28 99t-62.5 29zM489 -145v262h-4q-48 -129 -170 -129q-101 0 -155 104q-45 90 -45 363q0 165 15.5 248.5t55.5 127.5q50 56 131 56q59 0 93 -20.5t75 -80.5h4v88
h162v-985q0 -135 -63 -197.5t-201 -62.5q-204 0 -250 115q-20 50 -22 147h157q5 -75 31 -109t80 -34q51 0 78.5 28t27.5 79z" />
    <glyph glyph-name="h" unicode="h" 
d="M125 1317h166v-516q86 86 180 86q186 0 186 -201v-686h-161v635q0 125 -101 125q-104 0 -104 -139v-621h-166v1317z" />
    <glyph glyph-name="i" unicode="i" horiz-adv-x="385" 
d="M129 874h162v-874h-162v874zM211 1231q37 0 63.5 -26.5t26.5 -63.5t-26.5 -63.5t-63.5 -26.5q-38 0 -64 26.5t-26 63.5t26.5 63.5t63.5 26.5z" />
    <glyph glyph-name="j" unicode="j" horiz-adv-x="385" 
d="M127 874h162v-1261h-162v1261zM207 1231q37 0 63.5 -26.5t26.5 -63.5t-26.5 -63.5t-63.5 -26.5q-38 0 -65 26.5t-27 63.5t27 63.5t65 26.5z" />
    <glyph glyph-name="k" unicode="k" 
d="M127 1317h164v-817h4l217 374h170l-221 -395l250 -479h-172l-244 467h-4v-467h-164v1317z" />
    <glyph glyph-name="l" unicode="l" horiz-adv-x="385" 
d="M129 1319h164v-1319h-164v1319z" />
    <glyph glyph-name="m" unicode="m" horiz-adv-x="1130" 
d="M297 874v-79q42 51 84.5 72.5t97.5 21.5q115 0 170 -109q82 107 197 107q184 0 184 -211v-676h-164v637q0 127 -98 127q-106 0 -106 -152v-612h-162v649q0 49 -28 82t-69 33q-108 0 -108 -139v-625h-164v874h166z" />
    <glyph glyph-name="n" unicode="n" 
d="M287 877v-84h4q29 45 74.5 70.5t95.5 25.5q190 0 190 -207v-682h-162v635q0 62 -26.5 95.5t-75.5 33.5q-47 0 -74.5 -34.5t-27.5 -94.5v-635h-164v877h166z" />
    <glyph glyph-name="o" unicode="o" 
d="M389 889q109 -3 174 -68q57 -55 80 -143.5t23 -251.5q0 -227 -66 -328q-34 -52 -89 -81t-120 -29q-145 0 -215 108.5t-70 335.5q0 171 28.5 265t96.5 145q66 47 154 47h4zM387 754q-58 0 -81 -55t-23 -195q0 -266 24 -324q24 -59 82 -59q59 0 81 56.5t22 207.5
q0 153 -9 229.5t-31 108t-65 31.5z" />
    <glyph glyph-name="p" unicode="p" 
d="M395 748q-57 0 -78.5 -60t-21.5 -215q0 -142 8.5 -214t29.5 -102t62 -30q58 0 83.5 68t25.5 223q0 184 -24 257t-85 73zM293 874v-96h4q43 60 80 84.5t86 24.5q115 0 165 -103t50 -340q0 -236 -41 -335q-48 -123 -172 -123q-48 0 -81 21.5t-83 88.5h-4v-483h-164v1261
h160z" />
    <glyph glyph-name="q" unicode="q" 
d="M393 748q-55 -1 -79.5 -67.5t-24.5 -209.5q0 -198 22 -271t82 -73q57 0 81 63t24 216q0 140 -9 211.5t-30.5 101t-63.5 29.5h-2zM496 -387v489h-4q-60 -116 -164 -116q-73 0 -129 53q-46 44 -66 130.5t-20 238.5q0 142 18 284q14 83 66 139q53 56 133 56q54 0 93 -28.5
t71 -92.5h4v108h161v-1261h-163z" />
    <glyph glyph-name="r" unicode="r" horiz-adv-x="555" 
d="M287 874v-129h4q34 68 85 105t109 37q2 0 5.5 -1t5.5 -1v-140q-125 -6 -167 -50.5t-42 -170.5v-524h-166v874h166z" />
    <glyph glyph-name="s" unicode="s" horiz-adv-x="647" 
d="M190 27v135q57 -23 87.5 -30t66.5 -7q47 0 73.5 25.5t26.5 68.5q0 39 -29.5 78t-111.5 109q-15 11 -37 30q-57 56 -80.5 104t-23.5 111q0 103 68 171.5t171 68.5q63 0 158 -33v-133l-10 4q-80 27 -119 27q-52 0 -83.5 -26.5t-31.5 -70.5q0 -35 25.5 -69.5t93.5 -91.5
q53 -46 72 -66q96 -99 96 -203t-70.5 -171.5t-177.5 -67.5q-41 0 -73.5 7.5t-90.5 29.5z" />
    <glyph glyph-name="t" unicode="t" horiz-adv-x="468" 
d="M166 1112h164v-238h106v-129h-106v-745h-164v745h-105v129h105v238z" />
    <glyph glyph-name="u" unicode="u" 
d="M123 877h162v-611q0 -145 104 -145q54 0 77 37t23 123v596h162v-601q0 -154 -61 -221t-201 -67t-203 66t-63 214v609z" />
    <glyph glyph-name="v" unicode="v" 
d="M90 874h164l131 -616h4l133 616h160l-238 -874h-110z" />
    <glyph glyph-name="w" unicode="w" horiz-adv-x="1044" 
d="M109 874h151l123 -583h4l117 583h84l123 -585h4l116 585h154l-215 -874h-115l-108 535h-4l-109 -535h-108z" />
    <glyph glyph-name="x" unicode="x" 
d="M78 874h166l141 -266l141 266h168l-225 -425l238 -449h-164l-158 289l-154 -289h-165l235 446z" />
    <glyph glyph-name="y" unicode="y" 
d="M66 874h163l144 -602h4l178 602h156l-408 -1261h-143l143 465z" />
    <glyph glyph-name="z" unicode="z" horiz-adv-x="661" 
d="M96 874h518l-311 -749h281v-125h-500l305 748h-293v126z" />
    <glyph glyph-name="braceleft" unicode="{" horiz-adv-x="684" 
d="M57 385v164q57 0 97 22q68 37 89 107.5t21 257.5q2 204 14 274t56 127q38 51 91.5 70.5t156.5 19.5h55v-155h-31q-107 0 -139.5 -39.5t-32.5 -167.5v-147q0 -157 -25 -247.5t-83 -142.5q-39 -32 -101 -61q117 -49 163 -149t46 -304v-145q0 -129 32.5 -168t139.5 -39h31
v-156h-55q-103 0 -157 20t-91 71q-44 59 -56.5 128t-13.5 273q0 187 -21 257t-89 107q-42 23 -97 23z" />
    <glyph glyph-name="bar" unicode="|" horiz-adv-x="1079" 
d="M473 1425h133v-1701h-133v1701z" />
    <glyph glyph-name="braceright" unicode="}" horiz-adv-x="684" 
d="M627 549v-164q-55 0 -97 -23q-68 -37 -89 -107t-21 -257q-2 -204 -14 -274t-56 -127q-38 -52 -91.5 -71.5t-156.5 -19.5h-55v156h31q107 0 139.5 39.5t32.5 167.5v145q0 204 46 304t163 149q-70 34 -108 70t-60 90q-41 107 -41 291v147q0 128 -32.5 167.5t-139.5 39.5
h-31v155h55q103 0 157 -19.5t91 -70.5q44 -59 56.5 -128t13.5 -273q0 -187 21 -257.5t89 -107.5q40 -22 97 -22z" />
    <glyph glyph-name="asciitilde" unicode="~" horiz-adv-x="1343" 
d="M1212 846v-146q-151 -127 -284 -127q-63 0 -121 19.5t-197 85.5q-120 57 -188 57q-126 0 -291 -137v143q72 58 150 91.5t143 33.5q57 0 118 -19.5t177 -76.5q139 -65 205 -65q69 0 134.5 32t153.5 109z" />
    <glyph glyph-name="uni00A0" unicode="&#xa0;" horiz-adv-x="372" 
 />
    <glyph glyph-name="exclamdown" unicode="&#xa1;" horiz-adv-x="385" 
d="M207 1112q39 0 66.5 -26.5t27.5 -63.5q0 -38 -26.5 -65t-63.5 -27q-41 0 -67.5 25.5t-26.5 64.5q0 38 26.5 65t63.5 27zM127 803h162v-971h-162v971z" />
    <glyph glyph-name="cent" unicode="&#xa2;" horiz-adv-x="555" 
d="M317 1047h97v-162q43 -7 94 -29v-139q-63 28 -92 28q-69 0 -102 -76.5t-33 -236.5q0 -297 127 -297q39 0 100 35v-135q-51 -28 -96 -41v-209h-97v211q-111 21 -159 123q-52 107 -52 307q0 162 25.5 253.5t85.5 145.5q36 33 102 58v164z" />
    <glyph glyph-name="sterling" unicode="&#xa3;" 
d="M59 694h111q-1 23 -12 115q-17 136 -17 180q0 149 70 228t199 79q184 0 239 -141q27 -65 29 -168h-162q-3 77 -29.5 119.5t-70.5 42.5q-50 0 -76.5 -41t-26.5 -117q0 -31 21 -198q3 -19 12 -99h143v-125h-129q9 -92 9 -141q0 -152 -27 -235q87 -41 139 -41q45 0 65.5 33
t20.5 106h154v-6q0 -145 -58 -222t-167 -77q-35 0 -95 20t-114 49q-52 -69 -127 -69q-46 0 -75.5 27t-29.5 71q0 58 41 96.5t103 38.5h32v29q0 58 -14 162q-9 66 -27 159h-131v125z" />
    <glyph glyph-name="currency" unicode="&#xa4;" horiz-adv-x="1400" 
d="M956 1024l127 127l88 -90l-127 -127q55 -79 73 -132t18 -138q0 -86 -18 -140t-73 -133l127 -127l-88 -88l-127 125q-79 -55 -132.5 -72.5t-139.5 -17.5q-87 0 -141 17.5t-131 72.5l-127 -125l-90 88l127 127q-55 77 -73 131.5t-18 141.5q0 85 17.5 137.5t73.5 134.5
l-127 125l90 90l127 -127q79 55 132.5 72.5t139.5 17.5q85 0 138 -17.5t134 -72.5zM358 664q0 -135 95.5 -230.5t230.5 -95.5q134 0 229 95.5t95 230.5q0 133 -95 228t-229 95q-135 0 -230.5 -94.5t-95.5 -228.5z" />
    <glyph glyph-name="yen" unicode="&#xa5;" 
d="M307 991h164l80 283h170l-96 -283h96v-86h-125l-96 -282h221v-86h-248v-537h-168v537h-246v86h217l-94 282h-123v86h95l-95 281h170zM446 905h-114l53 -205h4z" />
    <glyph glyph-name="brokenbar" unicode="&#xa6;" horiz-adv-x="1079" 
d="M473 446h133v-722h-133v722zM473 1425h133v-725h-133v725z" />
    <glyph glyph-name="section" unicode="&#xa7;" horiz-adv-x="706" 
d="M377 698q-74 -116 -74 -217q0 -61 22.5 -114.5t82.5 -135.5q71 93 71 222q0 71 -26.5 135.5t-75.5 109.5zM182 -115h140q0 -69 15 -98t50 -29q26 0 44 25.5t18 62.5q0 52 -25.5 102.5t-95.5 135.5q-61 79 -92 129q-43 78 -59.5 129t-16.5 113q0 90 32.5 163t112.5 164
q-69 101 -93 162t-24 133q0 105 55.5 170.5t145.5 65.5q97 0 152.5 -72t60.5 -201h-143q-1 67 -16.5 97t-47.5 30q-28 0 -44.5 -22t-16.5 -58q0 -100 119 -243l12 -15q88 -104 122 -179.5t34 -164.5q0 -206 -144 -338q68 -92 93.5 -153.5t25.5 -138.5q0 -109 -57 -174.5
t-152 -65.5q-196 0 -205 270z" />
    <glyph glyph-name="dieresis" unicode="&#xa8;" horiz-adv-x="681" 
d="M139 1210q43 0 74 -30.5t31 -73.5q0 -44 -31 -75.5t-74 -31.5q-44 0 -75 31.5t-31 75.5q0 43 31 73.5t75 30.5zM543 1210q44 0 75 -30.5t31 -73.5q0 -44 -31 -75.5t-75 -31.5q-43 0 -74 31.5t-31 75.5q0 43 31 73.5t74 30.5z" />
    <glyph glyph-name="copyright" unicode="&#xa9;" horiz-adv-x="1511" 
d="M997 614l123 -36q-31 -126 -128.5 -200.5t-233.5 -74.5q-186 0 -292 119t-106 326q0 187 110.5 299t293.5 112q131 0 219.5 -60.5t120.5 -174.5l-119 -29q-59 154 -233 154q-116 0 -186 -87.5t-70 -232.5q0 -144 69 -225.5t191 -81.5q88 0 153 52t88 140zM756 1491
q153 0 292.5 -60t240.5 -161t160.5 -240.5t59.5 -292.5q0 -206 -101 -379.5t-274 -274.5t-378 -101q-154 0 -294 59.5t-241 160.5t-161 241t-60 294q0 153 60 292.5t161 240.5t241 161t294 60zM756 1366q-171 0 -316.5 -84.5t-230 -229.5t-84.5 -315q0 -128 50 -245
t134.5 -201.5t201.5 -134.5t245 -50q127 0 243.5 50t200.5 134.5t134 201.5t50 245q0 127 -50 243.5t-134 201t-200.5 134.5t-243.5 50z" />
    <glyph glyph-name="ordfeminine" unicode="&#xaa;" horiz-adv-x="491" 
d="M256 1210q-37 0 -51.5 -40.5t-14.5 -139.5q0 -126 13.5 -173.5t50.5 -47.5q38 0 55 41t17 137q0 134 -14 178.5t-56 44.5zM324 725v70h-5q-33 -49 -53 -63.5t-53 -14.5q-74 0 -106.5 67.5t-32.5 221.5q0 155 32.5 224.5t104.5 69.5q37 0 58 -13.5t50 -57.5h5v63h106v-567
h-106z" />
    <glyph glyph-name="guillemotleft" unicode="&#xab;" 
d="M199 1026h170l-103 -469l101 -473h-170l-101 467zM500 1026h170l-105 -469l101 -473h-168l-101 467z" />
    <glyph glyph-name="logicalnot" unicode="&#xac;" horiz-adv-x="1366" 
d="M139 975h1088v-619h-131v488h-957v131z" />
    <glyph glyph-name="registered" unicode="&#xae;" horiz-adv-x="1511" 
d="M424 319v811h278q97 0 138.5 -4.5t83.5 -21.5q54 -23 90.5 -76t36.5 -110q0 -98 -64.5 -163t-167.5 -71v-4q46 -17 87 -61t102 -142l98 -158h-160l-72 127q-79 138 -123 178t-118 40h-78v-345h-131zM555 776h160q102 0 149 29.5t47 93.5q0 67 -46 94t-160 27h-150v-244z
M756 1491q153 0 292.5 -60t240.5 -161t160.5 -240.5t59.5 -292.5q0 -206 -101 -379.5t-274 -274.5t-378 -101q-154 0 -294 59.5t-241 160.5t-161 241t-60 294q0 153 60 292.5t161 240.5t241 161t294 60zM756 1366q-171 0 -316.5 -84.5t-230 -229.5t-84.5 -315
q0 -128 50 -245t134.5 -201.5t201.5 -134.5t245 -50q127 0 243.5 50t200.5 134.5t134 201.5t50 245q0 127 -50 243.5t-134 201t-200.5 134.5t-243.5 50z" />
    <glyph glyph-name="macron" unicode="&#xaf;" horiz-adv-x="681" 
d="M29 1018v147h624v-147h-624z" />
    <glyph glyph-name="macron" unicode="&#x2c9;" horiz-adv-x="681" 
d="M29 1018v147h624v-147h-624z" />
    <glyph glyph-name="degree" unicode="&#xb0;" horiz-adv-x="819" 
d="M133 1214q0 114 81 195.5t196 81.5t195.5 -80.5t80.5 -196.5t-80.5 -197t-195.5 -81t-196 81t-81 197zM242 1214q0 -70 49.5 -120t118.5 -50q70 0 119 49.5t49 120.5q0 69 -49 118.5t-119 49.5t-119 -49.5t-49 -118.5z" />
    <glyph glyph-name="plusminus" unicode="&#xb1;" horiz-adv-x="1366" 
d="M139 895h477v479h132v-479h479v-131h-479v-477h-132v477h-477v131zM139 86h1088v-131h-1088v131z" />
    <glyph glyph-name="twosuperior" unicode="&#xb2;" horiz-adv-x="532" 
d="M203 1022h-123q3 142 50.5 206t150.5 64q88 0 138 -47t50 -129q0 -86 -55 -226t-152 -298h180v-109h-368l51 92q217 392 217 517q0 37 -19.5 60.5t-50.5 23.5q-40 0 -54.5 -32t-14.5 -122z" />
    <glyph glyph-name="threesuperior" unicode="&#xb3;" horiz-adv-x="532" 
d="M190 1077h-114q3 114 46 166.5t132 52.5q201 0 201 -206q0 -79 -21 -121t-72 -68q53 -33 73 -70.5t20 -107.5q0 -127 -50 -188.5t-153 -61.5q-100 0 -145 49t-46 164h111q2 -54 18.5 -78t53.5 -24q80 0 80 131q0 76 -24 102.5t-95 26.5v117q72 2 94.5 22t22.5 84
q0 119 -66 119q-35 0 -50.5 -25.5t-15.5 -83.5z" />
    <glyph glyph-name="acute" unicode="&#xb4;" horiz-adv-x="681" 
d="M223 985l133 279h236l-221 -279h-148z" />
    <glyph glyph-name="mu" unicode="&#xb5;" horiz-adv-x="1138" 
d="M997 1061v-1061h-159v125h-4q-52 -83 -112 -116.5t-155 -33.5q-82 0 -136 29t-109 102h-5v-514h-178v1469h178v-449v-67q0 -143 16 -213t60 -119q31 -35 75 -55.5t91 -20.5q96 0 164 58q59 51 78.5 120.5t19.5 225.5v69v451h176z" />
    <glyph glyph-name="mu" unicode="&#x3bc;" horiz-adv-x="1138" 
d="M997 1061v-1061h-159v125h-4q-52 -83 -112 -116.5t-155 -33.5q-82 0 -136 29t-109 102h-5v-514h-178v1469h178v-449v-67q0 -143 16 -213t60 -119q31 -35 75 -55.5t91 -20.5q96 0 164 58q59 51 78.5 120.5t19.5 225.5v69v451h176z" />
    <glyph glyph-name="paragraph" unicode="&#xb6;" horiz-adv-x="1101" 
d="M401 -408v1045q-188 11 -296.5 122t-108.5 292q0 124 58.5 221t162.5 147q62 28 112 37.5t140 9.5h633v-174h-144v-1700h-170v1700h-223v-1700h-164z" />
    <glyph glyph-name="periodcentered" unicode="&#xb7;" horiz-adv-x="598" 
d="M315 776q44 0 75.5 -31t31.5 -75t-31.5 -75.5t-75.5 -31.5t-75 31.5t-31 75.5t31 75t75 31z" />
    <glyph glyph-name="periodcentered" unicode="&#x2219;" horiz-adv-x="598" 
d="M315 776q44 0 75.5 -31t31.5 -75t-31.5 -75.5t-75.5 -31.5t-75 31.5t-31 75.5t31 75t75 31z" />
    <glyph glyph-name="cedilla" unicode="&#xb8;" horiz-adv-x="681" 
d="M215 -154l53 177h133l-32 -107q79 -9 124.5 -48.5t45.5 -98.5q0 -87 -80.5 -139t-216.5 -52q-62 0 -136 12l11 117h22q11 -1 24.5 -2t20.5 -1.5t11 -0.5q178 0 178 76q0 64 -142 67h-16z" />
    <glyph glyph-name="onesuperior" unicode="&#xb9;" horiz-adv-x="532" 
d="M154 1292h188v-807h-121v705h-67v102z" />
    <glyph glyph-name="ordmasculine" unicode="&#xba;" horiz-adv-x="491" 
d="M256 1214q-36 0 -51 -38.5t-15 -131.5q0 -146 13 -194.5t53 -48.5q42 0 57 40t15 152q0 95 -6 140.5t-20.5 63t-45.5 17.5zM260 1300q95 0 137.5 -70.5t42.5 -228.5q0 -148 -44 -217t-138 -69t-137 73.5t-43 231.5q0 143 44.5 211.5t137.5 68.5z" />
    <glyph glyph-name="guillemotright" unicode="&#xbb;" 
d="M98 1026h166l103 -471l-103 -471h-168l101 475zM395 1026h168l101 -469l-101 -473h-168l103 475z" />
    <glyph glyph-name="onequarter" unicode="&#xbc;" horiz-adv-x="1343" 
d="M1110 528l-119 -284h123v284h-4zM1102 737h133v-495h47v-113h-47v-197h-123v197h-227v117zM176 1292h189v-807h-121v705h-68v102zM1081 1315h131l-897 -1405h-129z" />
    <glyph glyph-name="onehalf" unicode="&#xbd;" horiz-adv-x="1343" 
d="M174 1292h188v-807h-118v705h-70v102zM1028 469h-121q3 143 49.5 206.5t149.5 63.5q88 0 139 -47t51 -129q0 -87 -55.5 -225.5t-153.5 -298.5h181v-109h-369l51 93q217 388 217 516q0 37 -19 60.5t-50 23.5q-40 0 -55 -32t-15 -122zM1065 1315h131l-897 -1405h-129z" />
    <glyph glyph-name="threequarters" unicode="&#xbe;" horiz-adv-x="1343" 
d="M1110 524l-119 -280h123v280h-4zM1102 737h133v-495h49v-113h-51v-197h-119v197h-229v115zM213 1075h-115q3 115 46 168t132 53q201 0 201 -209q0 -79 -20 -119.5t-72 -66.5q52 -32 72 -71.5t20 -110.5q0 -126 -50 -186t-153 -60q-100 0 -143.5 49t-46.5 164h113
q0 -55 16.5 -79.5t54.5 -24.5q78 0 78 133q0 76 -24 102.5t-95 26.5v117q73 1 95 21t22 85q0 119 -65 119q-35 0 -50.5 -25.5t-15.5 -85.5zM1087 1315h132l-895 -1405h-131z" />
    <glyph glyph-name="questiondown" unicode="&#xbf;" horiz-adv-x="661" 
d="M295 803h147v-357q-60 -3 -95 -15t-54 -40q-37 -47 -37 -198v-21v-20v-11q0 -78 3.5 -105.5t16.5 -53.5q24 -39 74 -39q44 0 64 40t20 130v14h146q0 -109 -9 -153.5t-39 -84.5q-31 -40 -71.5 -55.5t-112.5 -15.5q-119 0 -176 57q-38 38 -52 90.5t-14 159.5
q0 169 12.5 239t49.5 113q25 28 52.5 41t74.5 17v268zM367 930q-38 0 -64.5 27t-26.5 65t27.5 65t65.5 27q40 0 67 -27t27 -65t-28 -65t-66 -27h-2z" />
    <glyph glyph-name="Agrave" unicode="&#xc0;" horiz-adv-x="854" 
d="M442 985l-106 -604h221l-111 604h-4zM375 1274h141l277 -1274h-166l-47 252h-269l-47 -252h-164zM551 1372h-146l-231 279h242z" />
    <glyph glyph-name="Aacute" unicode="&#xc1;" horiz-adv-x="854" 
d="M442 985l-106 -604h221l-111 604h-4zM375 1274h141l277 -1274h-166l-47 252h-269l-47 -252h-164zM309 1372l133 279h236l-221 -279h-148z" />
    <glyph glyph-name="Acircumflex" unicode="&#xc2;" horiz-adv-x="854" 
d="M442 985l-106 -604h221l-111 604h-4zM375 1274h141l277 -1274h-166l-47 252h-269l-47 -252h-164zM430 1542l-115 -170h-204l217 279h190l225 -279h-204z" />
    <glyph glyph-name="Atilde" unicode="&#xc3;" horiz-adv-x="854" 
d="M442 985l-106 -604h221l-111 604h-4zM375 1274h141l277 -1274h-166l-47 252h-269l-47 -252h-164zM225 1397h-133v12q0 94 58 154.5t147 60.5q65 0 151 -47l31 -14q51 -23 80 -23q34 0 50 19.5t22 68.5h131q-3 -109 -54.5 -169t-140.5 -60q-68 0 -149 47l-37 20
q-49 25 -80 25q-34 0 -55 -24t-21 -62v-8z" />
    <glyph glyph-name="Adieresis" unicode="&#xc4;" horiz-adv-x="854" 
d="M442 985l-106 -604h221l-111 604h-4zM375 1274h141l277 -1274h-166l-47 252h-269l-47 -252h-164zM225 1597q43 0 74 -30.5t31 -73.5q0 -44 -31 -75.5t-74 -31.5q-44 0 -75 31.5t-31 75.5q0 43 31 73.5t75 30.5zM629 1597q44 0 75 -30.5t31 -73.5q0 -44 -31 -75.5
t-75 -31.5q-43 0 -74 31.5t-31 75.5q0 43 31 73.5t74 30.5z" />
    <glyph glyph-name="Aring" unicode="&#xc5;" horiz-adv-x="854" 
d="M442 985l-106 -604h221l-111 604h-4zM375 1274h141l277 -1274h-166l-47 252h-269l-47 -252h-164zM248 1515q0 72 53.5 125.5t126.5 53.5q75 0 127.5 -54t52.5 -129q0 -77 -52.5 -130.5t-127.5 -53.5t-127.5 55t-52.5 133zM324 1515q0 -47 31 -79.5t75 -32.5q43 0 75 32
t32 76q0 46 -31.5 77.5t-75.5 31.5q-43 0 -74.5 -31t-31.5 -74z" />
    <glyph glyph-name="AE" unicode="&#xc6;" horiz-adv-x="1044" 
d="M535 1128l-189 -745h193v745h-4zM438 1274h557v-144h-284v-403h262v-147h-262v-435h290v-145h-464v254h-226l-63 -254h-174z" />
    <glyph glyph-name="Ccedilla" unicode="&#xc7;" 
d="M668 174v-151q-78 -37 -154 -37q-167 0 -272 127q-57 72 -82 185.5t-25 303.5q0 242 34.5 376.5t117.5 219.5q95 98 233 98q61 0 148 -20v-156q-63 23 -109 23q-61 0 -114.5 -41t-79.5 -107q-48 -119 -48 -354q0 -200 18.5 -292.5t67.5 -143.5q56 -62 142 -62
q50 0 123 31zM248 -154l53 177h133l-32 -107q79 -9 124.5 -48.5t45.5 -98.5q0 -87 -80.5 -139t-216.5 -52q-62 0 -136 12l11 117h22q11 -1 24.5 -2t20.5 -1.5t11 -0.5q178 0 178 76q0 64 -142 67h-16z" />
    <glyph glyph-name="Egrave" unicode="&#xc8;" horiz-adv-x="661" 
d="M141 1274h453v-146h-283v-403h262v-145h-262v-439h291v-141h-461v1274zM455 1372h-146l-231 279h242z" />
    <glyph glyph-name="Eacute" unicode="&#xc9;" horiz-adv-x="661" 
d="M141 1274h453v-146h-283v-403h262v-145h-262v-439h291v-141h-461v1274zM213 1372l133 279h236l-221 -279h-148z" />
    <glyph glyph-name="Ecircumflex" unicode="&#xca;" horiz-adv-x="661" 
d="M141 1274h453v-146h-283v-403h262v-145h-262v-439h291v-141h-461v1274zM334 1542l-115 -170h-204l217 279h190l225 -279h-204z" />
    <glyph glyph-name="Edieresis" unicode="&#xcb;" horiz-adv-x="661" 
d="M141 1274h453v-146h-283v-403h262v-145h-262v-439h291v-141h-461v1274zM129 1597q43 0 74 -30.5t31 -73.5q0 -44 -31 -75.5t-74 -31.5q-44 0 -75 31.5t-31 75.5q0 43 31 73.5t75 30.5zM533 1597q44 0 75 -30.5t31 -73.5q0 -44 -31 -75.5t-75 -31.5q-43 0 -74 31.5
t-31 75.5q0 43 31 73.5t74 30.5z" />
    <glyph glyph-name="Igrave" unicode="&#xcc;" horiz-adv-x="468" 
d="M166 1274h172v-1274h-172v1274zM359 1372h-146l-231 279h242z" />
    <glyph glyph-name="Iacute" unicode="&#xcd;" horiz-adv-x="468" 
d="M166 1274h172v-1274h-172v1274zM117 1372l133 279h236l-221 -279h-148z" />
    <glyph glyph-name="Icircumflex" unicode="&#xce;" horiz-adv-x="468" 
d="M166 1274h172v-1274h-172v1274zM238 1542l-115 -170h-204l217 279h190l225 -279h-204z" />
    <glyph glyph-name="Idieresis" unicode="&#xcf;" horiz-adv-x="468" 
d="M166 1274h172v-1274h-172v1274zM33 1597q43 0 74 -30.5t31 -73.5q0 -44 -31 -75.5t-74 -31.5q-44 0 -75 31.5t-31 75.5q0 43 31 73.5t75 30.5zM437 1597q44 0 75 -30.5t31 -73.5q0 -44 -31 -75.5t-75 -31.5q-43 0 -74 31.5t-31 75.5q0 43 31 73.5t74 30.5z" />
    <glyph glyph-name="Eth" unicode="&#xd0;" horiz-adv-x="854" 
d="M152 668v604q94 4 143 4q145 0 217.5 -20.5t126.5 -75.5q72 -73 104.5 -197t32.5 -321q0 -236 -30.5 -367t-102.5 -203q-92 -92 -285 -92h-206v598h-101v70h101zM319 1143v-475h132v-70h-132v-469q133 0 187 57q46 50 67 165t21 319q0 203 -35 314t-110 142
q-38 17 -130 17z" />
    <glyph glyph-name="Ntilde" unicode="&#xd1;" horiz-adv-x="854" 
d="M592 1274h151v-1274h-135l-325 874h-4v-874h-154v1274h137l326 -875h4v875zM225 1397h-133v12q0 94 58 154.5t147 60.5q65 0 151 -47l31 -14q51 -23 80 -23q34 0 50 19.5t22 68.5h131q-3 -109 -54.5 -169t-140.5 -60q-68 0 -149 47l-37 20q-49 25 -80 25q-34 0 -55 -24
t-21 -62v-8z" />
    <glyph glyph-name="Ograve" unicode="&#xd2;" horiz-adv-x="937" 
d="M485 1165q-97 0 -135.5 -99t-38.5 -349v-70q9 -270 23 -360q3 -33 18 -70q40 -90 133 -90q56 0 101 45q38 41 53.5 132t15.5 280v47q-7 286 -18 364q-2 23 -21 74q-39 96 -131 96zM481 1300q105 0 171.5 -29t108.5 -103t58.5 -191.5t16.5 -304.5q0 -283 -23.5 -405
t-89.5 -191q-42 -45 -97.5 -64.5t-140.5 -19.5q-162 0 -237 78q-66 69 -91.5 193t-25.5 378q0 255 26.5 385.5t92.5 196.5q80 77 231 77zM594 1372h-146l-231 279h242z" />
    <glyph glyph-name="Oacute" unicode="&#xd3;" horiz-adv-x="937" 
d="M485 1165q-97 0 -135.5 -99t-38.5 -349v-70q9 -270 23 -360q3 -33 18 -70q40 -90 133 -90q56 0 101 45q38 41 53.5 132t15.5 280v47q-7 286 -18 364q-2 23 -21 74q-39 96 -131 96zM481 1300q105 0 171.5 -29t108.5 -103t58.5 -191.5t16.5 -304.5q0 -283 -23.5 -405
t-89.5 -191q-42 -45 -97.5 -64.5t-140.5 -19.5q-162 0 -237 78q-66 69 -91.5 193t-25.5 378q0 255 26.5 385.5t92.5 196.5q80 77 231 77zM352 1372l133 279h236l-221 -279h-148z" />
    <glyph glyph-name="Ocircumflex" unicode="&#xd4;" horiz-adv-x="937" 
d="M485 1165q-97 0 -135.5 -99t-38.5 -349v-70q9 -270 23 -360q3 -33 18 -70q40 -90 133 -90q56 0 101 45q38 41 53.5 132t15.5 280v47q-7 286 -18 364q-2 23 -21 74q-39 96 -131 96zM481 1300q105 0 171.5 -29t108.5 -103t58.5 -191.5t16.5 -304.5q0 -283 -23.5 -405
t-89.5 -191q-42 -45 -97.5 -64.5t-140.5 -19.5q-162 0 -237 78q-66 69 -91.5 193t-25.5 378q0 255 26.5 385.5t92.5 196.5q80 77 231 77zM473 1542l-115 -170h-204l217 279h190l225 -279h-204z" />
    <glyph glyph-name="Otilde" unicode="&#xd5;" horiz-adv-x="937" 
d="M485 1165q-97 0 -135.5 -99t-38.5 -349v-70q9 -270 23 -360q3 -33 18 -70q40 -90 133 -90q56 0 101 45q38 41 53.5 132t15.5 280v47q-7 286 -18 364q-2 23 -21 74q-39 96 -131 96zM481 1300q105 0 171.5 -29t108.5 -103t58.5 -191.5t16.5 -304.5q0 -283 -23.5 -405
t-89.5 -191q-42 -45 -97.5 -64.5t-140.5 -19.5q-162 0 -237 78q-66 69 -91.5 193t-25.5 378q0 255 26.5 385.5t92.5 196.5q80 77 231 77zM268 1397h-133v12q0 94 58 154.5t147 60.5q65 0 151 -47l31 -14q51 -23 80 -23q34 0 50 19.5t22 68.5h131q-3 -109 -54.5 -169
t-140.5 -60q-68 0 -149 47l-37 20q-49 25 -80 25q-34 0 -55 -24t-21 -62v-8z" />
    <glyph glyph-name="Odieresis" unicode="&#xd6;" horiz-adv-x="937" 
d="M485 1165q-97 0 -135.5 -99t-38.5 -349v-70q9 -270 23 -360q3 -33 18 -70q40 -90 133 -90q56 0 101 45q38 41 53.5 132t15.5 280v47q-7 286 -18 364q-2 23 -21 74q-39 96 -131 96zM481 1300q105 0 171.5 -29t108.5 -103t58.5 -191.5t16.5 -304.5q0 -283 -23.5 -405
t-89.5 -191q-42 -45 -97.5 -64.5t-140.5 -19.5q-162 0 -237 78q-66 69 -91.5 193t-25.5 378q0 255 26.5 385.5t92.5 196.5q80 77 231 77zM268 1597q43 0 74 -30.5t31 -73.5q0 -44 -31 -75.5t-74 -31.5q-44 0 -75 31.5t-31 75.5q0 43 31 73.5t75 30.5zM672 1597
q44 0 75 -30.5t31 -73.5q0 -44 -31 -75.5t-75 -31.5q-43 0 -74 31.5t-31 75.5q0 43 31 73.5t74 30.5z" />
    <glyph glyph-name="multiply" unicode="&#xd7;" horiz-adv-x="1366" 
d="M184 1071l92 92l408 -409l410 409l92 -94l-408 -407l404 -406l-92 -92l-406 405l-405 -405l-93 92l406 406z" />
    <glyph glyph-name="Oslash" unicode="&#xd8;" horiz-adv-x="937" 
d="M322 360l299 680q-39 117 -138 117q-98 0 -135 -99t-37 -358q0 -203 6 -317v-23h5zM643 928l-303 -692q23 -63 56 -89t87 -26q91 0 130 93t40 314v37v39v103q0 98 -6 221h-4zM737 1307l64 -25l-47 -108q29 -46 41 -89q41 -139 41 -432q0 -359 -56 -497q-38 -90 -108 -131
t-185 -41q-88 0 -131.5 12.5t-99.5 52.5l-41 -86l-61 29l53 121q-29 39 -37 65q-45 131 -45 408q0 97 8.5 228t18.5 200q8 56 33 111t59 89q77 80 248 80q71 0 109.5 -11.5t103.5 -51.5z" />
    <glyph glyph-name="Ugrave" unicode="&#xd9;" horiz-adv-x="854" 
d="M145 1272h170v-901q0 -151 28 -203.5t106 -52.5q77 0 101.5 52t24.5 214v891h170v-971q0 -319 -286 -319q-314 0 -314 317v973zM551 1372h-146l-231 279h242z" />
    <glyph glyph-name="Uacute" unicode="&#xda;" horiz-adv-x="854" 
d="M145 1272h170v-901q0 -151 28 -203.5t106 -52.5q77 0 101.5 52t24.5 214v891h170v-971q0 -319 -286 -319q-314 0 -314 317v973zM309 1372l133 279h236l-221 -279h-148z" />
    <glyph glyph-name="Ucircumflex" unicode="&#xdb;" horiz-adv-x="854" 
d="M145 1272h170v-901q0 -151 28 -203.5t106 -52.5q77 0 101.5 52t24.5 214v891h170v-971q0 -319 -286 -319q-314 0 -314 317v973zM430 1542l-115 -170h-204l217 279h190l225 -279h-204z" />
    <glyph glyph-name="Udieresis" unicode="&#xdc;" horiz-adv-x="854" 
d="M145 1272h170v-901q0 -151 28 -203.5t106 -52.5q77 0 101.5 52t24.5 214v891h170v-971q0 -319 -286 -319q-314 0 -314 317v973zM225 1597q43 0 74 -30.5t31 -73.5q0 -44 -31 -75.5t-74 -31.5q-44 0 -75 31.5t-31 75.5q0 43 31 73.5t75 30.5zM629 1597q44 0 75 -30.5
t31 -73.5q0 -44 -31 -75.5t-75 -31.5q-43 0 -74 31.5t-31 75.5q0 43 31 73.5t74 30.5z" />
    <glyph glyph-name="Yacute" unicode="&#xdd;" 
d="M59 1274h170l158 -572h4l160 572h170l-248 -731v-543h-172v535zM256 1372l133 279h236l-221 -279h-148z" />
    <glyph glyph-name="Thorn" unicode="&#xde;" 
d="M301 412h27q91 0 133.5 51t42.5 158q0 241 -152 241h-51v-450zM301 1274v-283h105q278 0 278 -356q0 -184 -78.5 -270t-247.5 -86h-57v-279h-168v1274h168z" />
    <glyph glyph-name="germandbls" unicode="&#xdf;" 
d="M119 0v1077q0 118 68.5 181t197.5 63q135 0 196.5 -71t61.5 -228q0 -89 -31 -149.5t-100 -104.5q58 -35 87 -67.5t46 -82.5q27 -80 27 -210q0 -150 -18.5 -232t-63.5 -133q-52 -55 -131 -55q-38 0 -86 18v133h20q57 0 79 56.5t22 201.5q0 159 -26 220.5t-95 62.5v147
q55 13 74.5 54t19.5 143q0 164 -90 164q-38 0 -64 -36t-26 -87v-1065h-168z" />
    <glyph glyph-name="agrave" unicode="&#xe0;" 
d="M389 748q-58 -1 -81 -62t-23 -215q0 -200 21 -270t81 -70t82.5 70.5t22.5 259.5q0 168 -21.5 227.5t-81.5 59.5zM492 0v106h-5q-62 -118 -163 -118q-79 0 -134 61q-46 49 -63.5 132t-17.5 243q0 249 50 356t167 107q51 0 85.5 -23t75.5 -86h5v96h163v-874h-163zM498 985
h-146l-231 279h242z" />
    <glyph glyph-name="aacute" unicode="&#xe1;" 
d="M389 748q-58 -1 -81 -62t-23 -215q0 -200 21 -270t81 -70t82.5 70.5t22.5 259.5q0 168 -21.5 227.5t-81.5 59.5zM492 0v106h-5q-62 -118 -163 -118q-79 0 -134 61q-46 49 -63.5 132t-17.5 243q0 249 50 356t167 107q51 0 85.5 -23t75.5 -86h5v96h163v-874h-163zM256 985
l133 279h236l-221 -279h-148z" />
    <glyph glyph-name="acircumflex" unicode="&#xe2;" 
d="M389 748q-58 -1 -81 -62t-23 -215q0 -200 21 -270t81 -70t82.5 70.5t22.5 259.5q0 168 -21.5 227.5t-81.5 59.5zM492 0v106h-5q-62 -118 -163 -118q-79 0 -134 61q-46 49 -63.5 132t-17.5 243q0 249 50 356t167 107q51 0 85.5 -23t75.5 -86h5v96h163v-874h-163zM377 1155
l-115 -170h-204l217 279h190l225 -279h-204z" />
    <glyph glyph-name="atilde" unicode="&#xe3;" 
d="M389 748q-58 -1 -81 -62t-23 -215q0 -200 21 -270t81 -70t82.5 70.5t22.5 259.5q0 168 -21.5 227.5t-81.5 59.5zM492 0v106h-5q-62 -118 -163 -118q-79 0 -134 61q-46 49 -63.5 132t-17.5 243q0 249 50 356t167 107q51 0 85.5 -23t75.5 -86h5v96h163v-874h-163zM172 1010
h-133v12q0 94 58 154.5t147 60.5q65 0 151 -47l31 -14q51 -23 80 -23q34 0 50 19.5t22 68.5h131q-3 -109 -54.5 -169t-140.5 -60q-68 0 -149 47l-37 20q-49 25 -80 25q-34 0 -55 -24t-21 -62v-8z" />
    <glyph glyph-name="adieresis" unicode="&#xe4;" 
d="M389 748q-58 -1 -81 -62t-23 -215q0 -200 21 -270t81 -70t82.5 70.5t22.5 259.5q0 168 -21.5 227.5t-81.5 59.5zM492 0v106h-5q-62 -118 -163 -118q-79 0 -134 61q-46 49 -63.5 132t-17.5 243q0 249 50 356t167 107q51 0 85.5 -23t75.5 -86h5v96h163v-874h-163zM172 1210
q43 0 74 -30.5t31 -73.5q0 -44 -31 -75.5t-74 -31.5q-44 0 -75 31.5t-31 75.5q0 43 31 73.5t75 30.5zM576 1210q44 0 75 -30.5t31 -73.5q0 -44 -31 -75.5t-75 -31.5q-43 0 -74 31.5t-31 75.5q0 43 31 73.5t74 30.5z" />
    <glyph glyph-name="aring" unicode="&#xe5;" 
d="M389 748q-58 -1 -81 -62t-23 -215q0 -200 21 -270t81 -70t82.5 70.5t22.5 259.5q0 168 -21.5 227.5t-81.5 59.5zM492 0v106h-5q-62 -118 -163 -118q-79 0 -134 61q-46 49 -63.5 132t-17.5 243q0 249 50 356t167 107q51 0 85.5 -23t75.5 -86h5v96h163v-874h-163zM195 1128
q0 72 53.5 125.5t126.5 53.5q75 0 127.5 -54t52.5 -129q0 -77 -52.5 -130.5t-127.5 -53.5t-127.5 55t-52.5 133zM271 1128q0 -47 31 -79.5t75 -32.5q43 0 75 32t32 76q0 46 -31.5 77.5t-75.5 31.5q-43 0 -74.5 -31t-31.5 -74z" />
    <glyph glyph-name="ae" unicode="&#xe6;" horiz-adv-x="1130" 
d="M664 532h202q-2 131 -24 185.5t-74 54.5q-57 0 -80.5 -54t-23.5 -186zM391 743q-54 -2 -78 -64.5t-24 -203.5q0 -200 22 -274t80 -74q57 0 81 66.5t24 222.5q0 133 -9 201t-30.5 97t-63.5 29h-2zM496 0v94h-4q-25 -51 -69 -79.5t-97 -28.5q-114 0 -172 116
q-45 90 -45 330q0 158 15.5 241t53.5 136q28 36 67 57t79 21q99 0 168 -96h4v83h151v-55q75 68 150 68q74 0 133 -53t82 -140q12 -43 16 -103t6 -190h-370q0 -154 25.5 -219t86.5 -65q46 0 67.5 41t22.5 133h158q-3 -84 -18 -135t-48 -90q-31 -37 -77 -60.5t-88 -23.5
q-43 0 -77 18t-69 59v-59h-151z" />
    <glyph glyph-name="ccedilla" unicode="&#xe7;" horiz-adv-x="555" 
d="M510 162v-135q-83 -39 -148 -39q-134 0 -196 109.5t-62 346.5q0 269 99 371q71 74 164 74q52 0 141 -31v-139q-58 26 -92 26q-70 0 -102.5 -76t-32.5 -241q0 -297 129 -297q37 0 100 31zM152 -154l53 177h133l-32 -107q79 -9 124.5 -48.5t45.5 -98.5q0 -87 -80.5 -139
t-216.5 -52q-62 0 -136 12l11 117h22q11 -1 24.5 -2t20.5 -1.5t11 -0.5q178 0 178 76q0 64 -142 67h-16z" />
    <glyph glyph-name="egrave" unicode="&#xe8;" 
d="M291 535h203q0 134 -22 188.5t-75 54.5q-60 0 -82 -52t-24 -191zM500 295h149q-5 -157 -68 -232t-192 -75q-272 0 -272 430q0 469 282 469q102 0 174 -72q48 -52 67 -126.5t19 -217.5v-63h-368q2 -168 25 -227.5t87 -59.5q52 0 73.5 38.5t23.5 135.5zM498 985h-146
l-231 279h242z" />
    <glyph glyph-name="eacute" unicode="&#xe9;" 
d="M291 535h203q0 134 -22 188.5t-75 54.5q-60 0 -82 -52t-24 -191zM500 295h149q-5 -157 -68 -232t-192 -75q-272 0 -272 430q0 469 282 469q102 0 174 -72q48 -52 67 -126.5t19 -217.5v-63h-368q2 -168 25 -227.5t87 -59.5q52 0 73.5 38.5t23.5 135.5zM256 985l133 279
h236l-221 -279h-148z" />
    <glyph glyph-name="ecircumflex" unicode="&#xea;" 
d="M291 535h203q0 134 -22 188.5t-75 54.5q-60 0 -82 -52t-24 -191zM500 295h149q-5 -157 -68 -232t-192 -75q-272 0 -272 430q0 469 282 469q102 0 174 -72q48 -52 67 -126.5t19 -217.5v-63h-368q2 -168 25 -227.5t87 -59.5q52 0 73.5 38.5t23.5 135.5zM377 1155l-115 -170
h-204l217 279h190l225 -279h-204z" />
    <glyph glyph-name="edieresis" unicode="&#xeb;" 
d="M291 535h203q0 134 -22 188.5t-75 54.5q-60 0 -82 -52t-24 -191zM500 295h149q-5 -157 -68 -232t-192 -75q-272 0 -272 430q0 469 282 469q102 0 174 -72q48 -52 67 -126.5t19 -217.5v-63h-368q2 -168 25 -227.5t87 -59.5q52 0 73.5 38.5t23.5 135.5zM172 1210
q43 0 74 -30.5t31 -73.5q0 -44 -31 -75.5t-74 -31.5q-44 0 -75 31.5t-31 75.5q0 43 31 73.5t75 30.5zM576 1210q44 0 75 -30.5t31 -73.5q0 -44 -31 -75.5t-75 -31.5q-43 0 -74 31.5t-31 75.5q0 43 31 73.5t74 30.5z" />
    <glyph glyph-name="igrave" unicode="&#xec;" horiz-adv-x="385" 
d="M131 872h162v-872h-162v872zM318 985h-146l-231 279h242z" />
    <glyph glyph-name="iacute" unicode="&#xed;" horiz-adv-x="385" 
d="M131 872h162v-872h-162v872zM76 985l133 279h236l-221 -279h-148z" />
    <glyph glyph-name="icircumflex" unicode="&#xee;" horiz-adv-x="385" 
d="M131 872h162v-872h-162v872zM197 1155l-115 -170h-204l217 279h190l225 -279h-204z" />
    <glyph glyph-name="idieresis" unicode="&#xef;" horiz-adv-x="385" 
d="M131 872h162v-872h-162v872zM-8 1210q43 0 74 -30.5t31 -73.5q0 -44 -31 -75.5t-74 -31.5q-44 0 -75 31.5t-31 75.5q0 43 31 73.5t75 30.5zM396 1210q44 0 75 -30.5t31 -73.5q0 -44 -31 -75.5t-75 -31.5q-43 0 -74 31.5t-31 75.5q0 43 31 73.5t74 30.5z" />
    <glyph glyph-name="eth" unicode="&#xf0;" 
d="M285 573v-254q0 -200 106 -200q51 0 74.5 48.5t23.5 151.5v254q0 80 -28 130.5t-74 50.5q-96 0 -102 -181zM573 1260l-110 -70q51 -58 74 -95t47 -100q82 -209 82 -458v-129q0 -209 -70 -315.5t-207 -106.5q-133 0 -205.5 101.5t-72.5 289.5v131q0 173 71 274t193 101
q45 0 82 -15q-19 82 -43.5 136t-69.5 112l-158 -98l-36 53l151 94q-41 38 -82 66l86 82q66 -37 113 -76l121 74z" />
    <glyph glyph-name="ntilde" unicode="&#xf1;" 
d="M287 877v-84h4q29 45 74.5 70.5t95.5 25.5q190 0 190 -207v-682h-162v635q0 62 -26.5 95.5t-75.5 33.5q-47 0 -74.5 -34.5t-27.5 -94.5v-635h-164v877h166zM172 1010h-133v12q0 94 58 154.5t147 60.5q65 0 151 -47l31 -14q51 -23 80 -23q34 0 50 19.5t22 68.5h131
q-3 -109 -54.5 -169t-140.5 -60q-68 0 -149 47l-37 20q-49 25 -80 25q-34 0 -55 -24t-21 -62v-8z" />
    <glyph glyph-name="ograve" unicode="&#xf2;" 
d="M389 889q109 -3 174 -68q57 -55 80 -143.5t23 -251.5q0 -227 -66 -328q-34 -52 -89 -81t-120 -29q-145 0 -215 108.5t-70 335.5q0 171 28.5 265t96.5 145q66 47 154 47h4zM387 754q-58 0 -81 -55t-23 -195q0 -266 24 -324q24 -59 82 -59q59 0 81 56.5t22 207.5
q0 153 -9 229.5t-31 108t-65 31.5zM498 985h-146l-231 279h242z" />
    <glyph glyph-name="oacute" unicode="&#xf3;" 
d="M389 889q109 -3 174 -68q57 -55 80 -143.5t23 -251.5q0 -227 -66 -328q-34 -52 -89 -81t-120 -29q-145 0 -215 108.5t-70 335.5q0 171 28.5 265t96.5 145q66 47 154 47h4zM387 754q-58 0 -81 -55t-23 -195q0 -266 24 -324q24 -59 82 -59q59 0 81 56.5t22 207.5
q0 153 -9 229.5t-31 108t-65 31.5zM256 985l133 279h236l-221 -279h-148z" />
    <glyph glyph-name="ocircumflex" unicode="&#xf4;" 
d="M389 889q109 -3 174 -68q57 -55 80 -143.5t23 -251.5q0 -227 -66 -328q-34 -52 -89 -81t-120 -29q-145 0 -215 108.5t-70 335.5q0 171 28.5 265t96.5 145q66 47 154 47h4zM387 754q-58 0 -81 -55t-23 -195q0 -266 24 -324q24 -59 82 -59q59 0 81 56.5t22 207.5
q0 153 -9 229.5t-31 108t-65 31.5zM377 1155l-115 -170h-204l217 279h190l225 -279h-204z" />
    <glyph glyph-name="otilde" unicode="&#xf5;" 
d="M389 889q109 -3 174 -68q57 -55 80 -143.5t23 -251.5q0 -227 -66 -328q-34 -52 -89 -81t-120 -29q-145 0 -215 108.5t-70 335.5q0 171 28.5 265t96.5 145q66 47 154 47h4zM387 754q-58 0 -81 -55t-23 -195q0 -266 24 -324q24 -59 82 -59q59 0 81 56.5t22 207.5
q0 153 -9 229.5t-31 108t-65 31.5zM172 1010h-133v12q0 94 58 154.5t147 60.5q65 0 151 -47l31 -14q51 -23 80 -23q34 0 50 19.5t22 68.5h131q-3 -109 -54.5 -169t-140.5 -60q-68 0 -149 47l-37 20q-49 25 -80 25q-34 0 -55 -24t-21 -62v-8z" />
    <glyph glyph-name="odieresis" unicode="&#xf6;" 
d="M389 889q109 -3 174 -68q57 -55 80 -143.5t23 -251.5q0 -227 -66 -328q-34 -52 -89 -81t-120 -29q-145 0 -215 108.5t-70 335.5q0 171 28.5 265t96.5 145q66 47 154 47h4zM387 754q-58 0 -81 -55t-23 -195q0 -266 24 -324q24 -59 82 -59q59 0 81 56.5t22 207.5
q0 153 -9 229.5t-31 108t-65 31.5zM172 1210q43 0 74 -30.5t31 -73.5q0 -44 -31 -75.5t-74 -31.5q-44 0 -75 31.5t-31 75.5q0 43 31 73.5t75 30.5zM576 1210q44 0 75 -30.5t31 -73.5q0 -44 -31 -75.5t-75 -31.5q-43 0 -74 31.5t-31 75.5q0 43 31 73.5t74 30.5z" />
    <glyph glyph-name="divide" unicode="&#xf7;" horiz-adv-x="1366" 
d="M596 1083q2 33 26.5 56.5t59.5 23.5q34 0 58 -25t24 -59q0 -35 -24 -60.5t-58 -25.5q-35 0 -60.5 26.5t-25.5 63.5zM596 252q0 35 25.5 60.5t60.5 25.5t59.5 -25t24.5 -59q0 -35 -24.5 -60.5t-59.5 -25.5t-60.5 25t-25.5 59zM139 725h1090v-127h-1090v127z" />
    <glyph glyph-name="oslash" unicode="&#xf8;" 
d="M289 256l155 473q-8 4 -18 10q-21 15 -39 15q-57 0 -79.5 -56t-24.5 -196v-47q0 -16 1 -80.5t1 -118.5h4zM477 625l-151 -475q24 -27 61 -27q60 0 80 58.5t20 232.5v35v32q0 85 -6 144h-4zM500 907l61 -22l-14 -51q36 -36 52 -58.5t30 -54.5q37 -84 37 -287
q0 -226 -68 -335t-209 -109q-40 0 -108 16l-17 -39l-61 23l16 51q-32 33 -47 55.5t-27 53.5q-43 103 -43 294q0 225 69.5 334t213.5 109q38 0 102 -19z" />
    <glyph glyph-name="ugrave" unicode="&#xf9;" 
d="M123 877h162v-611q0 -145 104 -145q54 0 77 37t23 123v596h162v-601q0 -154 -61 -221t-201 -67t-203 66t-63 214v609zM498 985h-146l-231 279h242z" />
    <glyph glyph-name="uacute" unicode="&#xfa;" 
d="M123 877h162v-611q0 -145 104 -145q54 0 77 37t23 123v596h162v-601q0 -154 -61 -221t-201 -67t-203 66t-63 214v609zM256 985l133 279h236l-221 -279h-148z" />
    <glyph glyph-name="ucircumflex" unicode="&#xfb;" 
d="M123 877h162v-611q0 -145 104 -145q54 0 77 37t23 123v596h162v-601q0 -154 -61 -221t-201 -67t-203 66t-63 214v609zM377 1155l-115 -170h-204l217 279h190l225 -279h-204z" />
    <glyph glyph-name="udieresis" unicode="&#xfc;" 
d="M123 877h162v-611q0 -145 104 -145q54 0 77 37t23 123v596h162v-601q0 -154 -61 -221t-201 -67t-203 66t-63 214v609zM172 1210q43 0 74 -30.5t31 -73.5q0 -44 -31 -75.5t-74 -31.5q-44 0 -75 31.5t-31 75.5q0 43 31 73.5t75 30.5zM576 1210q44 0 75 -30.5t31 -73.5
q0 -44 -31 -75.5t-75 -31.5q-43 0 -74 31.5t-31 75.5q0 43 31 73.5t74 30.5z" />
    <glyph glyph-name="yacute" unicode="&#xfd;" 
d="M66 874h163l144 -602h4l178 602h156l-408 -1261h-143l143 465zM256 985l133 279h236l-221 -279h-148z" />
    <glyph glyph-name="thorn" unicode="&#xfe;" 
d="M293 1317v-545h4q33 61 73.5 88t96.5 27q72 0 125 -53q47 -47 66.5 -137.5t19.5 -262.5q0 -171 -19.5 -258.5t-68.5 -138.5q-51 -51 -121 -51q-46 0 -77.5 17t-76.5 69l-14 22h-4v-481h-166v1704h162zM295 569v-254q0 -83 27.5 -135.5t70.5 -52.5q58 0 84.5 63.5
t26.5 204.5q0 198 -24 275.5t-87 77.5q-44 0 -71 -49.5t-27 -129.5z" />
    <glyph glyph-name="ydieresis" unicode="&#xff;" 
d="M66 874h163l144 -602h4l178 602h156l-408 -1261h-143l143 465zM172 1210q43 0 74 -30.5t31 -73.5q0 -44 -31 -75.5t-74 -31.5q-44 0 -75 31.5t-31 75.5q0 43 31 73.5t75 30.5zM576 1210q44 0 75 -30.5t31 -73.5q0 -44 -31 -75.5t-75 -31.5q-43 0 -74 31.5t-31 75.5
q0 43 31 73.5t74 30.5z" />
    <glyph glyph-name="dotlessi" unicode="&#x131;" horiz-adv-x="385" 
d="M131 872h162v-872h-162v872z" />
    <glyph glyph-name="Lslash" unicode="&#x141;" horiz-adv-x="661" 
d="M311 1272v-486l109 121v-86l-109 -127v-551h287v-143h-455v500l-100 -115v92l100 113v682h168z" />
    <glyph glyph-name="lslash" unicode="&#x142;" horiz-adv-x="385" 
d="M129 1317h160v-553l104 88v-76l-104 -88v-688h-160v553l-111 -92v76l111 92v688z" />
    <glyph glyph-name="OE" unicode="&#x152;" horiz-adv-x="1130" 
d="M618 145v985q-10 1 -36.5 2.5t-49.5 2.5q-20 2 -57 2q-69 0 -106 -38t-53.5 -127.5t-16.5 -256.5q0 -13 1 -39t1 -39q13 -324 16 -350q3 -23 19 -64q19 -46 52.5 -67t88.5 -21q35 0 98 8q4 0 18.5 1t24.5 1zM1085 0h-452l-230 -6q-69 0 -137 49.5t-96 120.5
q-30 76 -42.5 186.5t-12.5 300.5q0 249 30 376t103 190q41 35 95 50t138 15q54 0 109 -4q14 -1 29.5 -2t24 -1.5t13.5 -0.5h418v-144h-282v-403h262v-145h-262v-439h292v-143z" />
    <glyph glyph-name="oe" unicode="&#x153;" horiz-adv-x="1130" 
d="M670 532h200q-1 135 -23.5 187.5t-78.5 52.5q-53 0 -75.5 -55t-22.5 -185zM395 752q-61 0 -87.5 -67t-26.5 -222q0 -203 23 -273.5t89 -70.5q60 0 85.5 64.5t25.5 217.5q0 202 -23 276.5t-86 74.5zM870 289h160q-9 -307 -260 -307q-61 0 -103.5 16.5t-80.5 54.5
q-49 -40 -93 -55.5t-104 -15.5q-160 0 -227 127q-32 60 -46 139.5t-14 206.5q0 140 23.5 222.5t77.5 135.5q80 74 203 74q50 0 90.5 -17t91.5 -59q65 46 100 61t82 15q62 0 115.5 -26.5t89.5 -74.5q35 -50 48 -112t13 -189v-84h-366q0 -159 24 -221.5t86 -62.5q90 0 90 172z
" />
    <glyph glyph-name="Scaron" unicode="&#x160;" horiz-adv-x="661" 
d="M109 31v153q3 -1 6.5 -3.5t7.5 -4.5q87 -51 149 -51q75 0 123.5 50t48.5 128q0 51 -20 91.5t-88 125.5q-1 2 -8.5 10.5t-10.5 14.5l-22 26q-42 51 -117 146q-53 77 -73.5 135t-20.5 129q0 139 81 226t210 87q91 0 182 -45v-139q-83 45 -151 45q-67 0 -114.5 -48
t-47.5 -116q0 -88 112 -225l21 -25q140 -174 183.5 -257t43.5 -179q0 -142 -85.5 -230.5t-223.5 -88.5q-44 0 -81.5 9t-104.5 36zM348 1483l111 168h205l-225 -279h-193l-215 279h205z" />
    <glyph glyph-name="scaron" unicode="&#x161;" horiz-adv-x="647" 
d="M190 27v135q57 -23 87.5 -30t66.5 -7q47 0 73.5 25.5t26.5 68.5q0 39 -29.5 78t-111.5 109q-15 11 -37 30q-57 56 -80.5 104t-23.5 111q0 103 68 171.5t171 68.5q63 0 158 -33v-133l-10 4q-80 27 -119 27q-52 0 -83.5 -26.5t-31.5 -70.5q0 -35 25.5 -69.5t93.5 -91.5
q53 -46 72 -66q96 -99 96 -203t-70.5 -171.5t-177.5 -67.5q-41 0 -73.5 7.5t-90.5 29.5zM342 1096l111 168h205l-225 -279h-193l-215 279h205z" />
    <glyph glyph-name="Ydieresis" unicode="&#x178;" 
d="M59 1274h170l158 -572h4l160 572h170l-248 -731v-543h-172v535zM172 1597q43 0 74 -30.5t31 -73.5q0 -44 -31 -75.5t-74 -31.5q-44 0 -75 31.5t-31 75.5q0 43 31 73.5t75 30.5zM576 1597q44 0 75 -30.5t31 -73.5q0 -44 -31 -75.5t-75 -31.5q-43 0 -74 31.5t-31 75.5
q0 43 31 73.5t74 30.5z" />
    <glyph glyph-name="Zcaron" unicode="&#x17d;" 
d="M129 1274h565l-405 -1131h366v-143h-575l403 1128h-354v146zM391 1483l111 168h205l-225 -279h-193l-215 279h205z" />
    <glyph glyph-name="zcaron" unicode="&#x17e;" horiz-adv-x="661" 
d="M96 874h518l-311 -749h281v-125h-500l305 748h-293v126zM348 1096l111 168h205l-225 -279h-193l-215 279h205z" />
    <glyph glyph-name="florin" unicode="&#x192;" horiz-adv-x="1138" 
d="M51 -406l33 156q102 -22 156 -22q57 0 84.5 33t40.5 120l178 1041h-201l23 139h202l23 135q26 146 74 209q73 88 219 88q69 0 188 -35l19 -4l-35 -154q-105 25 -160 25q-57 0 -82.5 -32.5t-42.5 -127.5l-20 -104h204l-24 -139h-205l-190 -1092q-25 -141 -85.5 -200.5
t-177.5 -59.5q-98 0 -221 24z" />
    <glyph glyph-name="circumflex" unicode="&#x2c6;" horiz-adv-x="681" 
d="M344 1155l-115 -170h-204l217 279h190l225 -279h-204z" />
    <glyph glyph-name="caron" unicode="&#x2c7;" horiz-adv-x="681" 
d="M358 1096l111 168h205l-225 -279h-193l-215 279h205z" />
    <glyph glyph-name="breve" unicode="&#x2d8;" horiz-adv-x="681" 
d="M514 1253h123q-15 -124 -91 -191t-202 -67q-131 0 -207.5 66t-91.5 192h123q15 -69 56.5 -101t115.5 -32q75 0 117 32t57 101z" />
    <glyph glyph-name="dotaccent" unicode="&#x2d9;" horiz-adv-x="681" 
d="M340 1194q44 0 75 -31.5t31 -75.5q0 -43 -31 -73.5t-75 -30.5q-43 0 -73.5 30.5t-30.5 73.5q0 44 30.5 75.5t73.5 31.5z" />
    <glyph glyph-name="ring" unicode="&#x2da;" horiz-adv-x="681" 
d="M162 1128q0 72 53.5 125.5t126.5 53.5q75 0 127.5 -54t52.5 -129q0 -77 -52.5 -130.5t-127.5 -53.5t-127.5 55t-52.5 133zM238 1128q0 -47 31 -79.5t75 -32.5q43 0 75 32t32 76q0 46 -31.5 77.5t-75.5 31.5q-43 0 -74.5 -31t-31.5 -74z" />
    <glyph glyph-name="ogonek" unicode="&#x2db;" horiz-adv-x="681" 
d="M225 25h123q-39 -89 -39 -166q0 -65 41.5 -108.5t102.5 -43.5q79 0 168 47v-119q-52 -27 -113 -44t-107 -17q-98 0 -158.5 60.5t-60.5 160.5q0 85 43 230z" />
    <glyph glyph-name="tilde" unicode="&#x2dc;" horiz-adv-x="681" 
d="M139 1010h-133v12q0 94 58 154.5t147 60.5q65 0 151 -47l31 -14q51 -23 80 -23q34 0 50 19.5t22 68.5h131q-3 -109 -54.5 -169t-140.5 -60q-68 0 -149 47l-37 20q-49 25 -80 25q-34 0 -55 -24t-21 -62v-8z" />
    <glyph glyph-name="hungarumlaut" unicode="&#x2dd;" horiz-adv-x="681" 
d="M57 985l123 279h234l-211 -279h-146zM406 985l126 279h232l-207 -279h-151z" />
    <glyph glyph-name="Delta" unicode="&#x394;" horiz-adv-x="880" 
d="M950 0h-934v88q25 96 150 589t194 757h256q56 -224 167.5 -673t166.5 -673v-88zM735 152q-38 163 -114.5 488t-114.5 488q-3 13 -25 119h-6q-6 -27 -22 -117q-34 -146 -111.5 -474t-118.5 -504h512z" />
    <glyph glyph-name="Delta" unicode="&#x2206;" horiz-adv-x="880" 
d="M950 0h-934v88q25 96 150 589t194 757h256q56 -224 167.5 -673t166.5 -673v-88zM735 152q-38 163 -114.5 488t-114.5 488q-3 13 -25 119h-6q-6 -27 -22 -117q-34 -146 -111.5 -474t-118.5 -504h512z" />
    <glyph glyph-name="_03A9h" unicode="&#x3a9;" horiz-adv-x="1161" 
d="M1036 0h-374v154q178 231 178 604q0 249 -72.5 393.5t-200.5 144.5q-97 0 -162.5 -72.5t-94.5 -190.5t-29 -275q0 -391 182 -604v-154h-373v154h223q-33 40 -57 73t-59 96t-57.5 126t-39 155t-16.5 191q0 186 60.5 336.5t173.5 238.5t257 88q210 0 336.5 -180t126.5 -481
q0 -372 -223 -643h221v-154z" />
    <glyph glyph-name="pi" unicode="&#x3c0;" horiz-adv-x="1036" 
d="M1047 6q-2 -1 -10 -5.5t-13 -6.5t-14 -5.5t-19 -5t-22 -1.5q-53 0 -88 4.5t-72.5 22.5t-59 51t-35.5 92t-14 143v549h-323v-549q0 -182 -29 -295h-180q33 129 33 311v533q-29 0 -70.5 -13t-69.5 -30q-13 27 -34.5 76t-34.5 77q46 32 125 51t170 19h727v-180h-129v-553
q0 -46 4.5 -76.5t7.5 -44.5t14.5 -20.5t13 -6.5h15.5q13 0 24.5 3t17.5 6t7 2q6 -24 17.5 -53t24.5 -57.5t16 -37.5z" />
    <glyph glyph-name="endash" unicode="&#x2013;" horiz-adv-x="1024" 
d="M4 598h1043v-180h-1043v180z" />
    <glyph glyph-name="emdash" unicode="&#x2014;" horiz-adv-x="2048" 
d="M-2 604h2070v-182h-2070v182z" />
    <glyph glyph-name="quoteleft" unicode="&#x2018;" horiz-adv-x="385" 
d="M221 1282l58 -37l-7 -8q-40 -57 -52.5 -92.5t-12.5 -89.5h92v-174h-170v163q0 45 26.5 113t65.5 125z" />
    <glyph glyph-name="quoteright" unicode="&#x2019;" horiz-adv-x="385" 
d="M125 1280h174v-137q0 -140 -96 -262l-53 32q73 112 73 177q0 8 -2 16h-96v174z" />
    <glyph glyph-name="quotesinglbase" unicode="&#x201a;" horiz-adv-x="385" 
d="M221 231l129 -51l-192 -448l-78 26z" />
    <glyph glyph-name="quotedblleft" unicode="&#x201c;" horiz-adv-x="661" 
d="M223 1280l53 -33q-40 -65 -53.5 -101t-17.5 -91h94v-174h-170v166q0 49 26 114t68 119zM500 1280l55 -35q-68 -92 -74 -190h97v-174h-172v166q0 44 25.5 108t68.5 125z" />
    <glyph glyph-name="quotedblright" unicode="&#x201d;" horiz-adv-x="661" 
d="M127 1280h174v-137q0 -67 -26 -136.5t-72 -125.5l-53 32q71 97 71 177v16h-94v174zM401 1280h177v-137q0 -62 -27.5 -136t-69.5 -126l-55 32q39 58 54 98t18 95h-97v174z" />
    <glyph glyph-name="quotedblbase" unicode="&#x201e;" horiz-adv-x="661" 
d="M129 176h174v-137q0 -137 -96 -260l-53 31q69 104 69 192h-94v174zM403 176h177v-133q0 -132 -97 -266l-55 33q61 85 74 192h-99v174z" />
    <glyph glyph-name="dagger" unicode="&#x2020;" horiz-adv-x="661" 
d="M373 -375h-43q0 156 -6 297q-6 109 -31 328q-17 127 -17 172q0 32 17 125q23 107 26 205q-37 0 -58 -4.5t-58 -18.5q-34 -14 -56 -14q-28 0 -47.5 16.5t-19.5 42.5q0 31 19 50.5t48 19.5q25 0 60 -17q34 -14 54.5 -18t62.5 -6q-1 96 -7.5 149t-27.5 142q-19 92 -19 125
q0 55 19 84.5t53 29.5q38 0 61 -31t23 -83q0 -30 -14 -78q-22 -90 -31 -162t-10 -174q44 0 106 22q50 17 68 17q29 0 48 -19.5t19 -50.5q0 -25 -21 -43t-50 -18q-26 0 -64 16q-51 23 -104 25q0 -73 20 -164q25 -113 25 -197q0 -63 -15 -196q-25 -219 -30 -404v-168z" />
    <glyph glyph-name="daggerdbl" unicode="&#x2021;" horiz-adv-x="661" 
d="M315 963q-2 58 -7.5 91.5t-24.5 90.5q-21 77 -21 98q0 82 82 82q36 0 57 -22.5t21 -61.5q0 -29 -21 -96q-18 -58 -23 -91t-7 -91q39 2 57.5 6t50.5 20q45 19 70 19q29 0 47 -19t18 -49q0 -28 -20 -47t-49 -19q-16 0 -60 17q-59 22 -116 24q0 -52 5 -80t23 -79
q21 -56 21 -88q0 -26 -23 -88q-24 -63 -24 -101q0 -41 24 -114q23 -65 23 -99q0 -21 -21 -80q-18 -51 -23 -79.5t-7 -79.5q68 2 116 24q39 15 64 15q29 0 48 -18t19 -46q0 -29 -17 -46t-46 -17q-27 0 -68 14q-68 24 -110 24q0 -52 5.5 -84.5t24.5 -91.5q23 -65 23 -96
q0 -41 -23 -63.5t-63 -22.5q-35 0 -54.5 24t-19.5 70q0 28 21 90q19 56 24.5 87.5t5.5 84.5q-46 0 -69.5 -4.5t-57.5 -19.5q-30 -12 -49 -12q-31 0 -50 16.5t-19 44.5q0 29 17.5 48.5t45.5 19.5q18 0 62 -17q63 -24 125 -26q-2 59 -8 90.5t-27 79.5q-19 53 -19 77
q0 43 25 99q24 56 24 106q0 44 -24 98q-25 56 -25 97q0 38 19 82q18 40 23 69t7 95q-49 0 -110 -25q-48 -19 -68 -19q-30 0 -47.5 17t-17.5 45q0 31 17.5 49.5t45.5 18.5q24 0 62 -17q57 -22 116 -24z" />
    <glyph glyph-name="bullet" unicode="&#x2022;" horiz-adv-x="716" 
d="M104 717q0 105 74.5 179.5t179.5 74.5t179.5 -74.5t74.5 -179.5q0 -104 -75 -178t-179 -74t-179 74t-75 178z" />
    <glyph glyph-name="ellipsis" unicode="&#x2026;" horiz-adv-x="2048" 
d="M336 197q51 0 83 -31.5t32 -81.5q0 -45 -32 -77t-77 -32q-49 0 -82 32.5t-33 80.5q0 45 32 77t77 32zM1024 199q47 -1 78 -33t31 -78t-31.5 -78.5t-77.5 -32.5q-50 0 -81.5 31.5t-31.5 81.5q0 44 33.5 76.5t77.5 32.5h2zM1706 197q46 0 78.5 -32.5t32.5 -78.5
t-32.5 -78.5t-78.5 -32.5q-45 0 -78 33t-33 78q0 46 32.5 78.5t78.5 32.5z" />
    <glyph glyph-name="perthousand" unicode="&#x2030;" horiz-adv-x="1685" 
d="M1364 768q106 -6 151.5 -97.5t45.5 -301.5q0 -151 -20.5 -239.5t-65.5 -133.5q-51 -51 -117 -51q-97 0 -143 98t-46 303q0 178 24.5 266.5t84.5 128.5q42 27 84 27h2zM1309 584l-13 -240q-2 -25 -2 -74q0 -123 13.5 -169t48.5 -46q43 0 60.5 60.5t17.5 210.5
q0 106 -2.5 168t-11 100t-20.5 50.5t-34 12.5t-38.5 -22t-18.5 -51zM899 743q106 -5 151.5 -96t45.5 -301q0 -154 -20 -242t-64 -131q-51 -51 -119 -51q-97 0 -142.5 98t-45.5 304q0 178 24 266t84 129q38 24 84 24h2zM844 561l-13 -239q0 -12 -1 -37t-1 -37
q0 -122 14 -169.5t48 -47.5q43 0 60.5 61t17.5 211q0 72 -1 120t-4 87t-7.5 61t-12 37t-17.5 20t-24 5q-23 0 -40 -21.5t-19 -50.5zM268 1300q106 -5 151.5 -97t45.5 -302q0 -152 -20 -240.5t-64 -132.5q-52 -49 -119 -49q-97 0 -142.5 97t-45.5 303q0 180 24 267.5
t84 127.5q41 26 84 26h2zM213 1116l-12 -239q0 -13 -1 -37t-1 -37q0 -123 13 -169t48 -46q43 0 60.5 60.5t17.5 209.5q0 108 -2.5 169t-10 99.5t-19.5 51t-34 12.5q-23 0 -40 -22t-19 -52zM879 1305h102l-700 -1377h-97z" />
    <glyph glyph-name="guilsinglleft" unicode="&#x2039;" horiz-adv-x="448" 
d="M201 1024h168l-103 -469l99 -471h-164l-103 467z" />
    <glyph glyph-name="guilsinglright" unicode="&#x203a;" horiz-adv-x="448" 
d="M96 1024h168l103 -469l-103 -471h-168l103 471z" />
    <glyph glyph-name="fraction" unicode="&#x2044;" horiz-adv-x="276" 
d="M535 1315h131l-895 -1405h-131z" />
    <glyph glyph-name="fraction" unicode="&#x2215;" horiz-adv-x="276" 
d="M535 1315h131l-895 -1405h-131z" />
    <glyph glyph-name="Euro" unicode="&#x20ac;" 
d="M66 588l-17 -125h111q3 -477 354 -477q79 0 154 37v151q-76 -31 -123 -31q-139 0 -185 117q-26 62 -26 203h237l15 125h-252v102h264l14 125h-278q0 328 205 328q65 0 129 -23v156q-84 20 -168 20q-196 0 -279 -170q-61 -119 -61 -311h-86l-19 -125h101v-102h-90z" />
    <glyph glyph-name="litre" unicode="&#x2113;" horiz-adv-x="792" 
d="M639 80q-105 -109 -203 -109q-88 0 -149 58q-80 80 -80 258v215q-16 -19 -47.5 -58t-48.5 -59q-11 13 -33.5 39t-34.5 39q28 34 82 100.5t82 100.5v479q0 181 65.5 264.5t167.5 83.5q50 0 89 -20t61 -53t32.5 -70t10.5 -76q0 -139 -55.5 -270.5t-157.5 -282.5
q-42 -59 -43 -60v-370q0 -97 27.5 -138.5t66.5 -41.5q29 0 56 18t63 59q8 -18 24.5 -52.5t24.5 -53.5zM524 1257q0 97 -63 97q-13 0 -23 -3t-22.5 -14.5t-20 -32t-13 -59.5t-5.5 -92v-317l10 20q61 94 99 199.5t38 201.5z" />
    <glyph glyph-name="trademark" unicode="&#x2122;" horiz-adv-x="2048" 
d="M489 651v695h-264v120h666v-120h-266v-695h-136zM983 651v815h201l202 -651h5l196 651h197v-815h-125v684h-4l-205 -684h-123l-215 695h-4v-695h-125z" />
    <glyph glyph-name="Omega" unicode="&#x2126;" horiz-adv-x="1161" 
d="M1036 0h-374v154q178 231 178 604q0 249 -72.5 393.5t-200.5 144.5q-97 0 -162.5 -72.5t-94.5 -190.5t-29 -275q0 -391 182 -604v-154h-373v154h223q-33 40 -57 73t-59 96t-57.5 126t-39 155t-16.5 191q0 186 60.5 336.5t173.5 238.5t257 88q210 0 336.5 -180t126.5 -481
q0 -372 -223 -643h221v-154z" />
    <glyph glyph-name="estimated" unicode="&#x212e;" horiz-adv-x="1179" 
d="M1034 479h-741v-327q107 -107 264 -107q227 0 344 217q14 -7 38 -21.5t32 -19.5q-90 -126 -186.5 -186t-227.5 -60q-216 0 -342.5 141.5t-126.5 360.5q0 142 54.5 256t161 181t247.5 67q111 0 200.5 -37.5t148.5 -105t93 -158.5t41 -201zM817 549v248q-108 116 -270 116
q-147 0 -254 -110v-254h524z" />
    <glyph glyph-name="partialdiff" unicode="&#x2202;" horiz-adv-x="888" 
d="M874 1022q0 -186 -45 -412q-18 -90 -46 -175t-71.5 -168.5t-95.5 -145.5t-122.5 -100.5t-149.5 -38.5q-139 0 -224 98t-85 258q0 187 62.5 344t170.5 247.5t236 90.5q60 0 106 -29.5t68 -72.5h4q12 98 12 157q0 153 -52.5 213t-145.5 60q-59 0 -131 -35q-18 65 -39 129
q37 22 89 35.5t97 13.5q168 0 265 -114.5t97 -354.5zM666 756q-43 129 -152 129q-76 0 -144 -81t-108.5 -212t-40.5 -273q0 -95 33 -144.5t86 -49.5q114 0 199 173.5t127 457.5z" />
    <glyph glyph-name="product" unicode="&#x220f;" horiz-adv-x="1095" 
d="M969 -471h-187v1743h-469v-1743h-186v1905h842v-1905z" />
    <glyph glyph-name="summation" unicode="&#x2211;" horiz-adv-x="983" 
d="M852 -471h-793v90q72 145 218 435l219 435q-67 141 -200.5 421.5t-199.5 420.5v103h717v-154h-528q68 -143 197.5 -408.5t183.5 -377.5q-68 -135 -206.5 -405.5t-207.5 -405.5h600v-154z" />
    <glyph glyph-name="minus" unicode="&#x2212;" horiz-adv-x="1366" 
d="M139 729h1088v-131h-1088v131z" />
    <glyph glyph-name="radical" unicode="&#x221a;" horiz-adv-x="661" 
d="M731 1491q-46 -323 -211 -1516h-182q-30 109 -89 329t-89 329q-40 -23 -88 -53q-12 18 -36 53.5t-36 52.5q42 26 128 80.5t128 81.5q13 -48 170 -631q29 212 86.5 637t85.5 637h133z" />
    <glyph glyph-name="infinity" unicode="&#x221e;" horiz-adv-x="1161" 
d="M1087 598q0 -128 -79 -214.5t-183 -86.5q-85 0 -153.5 48t-104.5 120h-4q-101 -168 -244 -168q-47 0 -94 18.5t-88 54t-66.5 94.5t-25.5 132q0 92 42.5 161.5t103.5 102.5t126 33q50 0 94 -18t74 -46t48.5 -53.5t29.5 -50.5h4q21 40 50.5 74.5t84.5 64t119 29.5
q108 0 187 -85t79 -210zM936 602q0 68 -36.5 112t-94.5 44q-53 0 -88.5 -37t-83.5 -125q70 -166 168 -166q60 0 97.5 49t37.5 123zM500 598q-81 162 -166 162q-66 0 -101.5 -48.5t-35.5 -117.5q0 -70 38 -117t97 -47q31 0 57.5 14.5t47 42t34.5 52.5t29 59z" />
    <glyph glyph-name="integral" unicode="&#x222b;" horiz-adv-x="794" 
d="M647 1378q-29 11 -55 11q-117 0 -117 -175v-1323q0 -68 -14.5 -125t-45.5 -105.5t-87.5 -75.5t-134.5 -27q-69 0 -109 16q5 22 15.5 68.5t15.5 68.5q27 -8 55 -8q119 0 119 172v1323q0 70 17 129t50.5 106t91 74t132.5 27q27 0 60 -6t44 -12q-1 -4 -37 -138z" />
    <glyph glyph-name="approxequal" unicode="&#x2248;" horiz-adv-x="1366" 
d="M1180 862q-58 -82 -126.5 -128t-160.5 -46q-109 0 -225 70q-112 69 -195 69q-56 0 -107 -39t-90 -100l-88 96q60 83 125.5 128.5t159.5 45.5q116 0 223 -67q119 -72 197 -72q107 0 199 137zM1180 420q-57 -81 -125.5 -126.5t-161.5 -45.5q-114 0 -225 67q-114 70 -195 70
q-56 0 -107.5 -38t-89.5 -99l-88 96q59 82 125 127t160 45q116 0 223 -67q116 -70 197 -70q107 0 199 137z" />
    <glyph glyph-name="notequal" unicode="&#x2260;" horiz-adv-x="1366" 
d="M1143 315h-537l-131 -270h-141l133 270h-244v131h309l152 314h-461v131h527l137 280h139l-137 -280h254v-131h-320l-151 -314h471v-131z" />
    <glyph glyph-name="lessequal" unicode="&#x2264;" horiz-adv-x="1366" 
d="M1143 0h-920v131h920v-131zM1143 272l-920 412v92l920 412v-144l-713 -311v-4l713 -313v-144z" />
    <glyph glyph-name="greaterequal" unicode="&#x2265;" horiz-adv-x="1366" 
d="M1143 0h-920v131h920v-131zM1143 684l-920 -410v142l715 311v6l-715 314v141l920 -412v-92z" />
    <glyph glyph-name="lozenge" unicode="&#x25ca;" horiz-adv-x="823" 
d="M692 717q-218 -582 -270 -717h-90q-44 119 -133 357.5t-133 357.5q44 120 133 359.5t133 359.5h90q52 -135 270 -717zM559 717q-35 100 -102.5 288.5t-79.5 223.5q-25 -76 -55 -162t-66.5 -189t-56.5 -161q29 -85 88.5 -255t89.5 -255q30 85 90.5 255t91.5 255z" />
    <glyph glyph-name="uni00AD" horiz-adv-x="468" 
d="M88 508h326v-125h-326v125z" />
    <glyph glyph-name="uni03A9" horiz-adv-x="1161" 
d="M1036 0h-374v154q178 231 178 604q0 249 -72.5 393.5t-200.5 144.5q-97 0 -162.5 -72.5t-94.5 -190.5t-29 -275q0 -391 182 -604v-154h-373v154h223q-33 40 -57 73t-59 96t-57.5 126t-39 155t-16.5 191q0 186 60.5 336.5t173.5 238.5t257 88q210 0 336.5 -180t126.5 -481
q0 -372 -223 -643h221v-154z" />
    <glyph glyph-name="uni03BC" horiz-adv-x="1138" 
d="M997 1061v-1061h-159v125h-4q-52 -83 -112 -116.5t-155 -33.5q-82 0 -136 29t-109 102h-5v-514h-178v1469h178v-449v-67q0 -143 16 -213t60 -119q31 -35 75 -55.5t91 -20.5q96 0 164 58q59 51 78.5 120.5t19.5 225.5v69v451h176z" />
    </font>
</defs>
</svg>
